{"glyphs":{"0":{"ha":895,"x_min":83,"x_max":819,"o":"m 461 996 q 674 940 596 996 q 786 776 753 884 q 819 503 819 668 q 729 114 819 247 q 447 -18 639 -18 q 170 107 256 -18 q 83 482 83 233 q 173 865 83 735 q 461 996 262 996 m 453 822 q 368 791 399 822 q 322 687 336 760 q 309 489 309 615 q 342 232 309 309 q 453 155 375 155 q 535 189 505 155 q 579 296 566 222 q 593 496 593 370 q 580 689 593 619 q 537 791 567 760 q 453 822 507 822 z "},"1":{"ha":747,"x_min":21,"x_max":717,"o":"m 119 160 l 314 160 l 314 757 l 102 621 l 21 768 l 351 979 l 529 979 l 529 160 l 717 160 l 717 0 l 119 0 l 119 160 z "},"2":{"ha":843,"x_min":56,"x_max":774,"o":"m 56 170 q 327 396 235 314 q 471 550 419 478 q 524 688 524 623 q 479 789 524 751 q 361 827 435 827 q 299 821 328 827 q 253 809 271 815 q 232 802 236 803 l 218 684 l 72 684 l 65 940 q 123 958 77 944 q 237 983 170 971 q 371 996 304 996 q 651 932 551 996 q 750 722 750 869 q 705 544 750 629 q 578 374 660 458 q 357 170 497 290 l 774 170 l 774 0 l 56 0 l 56 170 z "},"3":{"ha":822,"x_min":35,"x_max":739,"o":"m 718 746 q 674 595 718 657 q 545 511 629 533 q 686 431 632 492 q 739 292 739 371 q 683 115 739 184 q 536 15 627 46 q 340 -17 446 -17 q 193 0 261 -17 q 80 36 125 17 q 35 58 35 56 l 93 211 q 139 193 102 207 q 231 166 176 179 q 340 153 286 153 q 471 189 425 153 q 517 294 517 225 q 465 394 517 358 q 319 431 414 431 l 211 431 l 211 576 l 326 576 q 460 610 412 576 q 507 711 507 644 q 467 795 507 764 q 354 827 427 827 q 293 822 323 827 q 243 812 262 817 q 218 806 224 807 l 204 694 l 58 694 l 52 937 q 113 956 65 941 q 231 983 161 970 q 361 996 300 996 q 718 746 718 996 z "},"4":{"ha":871,"x_min":21,"x_max":827,"o":"m 688 0 l 473 0 l 473 197 l 41 197 l 21 361 l 146 545 q 456 1000 310 787 l 688 979 l 688 368 l 827 368 l 827 197 l 688 197 l 688 0 m 229 368 l 476 368 l 476 734 l 229 368 z "},"5":{"ha":777,"x_min":24,"x_max":718,"o":"m 83 211 q 130 193 93 207 q 221 166 167 179 q 329 153 275 153 q 443 190 398 153 q 488 292 488 227 q 423 405 488 370 q 229 440 358 440 l 79 440 l 103 979 l 672 979 l 668 808 l 300 808 l 290 600 q 605 525 492 600 q 718 313 718 449 q 667 135 718 210 q 533 22 616 61 q 351 -17 450 -17 q 195 0 268 -17 q 73 36 122 17 q 24 58 24 56 l 83 211 z "},"6":{"ha":865,"x_min":77,"x_max":817,"o":"m 713 819 q 675 824 705 821 q 604 827 646 827 q 402 765 471 827 q 314 641 334 704 q 294 551 294 578 q 329 569 294 553 q 411 598 363 585 q 511 611 458 611 q 667 578 597 611 q 776 479 736 545 q 817 319 817 414 q 769 146 817 224 q 637 25 721 69 q 452 -18 554 -18 q 248 37 332 -18 q 120 190 163 93 q 77 410 77 286 q 134 712 77 581 q 309 920 192 844 q 597 996 425 996 q 686 989 649 996 q 722 982 722 983 l 713 819 m 289 366 q 334 205 289 257 q 450 153 379 153 q 557 192 517 153 q 597 298 597 232 q 559 409 597 370 q 447 447 521 447 q 373 436 408 447 q 316 414 338 425 q 289 399 294 403 l 289 366 z "},"7":{"ha":737,"x_min":7,"x_max":715,"o":"m 351 0 l 122 0 l 482 806 l 175 806 l 147 676 l 7 676 l 7 979 l 715 979 l 715 829 l 351 0 z "},"8":{"ha":858,"x_min":62,"x_max":796,"o":"m 772 733 q 727 603 772 653 q 621 525 681 553 q 749 431 701 488 q 796 286 796 375 q 748 128 796 197 q 614 20 700 58 q 414 -18 528 -18 q 222 18 301 -18 q 103 119 143 54 q 62 267 62 183 q 117 412 62 355 q 240 501 172 468 q 133 592 171 540 q 94 724 94 644 q 189 924 94 852 q 446 996 283 996 q 687 923 602 996 q 772 733 772 851 m 301 724 q 339 646 301 675 q 452 589 378 616 q 530 640 496 607 q 564 724 564 673 q 528 798 564 770 q 432 827 492 827 q 336 798 371 827 q 301 724 301 770 m 576 281 q 535 365 576 334 q 410 428 493 396 q 281 277 281 370 q 319 185 281 217 q 428 153 357 153 q 537 186 498 153 q 576 281 576 220 z "},"9":{"ha":857,"x_min":45,"x_max":785,"o":"m 149 158 q 185 155 155 157 q 257 153 215 153 q 460 213 392 153 q 548 335 529 273 q 567 425 567 397 q 529 407 559 421 q 451 381 498 393 q 350 368 403 368 q 131 443 216 368 q 45 659 45 518 q 93 832 45 755 q 224 952 140 909 q 410 996 307 996 q 614 941 529 996 q 742 790 699 886 q 785 570 785 693 q 728 266 785 399 q 554 58 671 134 q 264 -18 437 -18 q 176 -12 212 -18 q 139 -4 139 -5 l 149 158 m 572 618 q 527 775 572 724 q 411 827 482 827 q 304 787 345 827 q 264 679 264 747 q 302 569 264 608 q 414 530 340 530 q 488 542 452 530 q 545 565 524 553 q 572 581 567 576 l 572 618 z "},"\r":{"ha":590,"x_min":0,"x_max":0,"o":""}," ":{"ha":326,"x_min":0,"x_max":0,"o":""},"!":{"ha":472,"x_min":118,"x_max":354,"o":"m 126 1063 l 343 1063 l 318 363 l 151 355 l 126 1063 m 118 109 q 154 199 118 165 q 237 233 189 233 q 324 201 294 233 q 354 109 354 168 q 319 16 354 50 q 233 -18 283 -18 q 147 15 176 -18 q 118 109 118 47 z "},"\"":{"ha":612,"x_min":79,"x_max":547,"o":"m 79 1086 l 267 1086 l 236 694 l 79 694 l 79 1086 m 358 1086 l 547 1086 l 515 694 l 358 694 l 358 1086 z "},"#":{"ha":1014,"x_min":83,"x_max":930,"o":"m 297 833 l 473 833 l 449 653 l 624 653 l 647 833 l 823 833 l 800 653 l 930 653 l 930 510 l 781 510 l 758 339 l 896 339 l 896 196 l 739 196 l 714 0 l 538 0 l 562 196 l 389 196 l 363 0 l 186 0 l 212 196 l 83 196 l 83 339 l 231 339 l 254 510 l 118 510 l 118 653 l 272 653 l 297 833 m 604 510 l 431 510 l 407 339 l 582 339 l 604 510 z "},"$":{"ha":766,"x_min":77,"x_max":704,"o":"m 313 -16 q 203 -3 256 -12 q 118 17 151 7 q 77 29 85 26 l 77 275 l 204 275 l 225 171 q 244 163 229 170 q 286 151 260 157 q 346 146 313 146 q 457 172 412 146 q 501 244 501 197 q 465 307 501 284 q 347 358 429 330 q 210 415 264 387 q 116 497 155 443 q 77 639 77 551 q 140 811 77 745 q 313 899 204 878 l 313 1063 l 461 1063 l 461 904 q 563 889 514 900 q 640 867 611 878 q 677 854 669 857 l 672 627 l 553 627 l 526 729 q 488 740 526 730 q 415 750 449 750 q 315 726 350 750 q 281 663 281 701 q 318 599 281 623 q 436 547 355 575 q 574 490 521 517 q 665 410 627 463 q 704 275 704 357 q 638 90 704 163 q 461 -7 572 17 l 461 -203 l 313 -203 l 313 -16 z "},"%":{"ha":1298,"x_min":77,"x_max":1206,"o":"m 77 734 q 109 874 77 815 q 199 964 142 933 q 326 996 256 996 q 496 932 432 996 q 561 750 561 868 q 528 611 561 671 q 439 519 496 551 q 310 486 382 486 q 140 548 203 486 q 77 734 77 610 m 450 -11 l 249 -11 l 829 989 l 1031 989 l 450 -11 m 236 741 q 254 640 236 673 q 317 607 272 607 q 382 641 363 607 q 401 745 401 675 q 383 843 401 810 q 319 876 364 876 q 255 842 275 876 q 236 741 236 807 m 721 229 q 753 369 721 310 q 843 459 786 428 q 971 490 900 490 q 1141 427 1077 490 q 1206 244 1206 363 q 1173 105 1206 165 q 1083 13 1140 46 q 954 -20 1026 -20 q 784 42 847 -20 q 721 229 721 104 m 880 235 q 899 135 880 168 q 961 102 917 102 q 1026 136 1007 102 q 1046 239 1046 170 q 1027 337 1046 304 q 964 371 1008 371 q 900 336 919 371 q 880 235 880 301 z "},"&":{"ha":940,"x_min":77,"x_max":899,"o":"m 591 718 q 570 808 582 755 q 550 814 566 810 q 507 822 534 818 q 444 827 479 827 q 347 794 380 827 q 313 717 313 762 q 359 624 313 657 q 472 590 406 590 l 899 590 l 899 472 l 802 440 l 802 293 q 701 66 802 149 q 428 -17 600 -17 q 164 58 252 -17 q 77 261 77 134 q 137 420 77 357 q 253 511 197 484 q 185 558 213 536 q 132 624 158 579 q 106 730 106 668 q 199 927 106 859 q 456 996 293 996 q 611 975 528 996 q 729 937 694 954 l 722 718 l 591 718 m 496 440 q 349 403 406 440 q 292 290 292 366 q 332 189 292 225 q 441 153 372 153 q 558 194 515 153 q 600 313 600 236 l 600 440 l 496 440 z "},"'":{"ha":333,"x_min":77,"x_max":264,"o":"m 77 1086 l 264 1086 l 233 694 l 77 694 l 77 1086 z "},"(":{"ha":490,"x_min":75,"x_max":486,"o":"m 486 1069 q 328 736 386 917 q 269 392 269 555 q 327 18 269 212 q 485 -319 385 -175 l 306 -319 q 130 16 185 -149 q 75 389 75 180 q 131 738 75 581 q 306 1069 186 896 l 486 1069 z "},")":{"ha":486,"x_min":-1,"x_max":410,"o":"m 179 1069 q 354 738 298 896 q 410 389 410 581 q 355 15 410 180 q 179 -319 300 -150 l 0 -319 q 157 18 100 -175 q 215 392 215 211 q 157 736 215 556 q -1 1069 98 917 l 179 1069 z "},"*":{"ha":579,"x_min":35,"x_max":530,"o":"m 236 857 l 216 1022 l 346 1025 l 334 856 l 283 815 l 236 857 m 334 856 l 488 924 l 530 799 l 361 764 l 310 800 l 334 856 m 207 766 l 35 796 l 77 920 l 236 857 l 261 798 l 207 766 m 283 710 l 200 555 l 93 631 l 207 766 l 269 771 l 283 710 m 475 632 l 374 555 l 283 710 l 298 771 l 361 764 l 475 632 z "},"+":{"ha":861,"x_min":58,"x_max":802,"o":"m 339 741 l 524 741 l 524 457 l 802 457 l 802 293 l 524 293 l 524 0 l 339 0 l 339 293 l 58 293 l 58 457 l 339 457 l 339 741 z "},",":{"ha":420,"x_min":56,"x_max":335,"o":"m 98 110 q 133 199 98 165 q 218 233 167 233 q 303 200 271 233 q 335 106 335 167 q 143 -257 335 -51 l 56 -184 q 82 -146 62 -176 q 120 -80 102 -117 q 139 -18 139 -43 q 131 11 139 -5 q 122 29 123 26 q 105 68 111 52 q 98 110 98 85 z "},"-":{"ha":548,"x_min":77,"x_max":472,"o":"m 472 292 l 77 292 l 77 465 l 472 465 l 472 292 z "},".":{"ha":416,"x_min":90,"x_max":326,"o":"m 90 109 q 126 199 90 165 q 210 233 161 233 q 296 201 267 233 q 326 109 326 168 q 292 16 326 50 q 207 -18 257 -18 q 120 15 150 -18 q 90 109 90 47 z "},"/":{"ha":716,"x_min":28,"x_max":703,"o":"m 239 0 l 28 0 l 490 979 l 703 979 l 239 0 z "},":":{"ha":423,"x_min":93,"x_max":329,"o":"m 93 525 q 129 617 93 583 q 214 652 164 652 q 300 619 271 652 q 329 525 329 586 q 294 434 329 468 q 210 400 258 400 q 123 433 153 400 q 93 525 93 465 m 93 109 q 129 199 93 165 q 214 233 164 233 q 300 201 271 233 q 329 109 329 168 q 294 16 329 50 q 210 -18 260 -18 q 123 15 153 -18 q 93 109 93 47 z "},";":{"ha":431,"x_min":58,"x_max":338,"o":"m 102 525 q 136 617 102 583 q 221 652 171 652 q 308 619 278 652 q 338 525 338 586 q 302 434 338 468 q 218 400 267 400 q 132 433 161 400 q 102 525 102 465 m 58 -184 q 85 -146 65 -176 q 123 -80 104 -117 q 142 -18 142 -43 q 134 11 142 -5 q 125 29 126 26 q 108 68 114 52 q 102 110 102 85 q 136 199 102 165 q 222 233 170 233 q 307 200 275 233 q 338 106 338 167 q 147 -257 338 -50 l 58 -184 z "},"<":{"ha":829,"x_min":56,"x_max":774,"o":"m 56 289 l 56 456 l 774 760 l 774 579 l 281 371 l 774 170 l 774 -14 l 56 289 z "},"=":{"ha":833,"x_min":69,"x_max":764,"o":"m 764 447 l 69 447 l 69 607 l 764 607 l 764 447 m 764 149 l 69 149 l 69 309 l 764 309 l 764 149 z "},">":{"ha":829,"x_min":56,"x_max":774,"o":"m 56 760 l 774 456 l 774 289 l 56 -14 l 56 170 l 549 371 l 56 579 l 56 760 z "},"?":{"ha":644,"x_min":90,"x_max":575,"o":"m 143 343 q 136 404 142 358 q 131 479 131 450 q 161 564 131 526 q 250 652 192 602 q 336 736 307 701 q 366 814 366 772 q 240 905 366 905 q 165 899 203 905 q 117 890 127 893 l 90 1035 q 131 1045 98 1038 q 211 1060 164 1053 q 297 1068 257 1068 q 496 1017 416 1068 q 575 852 575 966 q 554 750 575 797 q 504 669 533 703 q 427 587 475 635 q 349 503 374 536 q 325 432 325 469 q 326 382 325 406 q 328 351 328 359 l 143 343 m 131 109 q 166 199 131 165 q 250 233 201 233 q 337 201 307 233 q 367 109 367 168 q 331 16 367 50 q 245 -18 296 -18 q 160 15 189 -18 q 131 109 131 47 z "},"@":{"ha":1139,"x_min":65,"x_max":1083,"o":"m 823 204 q 715 231 755 204 q 657 290 675 258 q 632 267 657 288 q 571 228 607 245 q 493 210 534 210 q 378 253 419 210 q 336 370 336 296 q 570 534 336 535 l 633 534 l 633 582 q 614 631 633 615 q 553 647 595 647 q 458 636 514 647 q 403 624 403 625 l 376 726 q 417 740 385 729 q 495 759 449 750 q 586 768 542 768 q 742 727 693 768 q 790 593 790 685 l 790 363 q 803 327 790 340 q 839 314 817 314 q 906 362 882 314 q 930 501 930 410 q 840 766 930 671 q 578 861 749 861 q 312 763 406 861 q 218 486 218 665 q 299 210 218 306 q 546 114 380 114 q 626 121 587 114 q 690 137 665 129 q 720 149 714 146 l 777 35 q 742 19 777 33 q 655 -8 708 4 q 536 -21 602 -21 q 187 107 309 -21 q 65 479 65 236 q 129 754 65 637 q 311 933 193 871 q 585 996 428 996 q 850 940 737 996 q 1023 774 962 884 q 1083 509 1083 664 q 1049 344 1083 413 q 957 240 1015 275 q 823 204 899 204 m 482 382 q 497 344 482 358 q 539 330 513 330 q 593 347 568 330 q 633 378 618 363 l 633 443 l 579 443 q 505 428 528 443 q 482 382 482 414 z "},"A":{"ha":1038,"x_min":7,"x_max":1032,"o":"m 1032 0 l 590 0 l 590 118 l 694 155 l 661 257 l 353 257 l 318 157 l 427 118 l 427 0 l 7 0 l 7 118 l 109 157 l 414 975 l 636 979 l 935 157 l 1032 118 l 1032 0 m 511 734 l 401 406 l 615 406 l 511 734 z "},"B":{"ha":913,"x_min":49,"x_max":851,"o":"m 514 979 q 737 919 654 979 q 819 739 819 859 q 653 510 819 563 q 801 425 750 482 q 851 288 851 368 q 490 0 851 0 l 49 0 l 49 118 l 153 160 l 153 812 l 49 854 l 49 972 l 368 979 l 514 979 m 449 579 q 565 612 525 579 q 604 708 604 644 q 572 786 604 760 q 486 812 539 812 l 368 812 l 368 579 l 449 579 m 484 167 q 594 198 555 167 q 632 288 632 229 q 588 398 632 363 q 449 433 543 433 l 368 433 l 368 167 l 484 167 z "},"C":{"ha":926,"x_min":77,"x_max":885,"o":"m 693 800 q 667 807 688 802 q 612 817 647 812 q 538 822 578 822 q 368 738 427 822 q 309 482 309 653 q 370 240 309 318 q 545 163 431 163 q 665 184 606 163 q 766 231 724 205 q 808 260 808 257 l 885 135 q 832 91 885 131 q 699 17 779 50 q 521 -17 618 -17 q 193 109 309 -17 q 77 475 77 235 q 134 753 77 636 q 297 933 192 871 q 545 996 403 996 q 691 981 620 996 q 815 949 762 966 q 868 930 868 932 l 861 667 l 725 667 l 693 800 z "},"D":{"ha":1018,"x_min":56,"x_max":949,"o":"m 160 812 l 56 854 l 56 972 l 375 979 l 507 979 q 833 857 718 979 q 949 503 949 734 q 892 235 949 349 q 731 60 835 121 q 486 0 627 0 l 56 0 l 56 118 l 160 160 l 160 812 m 490 167 q 657 242 599 167 q 715 496 715 318 q 661 739 715 665 q 500 812 607 812 l 375 812 l 375 167 l 490 167 z "},"E":{"ha":863,"x_min":62,"x_max":787,"o":"m 663 431 l 382 431 l 382 167 l 631 167 l 663 281 l 787 281 l 787 0 l 62 0 l 62 118 l 167 160 l 167 812 l 62 854 l 62 972 l 382 979 l 771 979 l 771 711 l 646 711 l 611 812 l 382 812 l 382 583 l 663 583 l 663 431 z "},"F":{"ha":805,"x_min":62,"x_max":771,"o":"m 62 118 l 167 160 l 167 812 l 62 854 l 62 972 l 382 979 l 771 979 l 771 715 l 642 715 l 607 812 l 382 812 l 382 570 l 669 570 l 669 416 l 382 416 l 382 160 l 510 118 l 510 0 l 62 0 l 62 118 z "},"G":{"ha":1042,"x_min":77,"x_max":993,"o":"m 697 800 q 672 807 692 802 q 616 817 652 812 q 541 822 581 822 q 368 738 427 822 q 309 482 309 653 q 545 160 309 160 q 610 165 576 160 q 667 177 644 171 q 697 184 690 183 l 697 359 l 593 392 l 593 505 l 993 513 l 993 392 l 899 359 l 899 77 q 846 50 899 74 q 709 4 793 25 q 521 -17 625 -17 q 193 109 309 -17 q 77 475 77 235 q 134 753 77 636 q 297 933 192 871 q 545 996 403 996 q 691 981 620 996 q 815 949 762 966 q 868 930 868 932 l 861 681 l 732 681 l 697 800 z "},"H":{"ha":1100,"x_min":49,"x_max":1051,"o":"m 49 118 l 153 160 l 153 812 l 49 854 l 49 972 l 479 979 l 479 854 l 368 812 l 368 590 l 732 590 l 732 812 l 621 854 l 621 972 l 1051 979 l 1051 854 l 947 812 l 947 160 l 1051 118 l 1051 0 l 621 0 l 621 118 l 732 160 l 732 424 l 368 424 l 368 160 l 479 118 l 479 0 l 49 0 l 49 118 z "},"I":{"ha":534,"x_min":56,"x_max":479,"o":"m 56 118 l 160 160 l 160 812 l 56 854 l 56 972 l 479 979 l 479 854 l 375 812 l 375 160 l 479 118 l 479 0 l 56 0 l 56 118 z "},"J":{"ha":533,"x_min":-41,"x_max":485,"o":"m 380 147 q 351 -60 380 21 q 253 -181 322 -140 q 64 -222 183 -222 q 2 -218 36 -222 q -41 -212 -32 -214 l -24 -69 l 43 -69 q 165 64 165 -69 l 165 812 l 61 854 l 61 972 l 485 979 l 485 854 l 380 812 l 380 147 z "},"K":{"ha":1000,"x_min":49,"x_max":1000,"o":"m 49 118 l 153 160 l 153 815 l 49 857 l 49 972 l 472 979 l 472 857 l 368 815 l 368 576 l 463 576 l 694 972 l 951 979 l 951 857 l 819 818 l 637 515 l 896 160 l 1000 118 l 1000 0 l 576 0 l 576 118 l 660 160 l 469 424 l 368 424 l 368 160 l 472 118 l 472 0 l 49 0 l 49 118 z "},"L":{"ha":749,"x_min":41,"x_max":736,"o":"m 604 319 l 736 319 l 736 0 l 41 0 l 41 118 l 146 160 l 146 812 l 41 854 l 41 972 l 465 979 l 465 854 l 361 812 l 361 167 l 574 167 l 604 319 z "},"M":{"ha":1219,"x_min":49,"x_max":1171,"o":"m 49 118 l 153 160 l 153 812 l 49 854 l 49 972 l 407 979 l 615 517 l 833 972 l 1166 979 l 1166 854 l 1067 812 l 1067 160 l 1171 118 l 1171 0 l 757 0 l 757 118 l 865 160 l 865 682 l 828 590 l 671 264 l 521 257 l 361 586 l 338 659 l 338 160 l 444 118 l 444 0 l 49 0 l 49 118 z "},"N":{"ha":1093,"x_min":49,"x_max":1051,"o":"m 49 118 l 153 160 l 153 812 l 49 854 l 49 972 l 382 979 l 757 338 l 757 812 l 656 854 l 656 972 l 1051 979 l 1051 854 l 947 812 l 947 0 l 715 0 l 343 629 l 343 160 l 452 118 l 452 0 l 49 0 l 49 118 z "},"O":{"ha":1048,"x_min":77,"x_max":972,"o":"m 534 996 q 858 866 743 996 q 972 503 972 736 q 914 231 972 349 q 750 47 856 113 q 507 -18 644 -18 q 188 110 299 -18 q 77 482 77 237 q 132 756 77 640 q 291 934 187 872 q 534 996 395 996 m 528 822 q 366 745 419 822 q 313 489 313 668 q 361 236 313 317 q 514 155 410 155 q 679 235 623 155 q 736 496 736 315 q 685 744 736 665 q 528 822 633 822 z "},"P":{"ha":865,"x_min":49,"x_max":838,"o":"m 49 118 l 153 160 l 153 812 l 49 854 l 49 972 l 368 979 l 500 979 q 748 901 658 979 q 838 688 838 823 q 735 428 838 515 q 441 340 633 340 l 368 340 l 368 160 l 472 118 l 472 0 l 49 0 l 49 118 m 441 503 q 576 543 529 503 q 623 660 623 583 q 586 771 623 729 q 479 812 549 812 l 368 812 l 368 503 l 441 503 z "},"Q":{"ha":1030,"x_min":77,"x_max":1166,"o":"m 472 -16 q 178 124 279 -3 q 77 482 77 250 q 134 755 77 639 q 296 933 191 871 q 545 996 401 996 q 871 866 757 996 q 986 503 986 736 q 910 196 986 323 q 697 16 833 68 l 747 -17 q 869 -92 818 -66 q 965 -118 920 -118 q 1013 -107 985 -118 q 1064 -85 1042 -96 q 1093 -69 1086 -74 l 1139 -139 l 1166 -180 q 1115 -211 1156 -187 q 1023 -256 1075 -235 q 930 -278 971 -278 q 847 -259 889 -278 q 753 -204 806 -240 l 472 -16 m 538 822 q 362 742 419 822 q 306 489 306 663 q 359 238 306 321 q 524 155 412 155 q 699 239 642 155 q 757 496 757 322 q 704 743 757 664 q 538 822 652 822 z "},"R":{"ha":937,"x_min":49,"x_max":924,"o":"m 49 118 l 153 160 l 153 812 l 49 854 l 49 972 l 368 979 l 473 979 q 741 908 647 979 q 835 696 835 836 q 793 536 835 602 q 677 433 751 471 q 736 343 712 393 l 829 153 l 924 118 l 924 0 l 667 0 l 550 257 q 508 341 524 317 q 474 375 493 366 q 416 385 454 385 l 368 385 l 368 160 l 468 118 l 468 0 l 49 0 l 49 118 m 447 530 q 575 569 529 530 q 621 676 621 607 q 583 774 621 736 q 482 812 546 812 l 368 812 l 368 530 l 447 530 z "},"S":{"ha":840,"x_min":83,"x_max":771,"o":"m 249 184 q 271 175 253 182 q 319 162 289 168 q 385 155 349 155 q 504 185 455 155 q 553 268 553 215 q 531 321 553 300 q 477 358 510 343 q 382 395 444 372 q 231 458 290 427 q 127 548 171 489 q 83 701 83 607 q 129 861 83 794 q 255 962 175 928 q 436 996 335 996 q 573 983 505 996 q 686 958 642 971 q 742 940 730 945 l 734 688 l 607 688 l 572 806 q 549 812 567 807 q 503 822 530 817 q 450 827 476 827 q 341 799 380 827 q 302 728 302 771 q 344 657 302 683 q 476 600 386 632 q 627 538 568 568 q 729 450 686 507 q 771 304 771 393 q 722 130 771 203 q 589 19 673 57 q 396 -18 504 -18 q 258 -6 327 -18 q 144 18 189 5 q 86 35 98 31 l 86 301 l 228 301 l 249 184 z "},"T":{"ha":833,"x_min":14,"x_max":819,"o":"m 309 812 l 176 812 l 142 681 l 14 681 l 14 979 l 819 979 l 819 681 l 690 681 l 656 812 l 524 812 l 524 160 l 656 118 l 656 0 l 176 0 l 176 118 l 309 160 l 309 812 z "},"U":{"ha":1095,"x_min":49,"x_max":1047,"o":"m 367 375 q 407 203 367 254 q 549 153 447 153 q 660 178 621 153 q 713 256 699 204 q 728 396 728 309 l 728 812 l 619 854 l 619 972 l 1047 979 l 1047 854 l 943 812 l 943 396 q 851 85 943 188 q 542 -17 758 -17 q 243 78 335 -17 q 151 375 151 172 l 151 812 l 49 854 l 49 972 l 475 979 l 475 854 l 367 812 l 367 375 z "},"V":{"ha":1005,"x_min":7,"x_max":999,"o":"m 7 972 l 437 979 l 437 854 l 335 814 l 463 415 l 507 244 l 551 408 l 689 812 l 583 854 l 583 972 l 999 979 l 999 854 l 897 812 l 604 0 l 382 0 l 102 815 l 7 854 l 7 972 z "},"W":{"ha":1437,"x_min":7,"x_max":1430,"o":"m 7 972 l 419 979 l 419 854 l 318 812 l 437 313 l 632 968 l 819 979 l 1006 314 l 1139 812 l 1035 854 l 1035 972 l 1430 979 l 1430 854 l 1331 812 l 1093 0 l 896 0 l 714 660 l 681 528 l 521 0 l 329 0 l 104 814 l 7 854 l 7 972 z "},"X":{"ha":1027,"x_min":14,"x_max":1014,"o":"m 14 118 l 100 153 l 380 492 l 122 828 l 41 854 l 41 972 l 458 979 l 458 854 l 389 831 l 532 640 l 668 825 l 593 854 l 593 972 l 993 979 l 993 854 l 901 827 l 646 503 l 917 151 l 1014 118 l 1014 0 l 583 0 l 583 118 l 647 146 l 494 351 l 339 151 l 427 118 l 427 0 l 14 0 l 14 118 z "},"Y":{"ha":926,"x_min":9,"x_max":917,"o":"m 250 118 l 354 160 l 354 339 l 100 817 l 9 854 l 9 972 l 403 979 l 403 854 l 332 825 l 471 526 l 618 823 l 542 854 l 542 972 l 917 979 l 917 854 l 821 817 l 570 340 l 570 160 l 673 118 l 673 0 l 250 0 l 250 118 z "},"Z":{"ha":854,"x_min":41,"x_max":812,"o":"m 534 812 l 243 812 l 208 688 l 77 688 l 77 979 l 812 979 l 812 822 l 329 167 l 646 167 l 676 306 l 808 306 l 808 0 l 41 0 l 41 146 l 534 812 z "},"[":{"ha":488,"x_min":93,"x_max":440,"o":"m 93 1069 l 440 1063 l 440 920 l 275 904 l 275 -155 l 440 -171 l 440 -313 l 93 -319 l 93 1069 z "},"\\":{"ha":703,"x_min":9,"x_max":685,"o":"m 9 979 l 222 979 l 685 0 l 473 0 l 9 979 z "},"]":{"ha":488,"x_min":45,"x_max":392,"o":"m 211 904 l 45 920 l 45 1063 l 392 1069 l 392 -319 l 45 -313 l 45 -170 l 211 -154 l 211 904 z "},"^":{"ha":826,"x_min":69,"x_max":757,"o":"m 336 979 l 489 979 l 757 444 l 578 444 l 410 785 l 243 444 l 69 444 l 336 979 z "},"_":{"ha":688,"x_min":-3,"x_max":692,"o":"m 692 -250 l -3 -250 l -3 -111 l 692 -111 l 692 -250 z "},"`":{"ha":444,"x_min":33,"x_max":437,"o":"m 437 932 l 370 831 l 33 1035 l 127 1179 l 437 932 z "},"a":{"ha":834,"x_min":56,"x_max":800,"o":"m 497 90 q 461 60 497 87 q 375 9 425 32 q 272 -14 325 -14 q 113 43 170 -14 q 56 204 56 100 q 141 378 56 323 q 390 433 227 433 l 488 433 l 488 510 q 380 611 488 612 q 321 606 349 611 q 278 596 294 602 q 258 590 262 591 l 237 503 l 113 503 l 103 708 q 163 726 115 712 q 278 751 211 739 q 404 764 345 764 q 574 737 511 764 q 667 650 637 710 q 696 489 696 590 l 696 146 l 800 121 l 800 9 l 522 0 l 497 90 m 257 225 q 278 163 257 184 q 339 142 300 142 q 405 160 372 142 q 460 197 437 178 q 488 222 482 216 l 488 315 l 408 315 q 292 294 328 315 q 257 225 257 272 z "},"b":{"ha":858,"x_min":7,"x_max":803,"o":"m 319 690 q 404 742 357 720 q 518 764 450 764 q 730 668 657 764 q 803 396 803 572 q 700 90 803 197 q 400 -17 597 -17 q 268 -10 332 -17 q 163 4 204 -3 q 111 14 122 11 l 111 926 l 7 954 l 7 1065 l 319 1076 l 319 690 m 319 161 q 349 155 319 160 q 422 150 378 150 q 587 382 588 150 q 555 543 587 489 q 452 597 522 597 q 385 584 414 597 q 337 553 355 570 q 319 534 319 536 l 319 161 z "},"c":{"ha":729,"x_min":49,"x_max":708,"o":"m 708 104 q 586 24 661 62 q 410 -14 510 -14 q 144 86 239 -14 q 49 364 49 186 q 150 657 49 550 q 431 764 250 764 q 537 753 484 764 q 628 731 591 742 q 673 715 664 720 l 667 488 l 542 488 l 522 586 q 488 592 515 587 q 427 597 461 597 q 307 545 350 597 q 264 392 264 493 q 308 215 264 277 q 437 153 351 153 q 533 169 492 153 q 602 203 574 186 q 639 227 629 221 l 708 104 z "},"d":{"ha":886,"x_min":56,"x_max":859,"o":"m 550 74 q 468 15 519 43 q 340 -14 416 -14 q 126 83 197 -14 q 56 357 56 180 q 151 660 56 555 q 435 764 245 764 q 539 750 477 764 l 539 926 l 428 954 l 428 1065 l 747 1076 l 747 149 l 859 121 l 859 9 l 562 0 l 550 74 m 539 576 q 431 597 494 597 q 308 538 346 597 q 271 368 271 478 q 303 207 271 261 q 404 153 335 153 q 473 170 443 153 q 522 208 504 187 q 539 232 539 229 l 539 576 z "},"e":{"ha":783,"x_min":49,"x_max":734,"o":"m 265 329 q 316 199 271 245 q 433 153 361 153 q 537 167 485 153 q 623 197 589 182 q 667 218 657 212 l 726 103 q 678 69 726 100 q 559 12 629 37 q 410 -14 489 -14 q 141 84 233 -14 q 49 361 49 182 q 93 573 49 481 q 221 714 138 664 q 419 764 304 764 q 653 676 572 764 q 734 437 734 589 q 731 373 734 404 q 726 334 728 342 l 265 329 m 406 597 q 313 559 349 597 q 268 458 277 521 l 519 458 q 492 559 519 521 q 406 597 464 597 z "},"f":{"ha":642,"x_min":56,"x_max":725,"o":"m 180 799 q 258 1014 180 935 q 479 1093 335 1093 q 601 1082 546 1093 q 690 1057 656 1071 q 725 1042 725 1043 l 721 838 l 596 838 l 575 935 q 547 938 570 936 q 496 940 525 940 q 389 822 389 940 l 389 736 l 570 736 l 566 597 l 389 597 l 389 146 l 528 111 l 528 0 l 69 0 l 69 111 l 180 146 l 180 597 l 56 597 l 56 715 l 180 736 l 180 799 z "},"g":{"ha":847,"x_min":56,"x_max":819,"o":"m 56 -153 q 88 -62 56 -100 q 161 -4 121 -25 q 201 14 201 17 q 178 20 201 11 q 137 50 155 29 q 118 106 118 71 q 191 262 118 149 q 117 340 151 289 q 83 479 83 392 q 176 690 83 617 q 416 764 268 764 q 581 730 509 764 l 819 736 l 819 625 l 705 606 q 718 571 707 600 q 729 496 729 542 q 639 281 729 351 q 396 211 549 211 q 349 215 370 211 q 325 218 329 218 l 319 125 l 525 125 q 731 69 659 125 q 803 -90 803 14 q 705 -282 803 -210 q 414 -354 607 -354 q 147 -308 239 -354 q 56 -153 56 -262 m 410 621 q 320 588 349 621 q 292 489 292 555 q 319 387 292 424 q 403 350 346 350 q 494 383 467 350 q 521 489 521 416 q 494 588 521 555 q 410 621 467 621 m 323 -28 q 302 -41 318 -31 q 272 -72 286 -52 q 257 -118 257 -92 q 298 -185 257 -168 q 431 -201 339 -201 q 567 -179 525 -201 q 608 -107 608 -157 q 576 -45 608 -62 q 469 -28 543 -28 l 323 -28 z "},"h":{"ha":930,"x_min":28,"x_max":896,"o":"m 347 669 q 451 734 390 705 q 581 764 513 764 q 743 698 686 764 q 799 514 799 632 l 799 146 l 896 111 l 896 0 l 518 0 l 518 111 l 590 144 l 590 481 q 498 591 590 592 q 431 575 464 591 q 375 541 397 558 q 347 518 353 524 l 347 146 l 421 111 l 421 0 l 28 0 l 28 111 l 139 146 l 139 926 l 28 954 l 28 1065 l 347 1076 l 347 669 z "},"i":{"ha":507,"x_min":49,"x_max":465,"o":"m 135 979 q 170 1070 135 1036 q 254 1104 205 1104 q 371 979 371 1104 q 335 887 371 921 q 254 852 300 852 q 166 885 197 852 q 135 979 135 918 m 465 111 l 465 0 l 49 0 l 49 111 l 160 146 l 160 597 l 49 632 l 49 743 l 368 750 l 368 146 l 465 111 z "},"j":{"ha":468,"x_min":-43,"x_max":371,"o":"m 135 979 q 169 1069 135 1035 q 254 1104 203 1104 q 371 979 371 1104 q 337 888 371 924 q 254 852 302 852 q 166 885 197 852 q 135 979 135 918 m 62 -340 q 1 -336 35 -340 q -43 -330 -33 -332 l -26 -195 l 46 -195 q 134 -160 107 -195 q 160 -57 160 -126 l 160 597 l 49 632 l 49 743 l 368 750 l 368 18 q 340 -184 368 -106 q 244 -301 311 -262 q 62 -340 178 -340 z "},"k":{"ha":879,"x_min":28,"x_max":865,"o":"m 439 471 l 533 612 l 472 632 l 472 743 l 831 750 l 831 632 l 733 614 l 604 432 l 760 144 l 865 111 l 865 0 l 608 0 l 436 339 l 347 339 l 347 146 l 424 111 l 424 0 l 28 0 l 28 111 l 139 146 l 139 926 l 28 954 l 28 1065 l 347 1076 l 347 471 l 439 471 z "},"l":{"ha":480,"x_min":28,"x_max":473,"o":"m 473 111 l 473 0 l 28 0 l 28 111 l 139 146 l 139 926 l 28 954 l 28 1065 l 349 1076 l 349 146 l 473 111 z "},"m":{"ha":1379,"x_min":49,"x_max":1344,"o":"m 1344 0 l 968 0 l 968 111 l 1042 146 l 1042 476 q 1023 562 1042 534 q 961 590 1004 590 q 887 574 921 590 q 830 539 852 558 q 807 518 807 521 l 807 146 l 879 111 l 879 0 l 526 0 l 526 111 l 599 146 l 599 476 q 581 563 599 536 q 519 590 562 590 q 445 574 479 590 q 387 539 410 558 q 364 518 364 519 l 364 146 l 437 111 l 437 0 l 49 0 l 49 111 l 155 146 l 155 597 l 50 632 l 50 743 l 340 750 l 350 652 q 390 684 350 654 q 485 739 431 714 q 593 764 539 764 q 785 644 733 764 q 890 723 823 683 q 1036 764 957 764 q 1197 699 1143 764 q 1250 514 1250 633 l 1250 146 l 1344 111 l 1344 0 z "},"n":{"ha":951,"x_min":49,"x_max":917,"o":"m 353 654 q 396 686 353 657 q 496 738 440 714 q 608 761 553 761 q 764 695 708 761 q 819 514 819 629 l 819 146 l 917 111 l 917 0 l 534 0 l 534 111 l 611 146 l 611 476 q 585 556 611 525 q 517 587 559 587 q 445 570 478 587 q 390 532 412 553 q 368 509 368 511 l 368 146 l 444 111 l 444 0 l 49 0 l 49 111 l 160 146 l 160 597 l 49 632 l 49 743 l 343 750 l 353 654 z "},"o":{"ha":822,"x_min":49,"x_max":774,"o":"m 424 764 q 683 666 591 764 q 774 389 774 568 q 728 174 774 265 q 599 35 682 83 q 403 -14 515 -14 q 49 368 49 -14 q 95 581 49 492 q 227 716 142 669 q 424 764 311 764 m 416 597 q 301 547 338 597 q 264 375 264 496 q 299 206 264 260 q 410 153 334 153 q 522 206 486 153 q 558 382 558 260 q 524 544 558 490 q 416 597 490 597 z "},"p":{"ha":886,"x_min":28,"x_max":831,"o":"m 323 750 l 336 672 q 369 699 336 675 q 447 744 401 724 q 542 764 492 764 q 757 666 684 764 q 831 396 831 568 q 738 93 831 200 q 465 -14 644 -14 q 347 0 407 -14 l 347 -176 l 479 -208 l 479 -319 l 31 -319 l 31 -208 l 139 -176 l 139 597 l 28 632 l 28 743 l 323 750 m 347 167 q 456 146 395 146 q 578 203 542 146 q 615 371 615 260 q 583 539 615 481 q 476 597 550 597 q 408 581 436 597 q 363 544 379 564 q 347 521 347 524 l 347 167 z "},"q":{"ha":830,"x_min":49,"x_max":844,"o":"m 400 -319 l 400 -208 l 532 -174 l 532 61 q 500 40 532 60 q 425 3 469 20 q 334 -14 380 -14 q 120 84 192 -14 q 49 354 49 182 q 152 655 49 547 q 452 764 254 764 q 583 756 519 764 q 688 741 647 749 q 741 730 729 733 l 741 -174 l 844 -208 l 844 -319 l 400 -319 m 532 593 q 499 600 532 595 q 424 604 467 604 q 302 541 340 604 q 264 368 264 478 q 296 207 264 261 q 401 153 329 153 q 469 166 440 153 q 514 196 497 180 q 532 215 532 212 l 532 593 z "},"r":{"ha":682,"x_min":49,"x_max":675,"o":"m 353 654 q 385 686 353 657 q 461 740 418 715 q 546 764 504 764 q 608 758 579 764 q 654 747 637 753 q 675 739 671 741 l 664 472 l 539 472 l 518 590 q 449 573 482 590 q 392 535 415 555 q 368 513 368 514 l 368 146 l 507 111 l 507 0 l 49 0 l 49 111 l 160 146 l 160 597 l 49 632 l 49 743 l 340 750 l 353 654 z "},"s":{"ha":676,"x_min":49,"x_max":628,"o":"m 189 153 q 226 145 189 151 q 306 139 262 139 q 419 207 420 139 q 387 256 419 237 q 286 298 355 275 q 165 347 212 323 q 83 415 118 371 q 49 526 49 458 q 131 706 49 648 q 335 764 212 764 q 448 755 391 764 q 544 735 505 746 q 593 722 583 725 l 587 514 l 469 514 l 449 597 q 418 605 449 599 q 353 611 387 611 q 282 593 307 611 q 257 541 257 575 q 289 492 257 510 q 390 453 321 473 q 512 408 464 429 q 594 344 559 386 q 628 236 628 302 q 541 52 628 118 q 309 -14 454 -14 q 193 -7 250 -14 q 99 7 136 0 q 53 17 62 14 l 53 243 l 178 243 l 189 153 z "},"t":{"ha":605,"x_min":21,"x_max":591,"o":"m 355 -14 q 196 56 243 -14 q 150 257 150 126 l 150 576 l 21 576 l 21 711 l 150 729 l 150 921 l 358 958 l 358 729 l 553 729 l 553 576 l 358 576 l 358 271 q 373 174 358 201 q 432 146 389 146 q 490 157 457 146 q 542 178 524 168 l 591 72 q 355 -14 475 -14 z "},"u":{"ha":929,"x_min":21,"x_max":901,"o":"m 21 743 l 340 750 l 340 271 q 360 186 340 212 q 425 160 379 160 q 500 177 465 160 q 558 213 534 193 q 582 235 582 232 l 582 597 l 471 632 l 471 743 l 790 750 l 790 146 l 901 118 l 901 9 l 608 0 l 595 97 q 556 65 595 94 q 464 11 518 36 q 351 -14 410 -14 q 190 52 247 -14 q 132 235 132 118 l 132 597 l 21 632 l 21 743 z "},"v":{"ha":831,"x_min":7,"x_max":825,"o":"m 461 743 l 825 750 l 825 632 l 746 614 l 522 0 l 293 0 l 74 610 l 7 632 l 7 743 l 371 750 l 371 632 l 293 618 l 419 208 l 542 614 l 461 632 l 461 743 z "},"w":{"ha":1217,"x_min":7,"x_max":1210,"o":"m 854 632 l 854 743 l 1210 750 l 1210 632 l 1136 615 l 951 0 l 739 0 l 629 354 l 604 463 l 570 311 l 468 0 l 257 0 l 68 612 l 7 632 l 7 743 l 371 750 l 371 632 l 283 615 l 375 225 l 522 726 l 705 757 l 857 225 l 939 611 l 854 632 z "},"x":{"ha":808,"x_min":7,"x_max":802,"o":"m 701 614 l 542 375 l 699 139 l 802 111 l 802 0 l 424 0 l 424 111 l 467 126 l 393 249 l 243 0 l 7 0 l 7 111 l 111 139 l 264 368 l 96 614 l 21 632 l 21 743 l 380 750 l 380 632 l 339 624 l 411 501 l 555 743 l 787 750 l 787 632 l 701 614 z "},"y":{"ha":834,"x_min":7,"x_max":835,"o":"m 7 743 l 378 750 l 378 632 l 300 618 l 424 229 l 542 614 l 461 632 l 461 743 l 835 750 l 835 632 l 749 614 l 545 45 q 459 -148 505 -68 q 341 -281 414 -228 q 167 -334 269 -334 q 92 -329 138 -334 q 32 -322 46 -323 l 52 -174 l 142 -174 q 255 -123 214 -174 q 328 -1 297 -72 l 81 610 l 7 632 l 7 743 z "},"z":{"ha":701,"x_min":56,"x_max":660,"o":"m 309 153 l 511 153 l 534 271 l 660 271 l 660 0 l 56 0 l 56 127 l 408 597 l 218 597 l 197 496 l 72 496 l 72 750 l 656 750 l 656 621 l 309 153 z "},"{":{"ha":561,"x_min":41,"x_max":519,"o":"m 351 646 q 323 493 351 550 q 224 410 294 436 q 351 212 351 359 l 351 -28 q 366 -115 351 -85 q 416 -157 380 -144 q 519 -170 452 -170 l 519 -313 l 427 -313 q 278 -283 334 -313 q 198 -189 222 -253 q 174 -18 174 -125 l 174 196 q 144 303 174 265 q 41 340 115 340 l 41 479 q 144 517 115 479 q 174 624 174 554 l 174 819 q 236 1015 174 954 q 427 1076 298 1076 l 519 1076 l 519 933 q 416 921 452 933 q 366 878 380 908 q 351 791 351 848 l 351 646 z "},"|":{"ha":386,"x_min":111,"x_max":275,"o":"m 275 1048 l 275 -319 l 111 -319 l 111 1048 l 275 1048 z "},"}":{"ha":568,"x_min":56,"x_max":533,"o":"m 222 791 q 208 878 222 848 q 158 921 193 908 q 56 933 123 933 l 56 1076 l 149 1076 q 339 1015 277 1076 q 401 819 401 953 l 401 624 q 431 517 401 555 q 533 479 460 479 l 533 340 q 430 303 459 340 q 401 196 401 265 l 401 -18 q 343 -244 401 -176 q 147 -313 285 -313 l 56 -313 l 56 -170 q 158 -157 123 -170 q 208 -115 193 -144 q 222 -28 222 -85 l 222 212 q 256 335 222 286 q 351 410 289 385 q 222 606 222 460 l 222 791 z "},"~":{"ha":869,"x_min":60,"x_max":796,"o":"m 60 361 q 88 410 60 367 q 166 489 117 453 q 283 525 216 525 q 359 512 323 525 q 439 475 395 498 q 510 442 481 452 q 571 432 539 432 q 634 449 604 432 q 684 485 664 465 q 704 509 704 505 l 796 439 q 766 390 796 433 q 687 309 736 346 q 576 272 637 272 q 500 284 536 272 q 415 321 464 297 q 336 355 365 345 q 275 366 307 366 q 213 349 242 366 q 165 312 184 332 q 146 290 146 292 l 60 361 z "}," ":{"ha":326,"x_min":0,"x_max":0,"o":""},"¡":{"ha":468,"x_min":114,"x_max":350,"o":"m 350 647 q 315 556 350 590 q 231 522 279 522 q 144 555 174 522 q 114 647 114 587 q 149 740 114 705 q 235 774 184 774 q 321 741 292 774 q 350 647 350 708 m 346 -307 l 127 -307 l 153 393 l 319 400 l 346 -307 z "},"¢":{"ha":708,"x_min":53,"x_max":673,"o":"m 310 153 q 119 264 186 175 q 53 490 53 353 q 119 725 53 632 q 310 844 184 818 l 310 979 l 460 979 l 460 852 q 545 838 505 848 q 612 818 586 828 q 646 806 639 808 l 639 595 l 521 595 l 501 690 q 469 696 494 692 q 412 701 443 701 q 257 517 257 701 q 422 298 257 298 q 511 313 473 298 q 574 343 549 328 q 606 363 599 358 l 673 254 q 585 193 640 225 q 460 150 529 161 l 460 0 l 310 0 l 310 153 z "},"£":{"ha":868,"x_min":83,"x_max":791,"o":"m 153 146 q 206 192 193 163 q 218 288 218 221 q 214 395 218 339 l 211 444 l 83 444 l 83 574 l 201 593 q 197 708 197 651 q 270 920 197 844 q 493 996 342 996 q 637 985 572 996 q 745 961 703 974 q 787 947 787 949 l 787 722 l 663 722 l 635 825 q 592 830 625 827 q 517 833 558 833 q 431 801 458 833 q 403 711 403 768 q 406 597 403 653 l 606 597 l 606 444 l 416 444 q 424 309 423 363 q 414 235 424 267 q 392 185 404 203 q 372 167 379 167 l 631 167 l 663 306 l 791 306 l 791 0 l 83 0 l 83 118 l 153 146 z "},"¤":{"ha":866,"x_min":71,"x_max":796,"o":"m 146 411 q 182 555 146 492 l 72 667 l 175 778 l 286 667 q 440 708 360 708 q 585 673 518 708 l 692 779 l 794 668 l 692 566 q 726 419 726 500 q 688 265 726 334 l 796 158 l 692 49 l 582 157 q 433 118 515 118 q 279 155 342 118 l 175 52 l 71 163 l 176 267 q 146 411 146 332 m 315 414 q 436 262 315 262 q 558 414 558 262 q 436 559 558 559 q 345 522 375 559 q 315 414 315 485 z "},"¥":{"ha":933,"x_min":14,"x_max":920,"o":"m 106 815 l 14 854 l 14 972 l 406 979 l 406 854 l 335 825 l 475 534 l 623 823 l 545 854 l 545 972 l 920 979 l 920 854 l 822 817 l 679 559 l 811 559 l 811 435 l 117 435 l 117 559 l 248 559 l 106 815 m 357 227 l 117 227 l 117 351 l 811 351 l 811 227 l 572 227 l 572 153 l 676 118 l 676 0 l 253 0 l 253 118 l 357 153 l 357 227 z "},"¦":{"ha":412,"x_min":121,"x_max":285,"o":"m 285 1063 l 285 507 l 121 507 l 121 1063 l 285 1063 m 285 201 l 285 -368 l 121 -368 l 121 201 l 285 201 z "},"§":{"ha":741,"x_min":86,"x_max":672,"o":"m 258 -50 q 283 -55 264 -52 q 329 -58 302 -58 q 408 -33 379 -58 q 436 35 436 -8 q 401 119 436 83 q 290 204 366 154 q 185 282 227 247 q 115 367 144 317 q 86 485 86 418 q 113 608 86 557 q 183 690 140 660 q 142 839 142 757 q 178 971 142 913 q 277 1061 214 1029 q 421 1093 340 1093 q 523 1083 475 1093 q 600 1063 571 1074 q 636 1050 629 1053 l 631 821 l 521 821 l 497 940 q 472 945 492 941 q 432 949 452 949 q 352 922 380 949 q 323 854 323 896 q 360 767 323 804 q 471 679 396 730 q 575 600 534 634 q 644 515 615 566 q 672 400 672 465 q 644 279 672 331 q 575 197 616 228 q 616 56 616 132 q 581 -81 616 -22 q 482 -173 546 -140 q 338 -205 418 -205 q 238 -196 286 -205 q 161 -178 191 -187 q 122 -165 131 -168 l 125 72 l 239 72 l 258 -50 m 261 509 q 293 434 261 467 q 393 357 325 401 q 473 300 456 314 q 498 378 498 332 q 467 451 498 419 q 366 529 435 484 q 285 585 314 561 q 261 509 261 553 z "},"¨":{"ha":755,"x_min":125,"x_max":631,"o":"m 125 989 q 155 1067 125 1038 q 228 1097 184 1097 q 302 1069 277 1097 q 328 989 328 1040 q 298 909 328 939 q 225 880 268 880 q 151 908 176 880 q 125 989 125 936 m 428 989 q 458 1067 428 1038 q 530 1097 489 1097 q 605 1069 579 1097 q 631 989 631 1040 q 601 909 631 939 q 528 880 571 880 q 453 908 479 880 q 428 989 428 936 z "},"©":{"ha":1143,"x_min":52,"x_max":1090,"o":"m 52 479 q 119 745 52 627 q 305 931 186 864 q 571 999 424 999 q 838 935 720 999 q 1023 755 956 871 q 1090 493 1090 640 q 1020 227 1090 346 q 826 41 949 109 q 557 -26 704 -26 q 294 38 410 -26 q 115 216 179 102 q 52 479 52 330 m 193 486 q 239 287 193 374 q 369 152 285 200 q 564 104 453 104 q 762 153 675 104 q 899 288 850 201 q 949 486 949 375 q 899 684 949 597 q 762 820 850 771 q 564 868 675 868 q 369 820 452 868 q 239 685 285 771 q 193 486 193 599 m 778 300 q 567 211 671 211 q 380 280 449 211 q 311 475 311 349 q 383 689 311 610 q 582 768 454 768 q 660 759 621 768 q 727 740 700 750 q 761 726 754 729 l 757 571 l 661 571 l 646 647 q 620 652 640 648 q 579 656 599 656 q 464 493 464 656 q 494 367 464 408 q 585 326 524 326 q 664 343 623 326 q 726 379 704 361 l 778 300 z "},"ª":{"ha":677,"x_min":62,"x_max":595,"o":"m 382 517 q 358 493 382 514 q 297 455 334 472 q 220 437 261 437 q 103 479 144 437 q 62 599 62 521 q 123 723 62 684 q 300 762 183 762 l 364 762 l 364 812 q 345 860 364 843 q 294 876 326 876 q 240 871 265 876 q 208 864 215 867 l 196 804 l 97 804 l 89 956 q 135 968 98 958 q 223 987 172 978 q 315 996 273 996 q 475 949 429 996 q 521 798 521 903 l 521 564 l 595 547 l 595 456 l 401 447 l 382 517 m 212 610 q 228 573 212 587 q 268 559 243 559 q 312 570 290 559 q 347 592 334 581 q 364 607 359 603 l 364 672 l 310 672 q 236 657 260 672 q 212 610 212 643 m 595 187 l 77 187 l 77 326 l 595 326 l 595 187 z "},"«":{"ha":831,"x_min":77,"x_max":755,"o":"m 77 314 l 77 421 l 288 667 l 403 590 l 252 368 l 403 146 l 288 68 l 77 314 m 424 314 l 424 421 l 640 667 l 755 590 l 599 368 l 755 146 l 640 68 l 424 314 z "},"¬":{"ha":891,"x_min":83,"x_max":815,"o":"m 815 111 l 639 111 l 639 361 l 83 361 l 83 521 l 815 521 l 815 111 z "},"­":{"ha":548,"x_min":77,"x_max":472,"o":"m 472 292 l 77 292 l 77 465 l 472 465 l 472 292 z "},"®":{"ha":1004,"x_min":62,"x_max":942,"o":"m 62 624 q 119 849 62 749 q 277 1007 176 950 q 503 1064 378 1064 q 726 1010 626 1064 q 884 860 827 957 q 942 639 942 762 q 881 415 942 515 q 716 256 821 314 q 488 199 612 199 q 268 252 364 199 q 117 403 171 306 q 62 624 62 500 m 199 632 q 278 406 199 492 q 496 321 358 321 q 658 360 587 321 q 768 470 729 399 q 807 632 807 541 q 768 794 807 724 q 658 903 729 864 q 496 942 587 942 q 278 857 358 942 q 199 632 199 772 m 309 482 l 355 498 l 355 774 l 309 793 l 309 851 l 507 854 q 631 823 585 856 q 677 728 677 790 q 604 611 677 647 q 612 603 606 610 q 628 581 619 596 l 671 498 l 717 482 l 717 419 l 591 419 l 534 546 q 515 579 524 571 q 494 587 507 587 l 463 587 l 463 498 l 509 482 l 509 419 l 309 419 l 309 482 m 498 661 q 549 676 528 661 q 570 717 570 692 q 554 758 570 743 q 509 772 538 772 l 463 772 l 463 661 l 498 661 z "},"¯":{"ha":430,"x_min":7,"x_max":424,"o":"m 424 892 l 7 892 l 7 1038 l 424 1038 l 424 892 z "},"°":{"ha":591,"x_min":62,"x_max":529,"o":"m 62 806 q 128 967 62 905 q 296 1029 193 1029 q 464 970 399 1029 q 529 812 529 911 q 464 644 529 707 q 296 582 399 582 q 127 642 191 582 q 62 806 62 701 m 201 811 q 226 733 201 761 q 296 705 250 705 q 366 733 342 705 q 390 811 390 761 q 365 881 390 856 q 296 905 339 905 q 227 881 253 905 q 201 811 201 856 z "},"±":{"ha":863,"x_min":72,"x_max":791,"o":"m 340 766 l 525 766 l 525 562 l 791 562 l 791 400 l 525 400 l 525 191 l 340 191 l 340 400 l 72 400 l 72 562 l 340 562 l 340 766 m 791 -50 l 72 -50 l 72 109 l 791 109 l 791 -50 z "},"²":{"ha":561,"x_min":46,"x_max":507,"o":"m 77 551 q 217 661 172 623 q 288 734 262 699 q 313 804 313 770 q 241 859 313 859 q 203 854 220 859 q 182 848 186 850 l 172 775 l 54 775 l 50 958 q 90 969 58 961 q 166 985 121 978 q 256 993 211 993 q 435 952 370 993 q 501 827 501 911 q 479 729 501 772 q 412 643 457 685 q 283 534 367 600 l 507 534 l 507 389 l 46 389 l 46 528 l 77 551 z "},"³":{"ha":548,"x_min":24,"x_max":503,"o":"m 489 839 q 458 749 489 785 q 376 700 428 714 q 466 653 429 690 q 503 566 503 616 q 428 425 503 471 q 239 378 354 378 q 142 390 190 378 q 63 414 94 401 q 24 431 32 427 l 61 547 q 93 535 68 545 q 155 518 118 526 q 227 510 192 510 q 295 530 269 510 q 321 575 321 550 q 296 622 321 607 q 220 637 272 637 l 144 637 l 144 742 l 221 742 q 315 808 315 742 q 239 864 315 864 q 192 861 214 864 q 165 856 171 857 l 158 798 l 45 798 l 40 961 q 83 971 50 964 q 164 986 117 979 q 256 993 212 993 q 429 954 368 993 q 489 839 489 914 z "},"´":{"ha":404,"x_min":0,"x_max":404,"o":"m 310 1182 l 0 935 l 68 833 l 404 1038 l 310 1182 z "},"µ":{"ha":915,"x_min":24,"x_max":886,"o":"m 24 628 l 24 739 l 330 750 l 330 265 q 411 163 330 162 q 488 179 451 163 q 551 217 525 196 q 576 239 576 237 l 576 600 l 473 628 l 473 739 l 781 750 l 781 146 l 886 118 l 886 9 l 604 0 l 590 98 q 553 66 590 96 q 470 11 517 36 q 382 -14 424 -14 q 330 -5 354 -14 l 330 -326 l 126 -326 l 126 600 l 24 628 z "},"¶":{"ha":1001,"x_min":69,"x_max":925,"o":"m 328 379 q 197 428 256 386 q 103 535 138 469 q 69 682 69 602 q 107 834 69 767 q 215 940 144 901 q 382 979 285 979 l 639 979 l 925 968 l 925 857 l 814 829 l 814 -236 l 639 -236 l 639 829 l 493 829 l 493 -236 l 214 -236 l 214 -121 l 328 -90 l 328 379 z "},"·":{"ha":415,"x_min":85,"x_max":329,"o":"m 85 425 q 119 521 85 486 q 210 555 154 555 q 329 425 329 555 q 295 330 329 364 q 205 296 261 296 q 85 425 85 296 z "},"¸":{"ha":598,"x_min":132,"x_max":476,"o":"m 283 -232 q 334 -217 315 -232 q 353 -179 353 -203 q 322 -135 353 -150 q 239 -119 292 -119 l 239 0 l 357 0 l 357 -60 q 444 -103 412 -71 q 476 -183 476 -135 q 428 -284 476 -245 q 301 -323 379 -323 q 222 -314 260 -323 q 161 -294 184 -304 q 132 -279 138 -283 l 175 -203 q 195 -213 179 -205 q 235 -226 211 -220 q 283 -232 260 -232 z "},"¹":{"ha":545,"x_min":21,"x_max":518,"o":"m 82 513 l 215 513 l 215 803 l 89 726 l 21 842 l 240 979 l 392 979 l 392 513 l 518 513 l 518 389 l 82 389 l 82 513 z "},"º":{"ha":700,"x_min":62,"x_max":610,"o":"m 346 996 q 539 926 469 996 q 610 728 610 856 q 574 577 610 643 q 475 474 539 511 q 329 437 411 437 q 133 506 204 437 q 62 708 62 575 q 99 861 62 795 q 200 961 136 926 q 346 996 264 996 m 339 868 q 236 714 236 868 q 261 604 236 642 q 336 566 286 566 q 436 722 436 566 q 339 868 436 868 m 599 187 l 74 187 l 74 326 l 599 326 l 599 187 z "},"»":{"ha":831,"x_min":77,"x_max":755,"o":"m 192 667 l 408 421 l 408 314 l 192 68 l 77 146 l 233 368 l 77 590 l 192 667 m 545 667 l 755 421 l 755 314 l 545 68 l 429 146 l 581 368 l 429 590 l 545 667 z "},"¼":{"ha":1489,"x_min":62,"x_max":1413,"o":"m 123 513 l 257 513 l 257 803 l 131 726 l 62 842 l 282 979 l 433 979 l 433 513 l 545 513 l 545 389 l 123 389 l 123 513 m 555 0 l 354 0 l 921 979 l 1122 979 l 555 0 m 1413 236 l 1413 107 l 1332 107 l 1332 0 l 1156 0 l 1156 107 l 878 107 l 859 224 l 1132 597 l 1332 574 l 1332 236 l 1413 236 m 1156 412 l 1023 236 l 1156 236 l 1156 412 z "},"½":{"ha":1493,"x_min":62,"x_max":1410,"o":"m 123 513 l 257 513 l 257 803 l 131 726 l 62 842 l 282 979 l 433 979 l 433 513 l 545 513 l 545 389 l 123 389 l 123 513 m 557 0 l 355 0 l 922 979 l 1124 979 l 557 0 m 991 172 q 1126 280 1084 244 q 1192 349 1168 315 q 1215 416 1215 382 q 1143 469 1215 469 q 1105 465 1122 469 q 1083 460 1088 461 l 1075 386 l 957 386 l 953 570 q 991 581 961 572 q 1067 596 1022 589 q 1157 604 1112 604 q 1338 563 1272 604 q 1404 437 1404 522 q 1382 339 1404 383 q 1315 253 1360 296 q 1186 146 1270 211 l 1410 146 l 1410 0 l 949 0 l 949 139 l 991 172 z "},"¾":{"ha":1463,"x_min":56,"x_max":1388,"o":"m 519 828 q 489 737 519 772 q 407 688 458 701 q 496 642 458 680 q 534 553 534 604 q 460 413 534 460 q 271 367 386 367 q 174 378 222 367 q 95 401 126 389 q 56 418 64 414 l 93 534 q 124 524 100 532 q 185 507 149 515 q 257 498 222 498 q 323 516 293 498 q 353 564 353 533 q 250 627 353 626 l 176 627 l 176 729 l 253 729 q 346 799 346 729 q 327 838 346 824 q 271 852 309 852 q 223 848 245 852 q 196 843 201 844 l 189 786 l 77 786 l 71 949 q 114 959 80 951 q 196 974 149 966 q 288 981 244 981 q 460 941 400 981 q 519 828 519 901 m 532 0 l 330 0 l 897 979 l 1099 979 l 532 0 m 1307 574 l 1307 236 l 1388 236 l 1388 107 l 1307 107 l 1307 0 l 1131 0 l 1131 107 l 854 107 l 835 224 l 1107 597 l 1307 574 m 1131 419 l 996 236 l 1131 236 l 1131 419 z "},"¿":{"ha":640,"x_min":69,"x_max":554,"o":"m 514 647 q 478 556 514 590 q 395 522 443 522 q 308 555 338 522 q 278 647 278 587 q 313 740 278 705 q 397 774 347 774 q 484 741 454 774 q 514 647 514 708 m 500 412 q 507 352 501 397 q 513 277 513 306 q 482 192 513 231 q 393 104 452 154 q 308 19 336 54 q 279 -58 279 -17 q 404 -150 279 -150 q 478 -144 440 -150 q 528 -135 517 -138 l 554 -279 q 513 -290 546 -282 q 433 -305 479 -297 q 347 -313 387 -313 q 149 -262 228 -313 q 69 -97 69 -211 q 90 6 69 -41 q 140 87 111 53 q 218 168 170 121 q 295 253 271 220 q 319 323 319 286 q 318 373 319 350 q 317 404 317 396 l 500 412 z "},"À":{"ha":1038,"x_min":7,"x_max":1032,"o":"m 1032 0 l 590 0 l 590 118 l 694 155 l 661 257 l 353 257 l 318 157 l 427 118 l 427 0 l 7 0 l 7 118 l 109 157 l 414 975 l 636 979 l 935 157 l 1032 118 l 1032 0 m 511 734 l 401 406 l 615 406 l 511 734 m 720 1132 l 656 1021 l 340 1177 l 421 1328 l 720 1132 z "},"Á":{"ha":1038,"x_min":7,"x_max":1032,"o":"m 1032 0 l 590 0 l 590 118 l 694 155 l 661 257 l 353 257 l 318 157 l 427 118 l 427 0 l 7 0 l 7 118 l 109 157 l 414 975 l 636 979 l 935 157 l 1032 118 l 1032 0 m 511 734 l 401 406 l 615 406 l 511 734 m 425 1132 l 724 1328 l 804 1177 l 489 1021 l 425 1132 z "},"Â":{"ha":1053,"x_min":7,"x_max":1032,"o":"m 463 1304 l 586 1315 l 811 1122 l 745 1031 l 534 1166 l 317 1031 l 250 1122 l 463 1304 m 1032 0 l 590 0 l 590 118 l 694 155 l 661 257 l 353 257 l 318 157 l 427 118 l 427 0 l 7 0 l 7 118 l 109 157 l 414 975 l 636 979 l 935 157 l 1032 118 l 1032 0 m 511 734 l 401 406 l 615 406 l 511 734 z "},"Ã":{"ha":1053,"x_min":7,"x_max":1032,"o":"m 250 1133 q 273 1178 250 1139 q 334 1252 296 1218 q 424 1286 372 1286 q 487 1278 457 1286 q 554 1253 517 1270 q 615 1230 591 1237 q 665 1222 639 1222 q 710 1235 689 1222 q 745 1262 732 1249 q 761 1280 758 1276 l 838 1222 q 811 1180 838 1218 q 743 1109 785 1141 q 650 1078 701 1078 q 590 1085 616 1078 q 524 1107 564 1092 q 467 1125 490 1119 q 416 1132 443 1132 q 368 1120 390 1132 q 333 1096 346 1108 q 317 1079 319 1083 l 250 1133 m 1032 0 l 590 0 l 590 118 l 694 155 l 661 257 l 353 257 l 318 157 l 427 118 l 427 0 l 7 0 l 7 118 l 109 157 l 414 975 l 636 979 l 935 157 l 1032 118 l 1032 0 m 511 734 l 401 406 l 615 406 l 511 734 z "},"Ä":{"ha":1038,"x_min":7,"x_max":1032,"o":"m 1032 0 l 590 0 l 590 118 l 694 155 l 661 257 l 353 257 l 318 157 l 427 118 l 427 0 l 7 0 l 7 118 l 109 157 l 414 975 l 636 979 l 935 157 l 1032 118 l 1032 0 m 511 734 l 401 406 l 615 406 l 511 734 m 314 1176 q 344 1255 314 1225 q 417 1284 374 1284 q 491 1256 466 1284 q 517 1176 517 1227 q 487 1097 517 1126 q 414 1067 457 1067 q 340 1095 366 1067 q 314 1176 314 1123 m 617 1176 q 648 1255 617 1225 q 720 1284 678 1284 q 794 1256 768 1284 q 820 1176 820 1227 q 790 1097 820 1126 q 717 1067 760 1067 q 643 1095 668 1067 q 617 1176 617 1123 z "},"Å":{"ha":1038,"x_min":7,"x_max":1032,"o":"m 1032 0 l 590 0 l 590 118 l 694 155 l 661 257 l 353 257 l 318 157 l 427 118 l 427 0 l 7 0 l 7 118 l 109 157 l 414 975 l 415 975 q 365 1033 383 998 q 347 1114 347 1068 q 374 1212 347 1169 q 443 1276 400 1254 q 533 1299 486 1299 q 623 1278 581 1299 q 692 1217 665 1257 q 718 1122 718 1178 q 696 1034 718 1074 q 639 971 675 994 l 935 157 l 1032 118 l 1032 0 m 533 1198 q 484 1178 503 1198 q 465 1118 465 1157 q 483 1059 465 1080 q 533 1039 500 1039 q 581 1060 562 1039 q 600 1120 600 1080 q 583 1178 600 1158 q 533 1198 566 1198 m 511 734 l 401 406 l 615 406 l 511 734 z "},"Æ":{"ha":1348,"x_min":7,"x_max":1279,"o":"m 1154 431 l 873 431 l 873 167 l 1120 167 l 1152 281 l 1279 281 l 1279 0 l 555 0 l 555 118 l 659 160 l 659 267 l 390 267 l 336 154 l 421 118 l 421 0 l 7 0 l 7 118 l 123 160 l 441 812 l 323 854 l 323 972 l 589 979 l 1263 979 l 1263 708 l 1133 708 l 1099 812 l 873 812 l 873 583 l 1154 583 l 1154 431 m 456 416 l 659 416 l 659 812 l 639 812 l 456 416 z "},"Ç":{"ha":926,"x_min":77,"x_max":885,"o":"m 885 135 q 843 99 885 132 q 737 34 802 66 q 595 -11 672 1 l 595 -61 q 682 -104 650 -72 q 713 -186 713 -136 q 663 -286 713 -247 q 538 -325 612 -325 q 457 -315 496 -325 q 394 -293 418 -304 q 364 -278 370 -282 l 408 -200 q 430 -211 412 -203 q 472 -225 447 -218 q 522 -232 497 -232 q 569 -218 551 -232 q 586 -180 586 -204 q 555 -136 586 -151 q 472 -121 525 -121 l 472 -14 q 179 124 281 -1 q 77 475 77 249 q 134 753 77 636 q 297 933 192 871 q 545 996 403 996 q 691 981 620 996 q 815 949 762 966 q 868 930 868 932 l 861 667 l 725 667 l 693 800 q 667 807 688 802 q 612 817 647 812 q 538 822 578 822 q 368 738 427 822 q 309 482 309 653 q 370 240 309 318 q 545 163 431 163 q 665 184 606 163 q 766 231 724 205 q 808 260 808 257 l 885 135 z "},"È":{"ha":863,"x_min":62,"x_max":787,"o":"m 663 431 l 382 431 l 382 167 l 631 167 l 663 281 l 787 281 l 787 0 l 62 0 l 62 118 l 167 160 l 167 812 l 62 854 l 62 972 l 382 979 l 771 979 l 771 711 l 646 711 l 611 812 l 382 812 l 382 583 l 663 583 l 663 431 m 600 1132 l 536 1021 l 221 1177 l 302 1328 l 600 1132 z "},"É":{"ha":863,"x_min":62,"x_max":787,"o":"m 663 431 l 382 431 l 382 167 l 631 167 l 663 281 l 787 281 l 787 0 l 62 0 l 62 118 l 167 160 l 167 812 l 62 854 l 62 972 l 382 979 l 771 979 l 771 711 l 646 711 l 611 812 l 382 812 l 382 583 l 663 583 l 663 431 m 306 1132 l 604 1328 l 685 1177 l 370 1021 l 306 1132 z "},"Ê":{"ha":863,"x_min":62,"x_max":787,"o":"m 663 431 l 382 431 l 382 167 l 631 167 l 663 281 l 787 281 l 787 0 l 62 0 l 62 118 l 167 160 l 167 812 l 62 854 l 62 972 l 382 979 l 771 979 l 771 711 l 646 711 l 611 812 l 382 812 l 382 583 l 663 583 l 663 431 m 389 1304 l 513 1315 l 738 1122 l 671 1030 l 461 1166 l 243 1030 l 176 1122 l 389 1304 z "},"Ë":{"ha":863,"x_min":62,"x_max":787,"o":"m 663 431 l 382 431 l 382 167 l 631 167 l 663 281 l 787 281 l 787 0 l 62 0 l 62 118 l 167 160 l 167 812 l 62 854 l 62 972 l 382 979 l 771 979 l 771 711 l 646 711 l 611 812 l 382 812 l 382 583 l 663 583 l 663 431 m 194 1178 q 224 1257 194 1227 q 297 1286 254 1286 q 371 1258 346 1286 q 397 1178 397 1230 q 367 1099 397 1128 q 294 1069 337 1069 q 220 1097 245 1069 q 194 1178 194 1125 m 497 1178 q 528 1257 497 1227 q 600 1286 558 1286 q 674 1258 648 1286 q 700 1178 700 1230 q 670 1099 700 1128 q 597 1069 640 1069 q 523 1097 548 1069 q 497 1178 497 1125 z "},"Ì":{"ha":534,"x_min":26,"x_max":479,"o":"m 56 118 l 160 160 l 160 812 l 56 854 l 56 972 l 479 979 l 479 854 l 375 812 l 375 160 l 479 118 l 479 0 l 56 0 l 56 118 m 406 1132 l 342 1021 l 26 1177 l 107 1328 l 406 1132 z "},"Í":{"ha":534,"x_min":56,"x_max":500,"o":"m 56 118 l 160 160 l 160 812 l 56 854 l 56 972 l 479 979 l 479 854 l 375 812 l 375 160 l 479 118 l 479 0 l 56 0 l 56 118 m 121 1132 l 419 1328 l 500 1177 l 184 1021 l 121 1132 z "},"Î":{"ha":534,"x_min":-21,"x_max":541,"o":"m 56 118 l 160 160 l 160 812 l 56 854 l 56 972 l 479 979 l 479 854 l 375 812 l 375 160 l 479 118 l 479 0 l 56 0 l 56 118 m 192 1304 l 315 1315 l 541 1122 l 473 1030 l 264 1166 l 46 1030 l -21 1122 l 192 1304 z "},"Ï":{"ha":561,"x_min":36,"x_max":528,"o":"m 36 1177 q 66 1255 36 1225 q 139 1284 96 1284 q 213 1256 188 1284 q 239 1177 239 1227 q 209 1097 239 1126 q 136 1068 179 1068 q 62 1096 87 1068 q 36 1177 36 1124 m 325 1177 q 355 1255 325 1225 q 428 1284 386 1284 q 502 1256 477 1284 q 528 1177 528 1227 q 498 1097 528 1126 q 425 1068 468 1068 q 351 1096 376 1068 q 325 1177 325 1124 m 75 118 l 179 160 l 179 812 l 75 854 l 75 972 l 498 979 l 498 854 l 395 812 l 395 160 l 498 118 l 498 0 l 75 0 l 75 118 z "},"Ð":{"ha":1029,"x_min":56,"x_max":953,"o":"m 160 812 l 56 854 l 56 972 l 375 979 l 513 979 q 838 857 722 979 q 953 503 953 734 q 897 235 953 349 q 736 60 840 121 q 492 0 632 0 l 56 0 l 56 118 l 160 160 l 160 433 l 65 433 l 65 586 l 160 586 l 160 812 m 542 433 l 374 433 l 374 167 l 494 167 q 663 242 604 167 q 721 496 721 318 q 666 738 721 664 q 505 812 611 812 l 374 812 l 374 586 l 542 586 l 542 433 z "},"Ñ":{"ha":1090,"x_min":49,"x_max":1051,"o":"m 253 1133 q 276 1178 253 1139 q 337 1252 298 1218 q 427 1286 375 1286 q 490 1278 460 1286 q 557 1253 519 1270 q 618 1230 594 1237 q 668 1222 642 1222 q 713 1235 692 1222 q 748 1262 734 1249 q 764 1280 761 1276 l 840 1222 q 814 1180 840 1218 q 746 1109 787 1141 q 653 1078 704 1078 q 593 1085 620 1078 q 526 1107 567 1092 q 469 1125 493 1119 q 419 1132 446 1132 q 371 1120 393 1132 q 335 1096 349 1108 q 319 1079 322 1083 l 253 1133 m 49 118 l 153 160 l 153 812 l 49 854 l 49 972 l 382 979 l 757 338 l 757 812 l 656 854 l 656 972 l 1051 979 l 1051 854 l 947 812 l 947 0 l 715 0 l 343 629 l 343 160 l 452 118 l 452 0 l 49 0 l 49 118 z "},"Ò":{"ha":1048,"x_min":77,"x_max":972,"o":"m 534 996 q 858 866 743 996 q 972 503 972 736 q 914 231 972 349 q 750 47 856 113 q 507 -18 644 -18 q 188 110 299 -18 q 77 482 77 237 q 132 756 77 640 q 291 934 187 872 q 534 996 395 996 m 528 822 q 366 745 419 822 q 313 489 313 668 q 361 236 313 317 q 514 155 410 155 q 679 235 623 155 q 736 496 736 315 q 685 744 736 665 q 528 822 633 822 m 669 1132 l 606 1021 l 290 1177 l 371 1328 l 669 1132 z "},"Ó":{"ha":1048,"x_min":77,"x_max":972,"o":"m 534 996 q 858 866 743 996 q 972 503 972 736 q 914 231 972 349 q 750 47 856 113 q 507 -18 644 -18 q 188 110 299 -18 q 77 482 77 237 q 132 756 77 640 q 291 934 187 872 q 534 996 395 996 m 528 822 q 366 745 419 822 q 313 489 313 668 q 361 236 313 317 q 514 155 410 155 q 679 235 623 155 q 736 496 736 315 q 685 744 736 665 q 528 822 633 822 m 368 1132 l 667 1328 l 747 1177 l 432 1021 l 368 1132 z "},"Ô":{"ha":1048,"x_min":77,"x_max":972,"o":"m 534 996 q 858 866 743 996 q 972 503 972 736 q 914 231 972 349 q 750 47 856 113 q 507 -18 644 -18 q 188 110 299 -18 q 77 482 77 237 q 132 756 77 640 q 291 934 187 872 q 534 996 395 996 m 528 822 q 366 745 419 822 q 313 489 313 668 q 361 236 313 317 q 514 155 410 155 q 679 235 623 155 q 736 496 736 315 q 685 744 736 665 q 528 822 633 822 m 461 1304 l 585 1315 l 810 1122 l 743 1030 l 533 1166 l 315 1030 l 248 1122 l 461 1304 z "},"Õ":{"ha":1048,"x_min":77,"x_max":972,"o":"m 228 1133 q 251 1178 228 1139 q 312 1252 273 1218 q 401 1286 350 1286 q 465 1278 435 1286 q 532 1253 494 1270 q 593 1230 569 1237 q 643 1222 616 1222 q 688 1235 667 1222 q 723 1262 710 1249 q 739 1280 736 1276 l 815 1222 q 789 1180 815 1218 q 721 1109 762 1141 q 628 1078 679 1078 q 568 1085 595 1078 q 501 1107 542 1092 q 445 1125 468 1119 q 395 1132 421 1132 q 346 1120 368 1132 q 310 1096 323 1108 q 294 1079 297 1083 l 228 1133 m 534 996 q 858 866 743 996 q 972 503 972 736 q 914 231 972 349 q 750 47 856 113 q 507 -18 644 -18 q 188 110 299 -18 q 77 482 77 237 q 132 756 77 640 q 291 934 187 872 q 534 996 395 996 m 528 822 q 366 745 419 822 q 313 489 313 668 q 361 236 313 317 q 514 155 410 155 q 679 235 623 155 q 736 496 736 315 q 685 744 736 665 q 528 822 633 822 z "},"Ö":{"ha":1048,"x_min":77,"x_max":972,"o":"m 534 996 q 858 866 743 996 q 972 503 972 736 q 914 231 972 349 q 750 47 856 113 q 507 -18 644 -18 q 188 110 299 -18 q 77 482 77 237 q 132 756 77 640 q 291 934 187 872 q 534 996 395 996 m 528 822 q 366 745 419 822 q 313 489 313 668 q 361 236 313 317 q 514 155 410 155 q 679 235 623 155 q 736 496 736 315 q 685 744 736 665 q 528 822 633 822 m 269 1176 q 299 1255 269 1225 q 372 1284 329 1284 q 447 1256 421 1284 q 472 1176 472 1227 q 442 1097 472 1126 q 370 1067 412 1067 q 295 1095 321 1067 q 269 1176 269 1123 m 572 1176 q 603 1255 572 1225 q 675 1284 633 1284 q 749 1256 724 1284 q 775 1176 775 1227 q 745 1097 775 1126 q 672 1067 715 1067 q 598 1095 623 1067 q 572 1176 572 1123 z "},"×":{"ha":851,"x_min":74,"x_max":778,"o":"m 661 728 l 778 610 l 543 375 l 778 140 l 661 22 l 425 258 l 191 22 l 74 140 l 309 375 l 74 610 l 191 728 l 425 492 l 661 728 z "},"Ø":{"ha":1062,"x_min":83,"x_max":979,"o":"m 208 96 q 83 482 83 224 q 140 756 83 640 q 299 934 196 872 q 542 996 403 996 q 734 958 650 996 l 821 1101 l 945 1031 l 851 879 q 946 720 913 815 q 979 503 979 625 q 921 231 979 349 q 757 48 863 113 q 514 -17 652 -17 q 326 17 408 -17 l 224 -153 l 100 -82 l 208 96 m 534 822 q 372 747 428 822 q 317 504 317 672 q 346 321 317 385 l 555 667 l 636 799 q 534 822 591 823 m 747 496 q 717 657 747 593 l 425 179 q 521 155 465 155 q 747 496 747 155 z "},"Ù":{"ha":1095,"x_min":49,"x_max":1047,"o":"m 367 375 q 407 203 367 254 q 549 153 447 153 q 660 178 621 153 q 713 256 699 204 q 728 396 728 309 l 728 812 l 619 854 l 619 972 l 1047 979 l 1047 854 l 943 812 l 943 396 q 851 85 943 188 q 542 -17 758 -17 q 243 78 335 -17 q 151 375 151 172 l 151 812 l 49 854 l 49 972 l 475 979 l 475 854 l 367 812 l 367 375 m 684 1132 l 620 1021 l 304 1177 l 385 1328 l 684 1132 z "},"Ú":{"ha":1095,"x_min":49,"x_max":1047,"o":"m 367 375 q 407 203 367 254 q 549 153 447 153 q 660 178 621 153 q 713 256 699 204 q 728 396 728 309 l 728 812 l 619 854 l 619 972 l 1047 979 l 1047 854 l 943 812 l 943 396 q 851 85 943 188 q 542 -17 758 -17 q 243 78 335 -17 q 151 375 151 172 l 151 812 l 49 854 l 49 972 l 475 979 l 475 854 l 367 812 l 367 375 m 396 1132 l 694 1328 l 775 1177 l 460 1021 l 396 1132 z "},"Û":{"ha":1095,"x_min":49,"x_max":1047,"o":"m 367 375 q 407 203 367 254 q 549 153 447 153 q 660 178 621 153 q 713 256 699 204 q 728 396 728 309 l 728 812 l 619 854 l 619 972 l 1047 979 l 1047 854 l 943 812 l 943 396 q 851 85 943 188 q 542 -17 758 -17 q 243 78 335 -17 q 151 375 151 172 l 151 812 l 49 854 l 49 972 l 475 979 l 475 854 l 367 812 l 367 375 m 477 1304 l 600 1315 l 825 1122 l 758 1030 l 549 1166 l 331 1030 l 264 1122 l 477 1304 z "},"Ü":{"ha":1095,"x_min":49,"x_max":1047,"o":"m 367 375 q 407 203 367 254 q 549 153 447 153 q 660 178 621 153 q 713 256 699 204 q 728 396 728 309 l 728 812 l 619 854 l 619 972 l 1047 979 l 1047 854 l 943 812 l 943 396 q 851 85 943 188 q 542 -17 758 -17 q 243 78 335 -17 q 151 375 151 172 l 151 812 l 49 854 l 49 972 l 475 979 l 475 854 l 367 812 l 367 375 m 296 1176 q 326 1255 296 1225 q 399 1284 355 1284 q 473 1256 448 1284 q 498 1176 498 1227 q 469 1097 498 1126 q 396 1067 439 1067 q 321 1095 347 1067 q 296 1176 296 1123 m 599 1176 q 629 1255 599 1225 q 701 1284 660 1284 q 776 1256 750 1284 q 802 1176 802 1227 q 772 1097 802 1126 q 699 1067 742 1067 q 624 1095 650 1067 q 599 1176 599 1123 z "},"Ý":{"ha":926,"x_min":9,"x_max":917,"o":"m 250 118 l 354 160 l 354 339 l 100 817 l 9 854 l 9 972 l 403 979 l 403 854 l 332 825 l 471 526 l 618 823 l 542 854 l 542 972 l 917 979 l 917 854 l 821 817 l 570 340 l 570 160 l 673 118 l 673 0 l 250 0 l 250 118 m 361 1132 l 659 1328 l 740 1177 l 425 1021 l 361 1132 z "},"Þ":{"ha":873,"x_min":49,"x_max":839,"o":"m 49 118 l 153 160 l 153 812 l 49 854 l 49 972 l 486 979 l 486 854 l 368 812 l 368 771 l 505 771 q 751 704 663 771 q 839 514 839 637 q 734 293 839 364 q 443 222 629 222 l 368 222 l 368 160 l 486 118 l 486 0 l 49 0 l 49 118 m 457 371 q 582 404 538 371 q 627 500 627 436 q 587 587 627 557 q 481 618 547 618 l 368 618 l 368 371 l 457 371 z "},"ß":{"ha":1046,"x_min":49,"x_max":1039,"o":"m 184 791 q 227 950 184 882 q 347 1056 269 1018 q 525 1093 425 1093 q 783 1030 692 1093 q 875 859 875 966 q 851 756 875 796 q 781 672 827 717 q 733 620 749 642 q 718 570 718 597 q 748 510 718 532 q 843 460 778 488 q 944 410 904 433 q 1011 343 983 386 q 1039 239 1039 301 q 1000 106 1039 163 q 892 18 961 49 q 734 -14 823 -14 q 632 -7 684 -14 q 543 7 579 0 q 497 17 507 14 l 497 240 l 623 240 l 636 147 q 665 139 636 146 q 728 132 694 132 q 802 152 777 132 q 828 207 828 172 q 799 262 828 240 q 708 310 770 283 q 606 362 646 338 q 536 432 566 387 q 507 543 507 476 q 531 638 507 603 q 600 714 554 673 q 653 771 636 747 q 671 829 671 794 q 628 911 671 882 q 528 940 585 940 q 429 903 464 940 q 393 802 393 867 l 393 0 l 74 0 l 74 111 l 184 146 l 184 597 l 49 597 l 49 715 l 184 736 l 184 791 z "},"à":{"ha":834,"x_min":56,"x_max":800,"o":"m 497 90 q 461 60 497 87 q 375 9 425 32 q 272 -14 325 -14 q 113 43 170 -14 q 56 204 56 100 q 141 378 56 323 q 390 433 227 433 l 488 433 l 488 510 q 380 611 488 612 q 321 606 349 611 q 278 596 294 602 q 258 590 262 591 l 237 503 l 113 503 l 103 708 q 163 726 115 712 q 278 751 211 739 q 404 764 345 764 q 574 737 511 764 q 667 650 637 710 q 696 489 696 590 l 696 146 l 800 121 l 800 9 l 522 0 l 497 90 m 257 225 q 278 163 257 184 q 339 142 300 142 q 405 160 372 142 q 460 197 437 178 q 488 222 482 216 l 488 315 l 408 315 q 292 294 328 315 q 257 225 257 272 m 558 932 l 490 831 l 154 1035 l 248 1179 l 558 932 z "},"á":{"ha":834,"x_min":56,"x_max":800,"o":"m 497 90 q 461 60 497 87 q 375 9 425 32 q 272 -14 325 -14 q 113 43 170 -14 q 56 204 56 100 q 141 378 56 323 q 390 433 227 433 l 488 433 l 488 510 q 380 611 488 612 q 321 606 349 611 q 278 596 294 602 q 258 590 262 591 l 237 503 l 113 503 l 103 708 q 163 726 115 712 q 278 751 211 739 q 404 764 345 764 q 574 737 511 764 q 667 650 637 710 q 696 489 696 590 l 696 146 l 800 121 l 800 9 l 522 0 l 497 90 m 257 225 q 278 163 257 184 q 339 142 300 142 q 405 160 372 142 q 460 197 437 178 q 488 222 482 216 l 488 315 l 408 315 q 292 294 328 315 q 257 225 257 272 m 511 1182 l 201 935 l 269 833 l 606 1038 l 511 1182 z "},"â":{"ha":834,"x_min":56,"x_max":800,"o":"m 497 90 q 461 60 497 87 q 375 9 425 32 q 272 -14 325 -14 q 113 43 170 -14 q 56 204 56 100 q 141 378 56 323 q 390 433 227 433 l 488 433 l 488 510 q 380 611 488 612 q 321 606 349 611 q 278 596 294 602 q 258 590 262 591 l 237 503 l 113 503 l 103 708 q 163 726 115 712 q 278 751 211 739 q 404 764 345 764 q 574 737 511 764 q 667 650 637 710 q 696 489 696 590 l 696 146 l 800 121 l 800 9 l 522 0 l 497 90 m 257 225 q 278 163 257 184 q 339 142 300 142 q 405 160 372 142 q 460 197 437 178 q 488 222 482 216 l 488 315 l 408 315 q 292 294 328 315 q 257 225 257 272 m 321 1135 l 444 1145 l 688 922 l 621 830 l 393 997 l 160 830 l 93 922 l 321 1135 z "},"ã":{"ha":834,"x_min":56,"x_max":800,"o":"m 497 90 q 461 60 497 87 q 375 9 425 32 q 272 -14 325 -14 q 113 43 170 -14 q 56 204 56 100 q 141 378 56 323 q 390 433 227 433 l 488 433 l 488 510 q 380 611 488 612 q 321 606 349 611 q 278 596 294 602 q 258 590 262 591 l 237 503 l 113 503 l 103 708 q 163 726 115 712 q 278 751 211 739 q 404 764 345 764 q 574 737 511 764 q 667 650 637 710 q 696 489 696 590 l 696 146 l 800 121 l 800 9 l 522 0 l 497 90 m 257 225 q 278 163 257 184 q 339 142 300 142 q 405 160 372 142 q 460 197 437 178 q 488 222 482 216 l 488 315 l 408 315 q 292 294 328 315 q 257 225 257 272 m 96 939 q 118 984 96 945 q 179 1058 141 1023 q 269 1092 218 1092 q 331 1083 302 1092 q 394 1059 359 1075 q 451 1036 429 1043 q 500 1028 473 1028 q 545 1041 524 1028 q 579 1068 566 1054 q 595 1086 593 1082 l 669 1022 q 646 977 669 1017 q 584 904 623 937 q 496 871 545 871 q 436 879 463 871 q 369 903 410 886 q 314 924 338 916 q 262 932 290 932 q 214 919 236 932 q 177 893 191 907 q 161 875 163 879 l 96 939 z "},"ä":{"ha":834,"x_min":56,"x_max":800,"o":"m 497 90 q 461 60 497 87 q 375 9 425 32 q 272 -14 325 -14 q 113 43 170 -14 q 56 204 56 100 q 141 378 56 323 q 390 433 227 433 l 488 433 l 488 510 q 380 611 488 612 q 321 606 349 611 q 278 596 294 602 q 258 590 262 591 l 237 503 l 113 503 l 103 708 q 163 726 115 712 q 278 751 211 739 q 404 764 345 764 q 574 737 511 764 q 667 650 637 710 q 696 489 696 590 l 696 146 l 800 121 l 800 9 l 522 0 l 497 90 m 257 225 q 278 163 257 184 q 339 142 300 142 q 405 160 372 142 q 460 197 437 178 q 488 222 482 216 l 488 315 l 408 315 q 292 294 328 315 q 257 225 257 272 m 144 969 q 174 1048 144 1018 q 248 1078 204 1078 q 322 1049 296 1078 q 347 969 347 1021 q 317 890 347 919 q 245 861 288 861 q 170 888 196 861 q 144 969 144 916 m 448 969 q 478 1048 448 1018 q 550 1078 509 1078 q 625 1049 599 1078 q 650 969 650 1021 q 621 890 650 919 q 547 861 591 861 q 473 888 498 861 q 448 969 448 916 z "},"å":{"ha":834,"x_min":56,"x_max":800,"o":"m 497 90 q 461 60 497 87 q 375 9 425 32 q 272 -14 325 -14 q 113 43 170 -14 q 56 204 56 100 q 141 378 56 323 q 390 433 227 433 l 488 433 l 488 510 q 380 611 488 612 q 321 606 349 611 q 278 596 294 602 q 258 590 262 591 l 237 503 l 113 503 l 103 708 q 163 726 115 712 q 278 751 211 739 q 404 764 345 764 q 574 737 511 764 q 667 650 637 710 q 696 489 696 590 l 696 146 l 800 121 l 800 9 l 522 0 l 497 90 m 257 225 q 278 163 257 184 q 339 142 300 142 q 405 160 372 142 q 460 197 437 178 q 488 222 482 216 l 488 315 l 408 315 q 292 294 328 315 q 257 225 257 272 m 224 1006 q 251 1104 224 1061 q 320 1168 277 1146 q 411 1190 363 1190 q 500 1170 458 1190 q 569 1109 543 1149 q 595 1014 595 1069 q 569 917 595 958 q 499 852 543 875 q 411 829 456 829 q 320 850 363 829 q 251 910 277 871 q 224 1006 224 950 m 343 1010 q 360 951 343 971 q 411 930 378 930 q 459 951 440 930 q 477 1011 477 972 q 460 1070 477 1050 q 411 1090 443 1090 q 362 1069 380 1090 q 343 1010 343 1048 z "},"æ":{"ha":1202,"x_min":56,"x_max":1161,"o":"m 693 326 q 744 198 699 244 q 861 153 789 153 q 964 167 913 153 q 1049 197 1015 182 q 1092 218 1083 212 l 1153 103 q 1102 69 1153 100 q 980 12 1051 37 q 833 -14 909 -14 q 545 125 631 -14 q 426 26 494 66 q 271 -14 357 -14 q 114 45 172 -14 q 56 204 56 103 q 140 378 56 323 q 389 433 225 433 l 486 433 l 486 510 q 379 610 486 610 q 321 605 349 610 q 278 595 294 600 q 257 589 261 590 l 236 503 l 111 503 l 102 708 q 154 725 102 711 q 274 751 207 739 q 400 762 342 762 q 531 743 478 762 q 616 682 585 724 q 847 764 709 764 q 1079 677 997 764 q 1161 439 1161 591 q 1158 373 1161 406 q 1153 330 1154 340 l 693 326 m 833 597 q 738 558 775 597 q 693 452 701 519 l 947 452 q 920 558 947 519 q 833 597 892 597 m 254 225 q 276 164 254 186 q 338 142 298 142 q 403 160 370 142 q 458 199 436 179 q 486 225 481 218 l 486 315 l 407 315 q 290 294 326 315 q 254 225 254 272 z "},"ç":{"ha":729,"x_min":49,"x_max":708,"o":"m 708 104 q 471 -8 598 10 l 471 -56 q 557 -99 525 -66 q 590 -180 590 -132 q 540 -279 590 -240 q 416 -318 490 -318 q 337 -308 375 -318 q 274 -288 298 -298 q 244 -273 250 -278 l 288 -197 q 309 -207 292 -200 q 351 -220 326 -214 q 401 -227 376 -227 q 449 -213 432 -227 q 467 -175 467 -199 q 435 -130 467 -146 q 351 -114 404 -114 l 351 -9 q 128 104 207 6 q 49 364 49 201 q 150 657 49 550 q 431 764 250 764 q 537 753 484 764 q 628 731 591 742 q 673 715 664 720 l 667 489 l 542 489 l 522 586 q 488 592 515 587 q 427 597 461 597 q 307 546 350 597 q 264 392 264 494 q 308 215 264 277 q 437 153 351 153 q 533 169 492 153 q 602 203 574 186 q 639 227 629 221 l 708 104 z "},"è":{"ha":783,"x_min":49,"x_max":734,"o":"m 265 329 q 316 199 271 245 q 433 153 361 153 q 537 167 485 153 q 623 197 589 182 q 667 218 657 212 l 726 103 q 678 69 726 100 q 559 12 629 37 q 410 -14 489 -14 q 141 84 233 -14 q 49 361 49 182 q 93 573 49 481 q 221 714 138 664 q 419 764 304 764 q 653 676 572 764 q 734 437 734 589 q 731 373 734 404 q 726 334 728 342 l 265 329 m 406 597 q 313 559 349 597 q 268 458 277 521 l 519 458 q 492 559 519 521 q 406 597 464 597 m 579 932 l 511 831 l 175 1035 l 269 1179 l 579 932 z "},"é":{"ha":783,"x_min":49,"x_max":734,"o":"m 265 329 q 316 199 271 245 q 433 153 361 153 q 537 167 485 153 q 623 197 589 182 q 667 218 657 212 l 726 103 q 678 69 726 100 q 559 12 629 37 q 410 -14 489 -14 q 141 84 233 -14 q 49 361 49 182 q 93 573 49 481 q 221 714 138 664 q 419 764 304 764 q 653 676 572 764 q 734 437 734 589 q 731 373 734 404 q 726 334 728 342 l 265 329 m 406 597 q 313 559 349 597 q 268 458 277 521 l 519 458 q 492 559 519 521 q 406 597 464 597 m 233 932 l 301 831 l 637 1035 l 543 1179 l 233 932 z "},"ê":{"ha":783,"x_min":49,"x_max":734,"o":"m 265 329 q 316 199 271 245 q 433 153 361 153 q 537 167 485 153 q 623 197 589 182 q 667 218 657 212 l 726 103 q 678 69 726 100 q 559 12 629 37 q 410 -14 489 -14 q 141 84 233 -14 q 49 361 49 182 q 93 573 49 481 q 221 714 138 664 q 419 764 304 764 q 653 676 572 764 q 734 437 734 589 q 731 373 734 404 q 726 334 728 342 l 265 329 m 406 597 q 313 559 349 597 q 268 458 277 521 l 519 458 q 492 559 519 521 q 406 597 464 597 m 328 1135 l 451 1145 l 694 922 l 627 830 l 400 997 l 167 830 l 100 922 l 328 1135 z "},"ë":{"ha":783,"x_min":49,"x_max":734,"o":"m 265 329 q 316 199 271 245 q 433 153 361 153 q 537 167 485 153 q 623 197 589 182 q 667 218 657 212 l 726 103 q 678 69 726 100 q 559 12 629 37 q 410 -14 489 -14 q 141 84 233 -14 q 49 361 49 182 q 93 573 49 481 q 221 714 138 664 q 419 764 304 764 q 653 676 572 764 q 734 437 734 589 q 731 373 734 404 q 726 334 728 342 l 265 329 m 406 597 q 313 559 349 597 q 268 458 277 521 l 519 458 q 492 559 519 521 q 406 597 464 597 m 144 969 q 174 1048 144 1018 q 248 1078 204 1078 q 322 1049 296 1078 q 347 969 347 1021 q 317 890 347 919 q 245 861 288 861 q 170 888 196 861 q 144 969 144 916 m 448 969 q 478 1048 448 1018 q 550 1078 509 1078 q 625 1049 599 1078 q 650 969 650 1021 q 621 890 650 919 q 547 861 591 861 q 473 888 498 861 q 448 969 448 916 z "},"ì":{"ha":503,"x_min":35,"x_max":461,"o":"m 461 111 l 461 0 l 49 0 l 49 111 l 160 146 l 160 600 l 49 628 l 49 739 l 364 750 l 364 146 l 461 111 m 439 932 l 371 831 l 35 1035 l 129 1179 l 439 932 z "},"í":{"ha":503,"x_min":49,"x_max":479,"o":"m 461 111 l 461 0 l 49 0 l 49 111 l 160 146 l 160 600 l 49 628 l 49 739 l 364 750 l 364 146 l 461 111 m 75 932 l 143 831 l 479 1035 l 385 1179 l 75 932 z "},"î":{"ha":504,"x_min":-39,"x_max":532,"o":"m 178 1135 l 301 1146 l 532 922 l 464 831 l 250 997 l 29 831 l -39 922 l 178 1135 m 461 111 l 461 0 l 49 0 l 49 111 l 160 146 l 160 600 l 49 628 l 49 739 l 364 750 l 364 146 l 461 111 z "},"ï":{"ha":503,"x_min":-1,"x_max":490,"o":"m -1 970 q 28 1048 -1 1018 q 102 1078 58 1078 q 176 1049 151 1078 q 201 970 201 1021 q 172 890 201 920 q 98 861 142 861 q 24 889 50 861 q -1 970 -1 917 m 288 970 q 318 1048 288 1018 q 390 1078 349 1078 q 465 1049 439 1078 q 490 970 490 1021 q 460 890 490 920 q 387 861 431 861 q 313 889 338 861 q 288 970 288 917 m 461 111 l 461 0 l 49 0 l 49 111 l 160 146 l 160 600 l 49 628 l 49 739 l 364 750 l 364 146 l 461 111 z "},"ð":{"ha":802,"x_min":49,"x_max":747,"o":"m 228 1096 q 432 1011 336 1069 l 578 1096 l 659 986 l 546 922 q 696 688 644 825 q 747 378 747 550 q 704 170 747 260 q 578 32 660 81 q 389 -17 497 -17 q 139 72 229 -17 q 49 334 49 161 q 94 529 49 446 q 219 657 139 612 q 403 701 298 701 q 511 671 457 701 q 403 838 474 770 l 240 745 l 160 854 l 282 924 q 164 975 225 954 l 228 1096 m 403 542 q 296 491 329 542 q 264 340 264 440 q 295 196 264 249 q 396 143 326 143 q 501 195 470 143 q 532 347 532 248 q 503 493 532 444 q 403 542 475 542 z "},"ñ":{"ha":951,"x_min":49,"x_max":917,"o":"m 185 939 q 208 984 185 945 q 269 1058 231 1023 q 359 1092 307 1092 q 420 1083 392 1092 q 484 1059 449 1075 q 541 1036 518 1043 q 589 1028 563 1028 q 634 1041 613 1028 q 669 1068 656 1054 q 685 1086 682 1082 l 759 1022 q 736 977 759 1017 q 674 904 713 937 q 585 871 635 871 q 526 879 552 871 q 458 903 499 886 q 404 924 428 916 q 352 932 380 932 q 303 919 326 932 q 267 893 281 907 q 250 875 253 879 l 185 939 m 353 654 q 396 686 353 657 q 496 738 440 714 q 608 761 553 761 q 764 695 708 761 q 819 514 819 629 l 819 146 l 917 111 l 917 0 l 534 0 l 534 111 l 611 146 l 611 476 q 585 556 611 525 q 517 587 559 587 q 445 570 478 587 q 390 532 412 553 q 368 509 368 511 l 368 146 l 444 111 l 444 0 l 49 0 l 49 111 l 160 146 l 160 597 l 49 632 l 49 743 l 343 750 l 353 654 z "},"ò":{"ha":822,"x_min":49,"x_max":774,"o":"m 424 764 q 683 666 591 764 q 774 389 774 568 q 728 174 774 265 q 599 35 682 83 q 403 -14 515 -14 q 49 368 49 -14 q 95 581 49 492 q 227 716 142 669 q 424 764 311 764 m 416 597 q 301 547 338 597 q 264 375 264 496 q 299 206 264 260 q 410 153 334 153 q 522 206 486 153 q 558 382 558 260 q 524 544 558 490 q 416 597 490 597 m 600 932 l 532 831 l 196 1035 l 290 1179 l 600 932 z "},"ó":{"ha":822,"x_min":49,"x_max":774,"o":"m 424 764 q 683 666 591 764 q 774 389 774 568 q 728 174 774 265 q 599 35 682 83 q 403 -14 515 -14 q 49 368 49 -14 q 95 581 49 492 q 227 716 142 669 q 424 764 311 764 m 416 597 q 301 547 338 597 q 264 375 264 496 q 299 206 264 260 q 410 153 334 153 q 522 206 486 153 q 558 382 558 260 q 524 544 558 490 q 416 597 490 597 m 235 932 l 302 831 l 639 1035 l 544 1179 l 235 932 z "},"ô":{"ha":822,"x_min":49,"x_max":774,"o":"m 424 764 q 683 666 591 764 q 774 389 774 568 q 728 174 774 265 q 599 35 682 83 q 403 -14 515 -14 q 49 368 49 -14 q 95 581 49 492 q 227 716 142 669 q 424 764 311 764 m 416 597 q 301 547 338 597 q 264 375 264 496 q 299 206 264 260 q 410 153 334 153 q 522 206 486 153 q 558 382 558 260 q 524 544 558 490 q 416 597 490 597 m 339 1135 l 463 1145 l 706 922 l 639 830 l 412 997 l 178 830 l 111 922 l 339 1135 z "},"õ":{"ha":822,"x_min":49,"x_max":774,"o":"m 424 764 q 683 666 591 764 q 774 389 774 568 q 728 174 774 265 q 599 35 682 83 q 403 -14 515 -14 q 49 368 49 -14 q 95 581 49 492 q 227 716 142 669 q 424 764 311 764 m 416 597 q 301 547 338 597 q 264 375 264 496 q 299 206 264 260 q 410 153 334 153 q 522 206 486 153 q 558 382 558 260 q 524 544 558 490 q 416 597 490 597 m 123 939 q 146 984 123 945 q 207 1058 169 1023 q 297 1092 245 1092 q 359 1083 330 1092 q 422 1059 387 1075 q 479 1036 456 1043 q 528 1028 501 1028 q 573 1041 551 1028 q 607 1068 594 1054 q 623 1086 621 1082 l 697 1022 q 674 977 697 1017 q 612 904 651 937 q 524 871 573 871 q 464 879 490 871 q 397 903 437 886 q 342 924 366 916 q 290 932 318 932 q 241 919 264 932 q 205 893 219 907 q 189 875 191 879 l 123 939 z "},"ö":{"ha":822,"x_min":49,"x_max":774,"o":"m 424 764 q 683 666 591 764 q 774 389 774 568 q 728 174 774 265 q 599 35 682 83 q 403 -14 515 -14 q 49 368 49 -14 q 95 581 49 492 q 227 716 142 669 q 424 764 311 764 m 416 597 q 301 547 338 597 q 264 375 264 496 q 299 206 264 260 q 410 153 334 153 q 522 206 486 153 q 558 382 558 260 q 524 544 558 490 q 416 597 490 597 m 158 969 q 188 1048 158 1018 q 261 1078 218 1078 q 335 1049 310 1078 q 361 969 361 1021 q 331 890 361 919 q 258 861 301 861 q 184 888 210 861 q 158 969 158 916 m 461 969 q 492 1048 461 1018 q 564 1078 522 1078 q 638 1049 612 1078 q 664 969 664 1021 q 634 890 664 919 q 561 861 604 861 q 487 888 512 861 q 461 969 461 916 z "},"÷":{"ha":875,"x_min":72,"x_max":802,"o":"m 317 668 q 351 763 317 729 q 440 796 386 796 q 558 668 558 796 q 524 573 558 607 q 436 539 490 539 q 347 572 378 539 q 317 668 317 606 m 802 289 l 72 289 l 72 449 l 802 449 l 802 289 m 317 71 q 351 165 317 132 q 440 199 386 199 q 558 71 558 199 q 524 -24 558 9 q 436 -58 490 -58 q 347 -25 378 -58 q 317 71 317 8 z "},"ø":{"ha":836,"x_min":56,"x_max":781,"o":"m 161 64 q 56 368 56 157 q 102 581 56 492 q 233 716 149 669 q 431 764 318 764 q 568 742 501 764 l 659 893 l 762 835 l 672 684 q 781 389 781 587 q 735 174 781 265 q 606 35 689 83 q 410 -14 522 -14 q 267 5 340 -14 l 165 -163 l 61 -104 l 161 64 m 424 604 q 307 551 343 604 q 271 374 271 498 q 286 272 271 315 l 478 593 q 424 604 453 604 m 566 382 q 550 479 566 444 l 357 157 q 416 146 379 146 q 530 201 494 146 q 566 382 566 257 z "},"ù":{"ha":929,"x_min":21,"x_max":901,"o":"m 21 743 l 340 750 l 340 271 q 360 186 340 212 q 425 160 379 160 q 500 177 465 160 q 558 213 534 193 q 582 235 582 232 l 582 597 l 471 632 l 471 743 l 790 750 l 790 146 l 901 118 l 901 9 l 608 0 l 595 97 q 556 65 595 94 q 464 11 518 36 q 351 -14 410 -14 q 190 52 247 -14 q 132 235 132 118 l 132 597 l 21 632 l 21 743 m 615 932 l 547 831 l 211 1035 l 305 1179 l 615 932 z "},"ú":{"ha":929,"x_min":21,"x_max":901,"o":"m 21 743 l 340 750 l 340 271 q 360 186 340 212 q 425 160 379 160 q 500 177 465 160 q 558 213 534 193 q 582 235 582 232 l 582 597 l 471 632 l 471 743 l 790 750 l 790 146 l 901 118 l 901 9 l 608 0 l 595 97 q 556 65 595 94 q 464 11 518 36 q 351 -14 410 -14 q 190 52 247 -14 q 132 235 132 118 l 132 597 l 21 632 l 21 743 m 262 932 l 330 831 l 667 1035 l 572 1179 l 262 932 z "},"û":{"ha":929,"x_min":21,"x_max":901,"o":"m 21 743 l 340 750 l 340 271 q 360 186 340 212 q 425 160 379 160 q 500 177 465 160 q 558 213 534 193 q 582 235 582 232 l 582 597 l 471 632 l 471 743 l 790 750 l 790 146 l 901 118 l 901 9 l 608 0 l 595 97 q 556 65 595 94 q 464 11 518 36 q 351 -14 410 -14 q 190 52 247 -14 q 132 235 132 118 l 132 597 l 21 632 l 21 743 m 374 1135 l 497 1145 l 741 922 l 673 830 l 446 997 l 213 830 l 146 922 l 374 1135 z "},"ü":{"ha":929,"x_min":21,"x_max":901,"o":"m 21 743 l 340 750 l 340 271 q 360 186 340 212 q 425 160 379 160 q 500 177 465 160 q 558 213 534 193 q 582 235 582 232 l 582 597 l 471 632 l 471 743 l 790 750 l 790 146 l 901 118 l 901 9 l 608 0 l 595 97 q 556 65 595 94 q 464 11 518 36 q 351 -14 410 -14 q 190 52 247 -14 q 132 235 132 118 l 132 597 l 21 632 l 21 743 m 183 969 q 213 1048 183 1018 q 286 1078 243 1078 q 360 1049 335 1078 q 386 969 386 1021 q 356 890 386 919 q 283 861 326 861 q 209 888 235 861 q 183 969 183 916 m 486 969 q 517 1048 486 1018 q 589 1078 547 1078 q 663 1049 637 1078 q 689 969 689 1021 q 659 890 689 919 q 586 861 629 861 q 512 888 537 861 q 486 969 486 916 z "},"ý":{"ha":834,"x_min":7,"x_max":835,"o":"m 7 743 l 378 750 l 378 632 l 300 618 l 424 229 l 542 614 l 461 632 l 461 743 l 835 750 l 835 632 l 749 614 l 545 45 q 459 -148 505 -68 q 341 -281 414 -228 q 167 -334 269 -334 q 92 -329 138 -334 q 32 -322 46 -323 l 52 -174 l 142 -174 q 255 -123 214 -174 q 328 -1 297 -72 l 81 610 l 7 632 l 7 743 m 319 932 l 387 831 l 724 1035 l 629 1179 l 319 932 z "},"þ":{"ha":875,"x_min":28,"x_max":827,"o":"m 347 684 q 375 707 347 686 q 447 746 403 728 q 545 764 490 764 q 754 665 681 764 q 827 396 827 567 q 727 93 827 200 q 431 -14 628 -14 q 382 -9 408 -14 q 347 -3 355 -4 l 347 -183 l 493 -215 l 493 -326 l 31 -326 l 31 -215 l 139 -183 l 139 926 l 28 954 l 28 1065 l 347 1076 l 347 684 m 347 164 q 362 158 350 163 q 398 150 375 154 q 453 146 421 146 q 574 208 538 146 q 611 382 611 269 q 475 597 611 597 q 409 583 437 597 q 364 551 380 568 q 347 532 347 534 l 347 164 z "},"ÿ":{"ha":834,"x_min":7,"x_max":835,"o":"m 7 743 l 378 750 l 378 632 l 300 618 l 424 229 l 542 614 l 461 632 l 461 743 l 835 750 l 835 632 l 749 614 l 545 45 q 459 -148 505 -68 q 341 -281 414 -228 q 167 -334 269 -334 q 92 -329 138 -334 q 32 -322 46 -323 l 52 -174 l 142 -174 q 255 -123 214 -174 q 328 -1 297 -72 l 81 610 l 7 632 l 7 743 m 158 969 q 188 1048 158 1018 q 261 1078 218 1078 q 335 1049 310 1078 q 361 969 361 1021 q 331 890 361 919 q 258 861 301 861 q 184 888 210 861 q 158 969 158 916 m 461 969 q 492 1048 461 1018 q 564 1078 522 1078 q 638 1049 612 1078 q 664 969 664 1021 q 634 890 664 919 q 561 861 604 861 q 487 888 512 861 q 461 969 461 916 z "},"Ā":{"ha":1038,"x_min":7,"x_max":1032,"o":"m 1032 0 l 590 0 l 590 118 l 694 155 l 661 257 l 353 257 l 318 157 l 427 118 l 427 0 l 7 0 l 7 118 l 109 157 l 414 975 l 636 979 l 935 157 l 1032 118 l 1032 0 m 511 734 l 401 406 l 615 406 l 511 734 m 762 1114 l 345 1114 l 345 1260 l 762 1260 l 762 1114 z "},"ā":{"ha":834,"x_min":56,"x_max":800,"o":"m 497 90 q 461 60 497 87 q 375 9 425 32 q 272 -14 325 -14 q 113 43 170 -14 q 56 204 56 100 q 141 378 56 323 q 390 433 227 433 l 488 433 l 488 510 q 380 611 488 612 q 321 606 349 611 q 278 596 294 602 q 258 590 262 591 l 237 503 l 113 503 l 103 708 q 163 726 115 712 q 278 751 211 739 q 404 764 345 764 q 574 737 511 764 q 667 650 637 710 q 696 489 696 590 l 696 146 l 800 121 l 800 9 l 522 0 l 497 90 m 257 225 q 278 163 257 184 q 339 142 300 142 q 405 160 372 142 q 460 197 437 178 q 488 222 482 216 l 488 315 l 408 315 q 292 294 328 315 q 257 225 257 272 m 604 899 l 187 899 l 187 1044 l 604 1044 l 604 899 z "},"Ă":{"ha":1038,"x_min":7,"x_max":1032,"o":"m 1032 0 l 590 0 l 590 118 l 694 155 l 661 257 l 353 257 l 318 157 l 427 118 l 427 0 l 7 0 l 7 118 l 109 157 l 414 975 l 636 979 l 935 157 l 1032 118 l 1032 0 m 511 734 l 401 406 l 615 406 l 511 734 m 433 1307 q 442 1275 433 1300 q 475 1227 451 1250 q 541 1204 500 1204 q 607 1224 583 1204 q 638 1266 631 1244 q 646 1295 646 1287 l 766 1304 q 734 1172 766 1226 q 648 1088 703 1117 q 526 1060 593 1060 q 418 1088 467 1060 q 341 1169 370 1116 q 313 1295 313 1222 l 433 1307 z "},"ă":{"ha":834,"x_min":56,"x_max":800,"o":"m 497 90 q 461 60 497 87 q 375 9 425 32 q 272 -14 325 -14 q 113 43 170 -14 q 56 204 56 100 q 141 378 56 323 q 390 433 227 433 l 488 433 l 488 510 q 380 611 488 612 q 321 606 349 611 q 278 596 294 602 q 258 590 262 591 l 237 503 l 113 503 l 103 708 q 163 726 115 712 q 278 751 211 739 q 404 764 345 764 q 574 737 511 764 q 667 650 637 710 q 696 489 696 590 l 696 146 l 800 121 l 800 9 l 522 0 l 497 90 m 257 225 q 278 163 257 184 q 339 142 300 142 q 405 160 372 142 q 460 197 437 178 q 488 222 482 216 l 488 315 l 408 315 q 292 294 328 315 q 257 225 257 272 m 296 1097 q 304 1065 296 1090 q 338 1018 313 1040 q 403 995 362 995 q 469 1015 446 995 q 500 1056 493 1035 q 508 1085 508 1078 l 629 1095 q 597 962 629 1017 q 510 879 565 907 q 389 850 455 850 q 280 878 329 850 q 203 959 232 906 q 175 1085 175 1013 l 296 1097 z "},"Ą":{"ha":1053,"x_min":7,"x_max":1032,"o":"m 1032 0 q 973 -23 1032 3 q 867 -83 914 -49 q 819 -153 819 -117 q 834 -190 819 -176 q 871 -203 848 -203 q 906 -199 886 -203 q 930 -195 925 -196 l 954 -292 q 929 -303 949 -294 q 878 -319 909 -311 q 812 -326 846 -326 q 703 -291 746 -326 q 660 -187 660 -256 q 719 -73 660 -119 q 838 0 778 -26 l 590 0 l 590 118 l 694 155 l 661 257 l 353 257 l 318 157 l 427 118 l 427 0 l 7 0 l 7 118 l 109 157 l 414 975 l 636 979 l 935 157 l 1032 118 l 1032 0 m 511 734 l 401 406 l 615 406 l 511 734 z "},"ą":{"ha":834,"x_min":56,"x_max":800,"o":"m 800 9 q 754 -19 800 11 q 671 -85 708 -49 q 635 -153 635 -121 q 649 -190 635 -176 q 688 -203 664 -203 q 722 -199 701 -203 q 747 -195 742 -196 l 771 -292 q 745 -303 766 -294 q 693 -319 725 -311 q 628 -326 661 -326 q 519 -291 563 -326 q 475 -187 475 -256 q 502 -98 475 -138 q 563 -33 529 -58 q 618 3 596 -7 l 522 0 l 497 90 q 461 60 497 87 q 375 9 425 32 q 272 -14 325 -14 q 113 43 170 -14 q 56 204 56 100 q 141 378 56 323 q 390 433 227 433 l 488 433 l 488 510 q 380 611 488 612 q 321 606 349 611 q 278 596 294 602 q 258 590 262 591 l 237 503 l 113 503 l 103 708 q 163 726 115 712 q 278 751 211 739 q 404 764 345 764 q 574 737 511 764 q 667 650 637 710 q 696 489 696 590 l 696 146 l 800 121 l 800 9 m 257 225 q 278 163 257 184 q 339 142 300 142 q 405 160 372 142 q 460 197 437 178 q 488 222 482 216 l 488 315 l 408 315 q 292 294 328 315 q 257 225 257 272 z "},"Ć":{"ha":926,"x_min":77,"x_max":885,"o":"m 693 800 q 667 807 688 802 q 612 817 647 812 q 538 822 578 822 q 368 738 427 822 q 309 482 309 653 q 370 240 309 318 q 545 163 431 163 q 665 184 606 163 q 766 231 724 205 q 808 260 808 257 l 885 135 q 832 91 885 131 q 699 17 779 50 q 521 -17 618 -17 q 193 109 309 -17 q 77 475 77 235 q 134 753 77 636 q 297 933 192 871 q 545 996 403 996 q 691 981 620 996 q 815 949 762 966 q 868 930 868 932 l 861 667 l 725 667 l 693 800 m 354 1132 l 652 1328 l 733 1177 l 418 1021 l 354 1132 z "},"ć":{"ha":729,"x_min":49,"x_max":708,"o":"m 708 104 q 586 24 661 62 q 410 -14 510 -14 q 144 86 239 -14 q 49 364 49 186 q 150 657 49 550 q 431 764 250 764 q 537 753 484 764 q 628 731 591 742 q 673 715 664 720 l 667 488 l 542 488 l 522 586 q 488 592 515 587 q 427 597 461 597 q 307 545 350 597 q 264 392 264 493 q 308 215 264 277 q 437 153 351 153 q 533 169 492 153 q 602 203 574 186 q 639 227 629 221 l 708 104 m 567 1182 l 257 935 l 325 833 l 661 1038 l 567 1182 z "},"Ĉ":{"ha":926,"x_min":77,"x_max":885,"o":"m 693 800 q 667 807 688 802 q 612 817 647 812 q 538 822 578 822 q 368 738 427 822 q 309 482 309 653 q 370 240 309 318 q 545 163 431 163 q 665 184 606 163 q 766 231 724 205 q 808 260 808 257 l 885 135 q 832 91 885 131 q 699 17 779 50 q 521 -17 618 -17 q 193 109 309 -17 q 77 475 77 235 q 134 753 77 636 q 297 933 192 871 q 545 996 403 996 q 691 981 620 996 q 815 949 762 966 q 868 930 868 932 l 861 667 l 725 667 l 693 800 m 442 1304 l 566 1315 l 791 1122 l 724 1030 l 514 1166 l 296 1030 l 229 1122 l 442 1304 z "},"ĉ":{"ha":729,"x_min":49,"x_max":708,"o":"m 708 104 q 586 24 661 62 q 410 -14 510 -14 q 144 86 239 -14 q 49 364 49 186 q 150 657 49 550 q 431 764 250 764 q 537 753 484 764 q 628 731 591 742 q 673 715 664 720 l 667 488 l 542 488 l 522 586 q 488 592 515 587 q 427 597 461 597 q 307 545 350 597 q 264 392 264 493 q 308 215 264 277 q 437 153 351 153 q 533 169 492 153 q 602 203 574 186 q 639 227 629 221 l 708 104 m 321 1135 l 444 1145 l 688 922 l 621 830 l 393 997 l 160 830 l 93 922 l 321 1135 z "},"Ċ":{"ha":926,"x_min":77,"x_max":885,"o":"m 693 800 q 667 807 688 802 q 612 817 647 812 q 538 822 578 822 q 368 738 427 822 q 309 482 309 653 q 370 240 309 318 q 545 163 431 163 q 665 184 606 163 q 766 231 724 205 q 808 260 808 257 l 885 135 q 832 91 885 131 q 699 17 779 50 q 521 -17 618 -17 q 193 109 309 -17 q 77 475 77 235 q 134 753 77 636 q 297 933 192 871 q 545 996 403 996 q 691 981 620 996 q 815 949 762 966 q 868 930 868 932 l 861 667 l 725 667 l 693 800 m 403 1177 q 433 1255 403 1225 q 505 1284 464 1284 q 580 1256 554 1284 q 606 1177 606 1227 q 576 1097 606 1126 q 503 1068 546 1068 q 428 1096 454 1068 q 403 1177 403 1124 z "},"ċ":{"ha":729,"x_min":49,"x_max":708,"o":"m 708 104 q 586 24 661 62 q 410 -14 510 -14 q 144 86 239 -14 q 49 364 49 186 q 150 657 49 550 q 431 764 250 764 q 537 753 484 764 q 628 731 591 742 q 673 715 664 720 l 667 488 l 542 488 l 522 586 q 488 592 515 587 q 427 597 461 597 q 307 545 350 597 q 264 392 264 493 q 308 215 264 277 q 437 153 351 153 q 533 169 492 153 q 602 203 574 186 q 639 227 629 221 l 708 104 m 310 970 q 340 1048 310 1018 q 412 1078 371 1078 q 487 1049 461 1078 q 513 970 513 1021 q 483 890 513 920 q 410 861 453 861 q 335 889 361 861 q 310 970 310 917 z "},"Č":{"ha":926,"x_min":77,"x_max":885,"o":"m 693 800 q 667 807 688 802 q 612 817 647 812 q 538 822 578 822 q 368 738 427 822 q 309 482 309 653 q 370 240 309 318 q 545 163 431 163 q 665 184 606 163 q 766 231 724 205 q 808 260 808 257 l 885 135 q 832 91 885 131 q 699 17 779 50 q 521 -17 618 -17 q 193 109 309 -17 q 77 475 77 235 q 134 753 77 636 q 297 933 192 871 q 545 996 403 996 q 691 981 620 996 q 815 949 762 966 q 868 930 868 932 l 861 667 l 725 667 l 693 800 m 579 1051 l 455 1042 l 243 1246 l 319 1329 l 515 1182 l 708 1329 l 777 1246 l 579 1051 z "},"č":{"ha":729,"x_min":49,"x_max":708,"o":"m 708 104 q 586 24 661 62 q 410 -14 510 -14 q 144 86 239 -14 q 49 364 49 186 q 150 657 49 550 q 431 764 250 764 q 537 753 484 764 q 628 731 591 742 q 673 715 664 720 l 667 488 l 542 488 l 522 586 q 488 592 515 587 q 427 597 461 597 q 307 545 350 597 q 264 392 264 493 q 308 215 264 277 q 437 153 351 153 q 533 169 492 153 q 602 203 574 186 q 639 227 629 221 l 708 104 m 664 1064 l 446 847 l 322 840 l 90 1064 l 165 1143 l 382 981 l 597 1145 l 664 1064 z "},"Ď":{"ha":1018,"x_min":56,"x_max":949,"o":"m 160 812 l 56 854 l 56 972 l 375 979 l 507 979 q 833 857 718 979 q 949 503 949 734 q 892 235 949 349 q 731 60 835 121 q 486 0 627 0 l 56 0 l 56 118 l 160 160 l 160 812 m 490 167 q 657 242 599 167 q 715 496 715 318 q 661 739 715 665 q 500 812 607 812 l 375 812 l 375 167 l 490 167 m 564 1051 l 440 1042 l 228 1246 l 304 1329 l 500 1182 l 693 1329 l 762 1246 l 564 1051 z "},"ď":{"ha":1029,"x_min":56,"x_max":1036,"o":"m 806 747 q 841 901 831 833 q 851 1034 851 968 l 850 1076 l 1036 1083 q 1004 917 1035 1009 q 914 708 972 825 l 806 747 m 550 74 q 468 15 519 43 q 340 -14 416 -14 q 126 83 197 -14 q 56 357 56 180 q 151 660 56 555 q 435 764 245 764 q 539 750 477 764 l 539 926 l 428 954 l 428 1065 l 747 1076 l 747 149 l 859 121 l 859 9 l 562 0 l 550 74 m 539 576 q 431 597 494 597 q 308 538 346 597 q 271 368 271 478 q 303 207 271 261 q 404 153 335 153 q 473 170 443 153 q 522 208 504 187 q 539 232 539 229 l 539 576 z "},"Đ":{"ha":1029,"x_min":56,"x_max":953,"o":"m 160 812 l 56 854 l 56 972 l 375 979 l 513 979 q 838 857 722 979 q 953 503 953 734 q 897 235 953 349 q 736 60 840 121 q 492 0 632 0 l 56 0 l 56 118 l 160 160 l 160 433 l 65 433 l 65 586 l 160 586 l 160 812 m 542 433 l 374 433 l 374 167 l 494 167 q 663 242 604 167 q 721 496 721 318 q 666 738 721 664 q 505 812 611 812 l 374 812 l 374 586 l 542 586 l 542 433 z "},"đ":{"ha":886,"x_min":56,"x_max":859,"o":"m 859 9 l 562 0 l 550 74 q 468 15 519 43 q 340 -14 416 -14 q 126 83 197 -14 q 56 357 56 180 q 151 660 56 555 q 435 764 245 764 q 539 750 477 764 l 539 802 l 428 802 l 428 899 l 539 899 l 539 926 l 428 954 l 428 1065 l 747 1076 l 747 899 l 854 899 l 854 802 l 747 802 l 747 149 l 859 121 l 859 9 m 539 576 q 431 597 494 597 q 308 538 346 597 q 271 368 271 478 q 303 207 271 261 q 404 153 335 153 q 473 170 443 153 q 522 208 504 187 q 539 232 539 229 l 539 576 z "},"Ē":{"ha":863,"x_min":62,"x_max":787,"o":"m 663 431 l 382 431 l 382 167 l 631 167 l 663 281 l 787 281 l 787 0 l 62 0 l 62 118 l 167 160 l 167 812 l 62 854 l 62 972 l 382 979 l 771 979 l 771 711 l 646 711 l 611 812 l 382 812 l 382 583 l 663 583 l 663 431 m 664 1114 l 247 1114 l 247 1260 l 664 1260 l 664 1114 z "},"ē":{"ha":783,"x_min":49,"x_max":734,"o":"m 265 329 q 316 199 271 245 q 433 153 361 153 q 537 167 485 153 q 623 197 589 182 q 667 218 657 212 l 726 103 q 678 69 726 100 q 559 12 629 37 q 410 -14 489 -14 q 141 84 233 -14 q 49 361 49 182 q 93 573 49 481 q 221 714 138 664 q 419 764 304 764 q 653 676 572 764 q 734 437 734 589 q 731 373 734 404 q 726 334 728 342 l 265 329 m 406 597 q 313 559 349 597 q 268 458 277 521 l 519 458 q 492 559 519 521 q 406 597 464 597 m 604 897 l 187 897 l 187 1043 l 604 1043 l 604 897 z "},"Ĕ":{"ha":863,"x_min":62,"x_max":787,"o":"m 663 431 l 382 431 l 382 167 l 631 167 l 663 281 l 787 281 l 787 0 l 62 0 l 62 118 l 167 160 l 167 812 l 62 854 l 62 972 l 382 979 l 771 979 l 771 711 l 646 711 l 611 812 l 382 812 l 382 583 l 663 583 l 663 431 m 345 1307 q 353 1275 345 1300 q 387 1227 362 1250 q 452 1204 411 1204 q 518 1224 494 1204 q 549 1266 542 1244 q 557 1295 557 1287 l 677 1304 q 646 1172 677 1226 q 559 1088 614 1117 q 437 1060 504 1060 q 329 1088 378 1060 q 252 1169 281 1116 q 224 1295 224 1222 l 345 1307 z "},"ĕ":{"ha":783,"x_min":49,"x_max":734,"o":"m 265 329 q 316 199 271 245 q 433 153 361 153 q 537 167 485 153 q 623 197 589 182 q 667 218 657 212 l 726 103 q 678 69 726 100 q 559 12 629 37 q 410 -14 489 -14 q 141 84 233 -14 q 49 361 49 182 q 93 573 49 481 q 221 714 138 664 q 419 764 304 764 q 653 676 572 764 q 734 437 734 589 q 731 373 734 404 q 726 334 728 342 l 265 329 m 406 597 q 313 559 349 597 q 268 458 277 521 l 519 458 q 492 559 519 521 q 406 597 464 597 m 304 1097 q 313 1065 304 1090 q 347 1018 322 1040 q 412 995 371 995 q 478 1015 454 995 q 509 1056 502 1035 q 517 1085 517 1078 l 637 1095 q 606 962 637 1017 q 519 879 574 907 q 397 850 464 850 q 289 878 338 850 q 212 959 241 906 q 184 1085 184 1013 l 304 1097 z "},"Ė":{"ha":863,"x_min":62,"x_max":787,"o":"m 663 431 l 382 431 l 382 167 l 631 167 l 663 281 l 787 281 l 787 0 l 62 0 l 62 118 l 167 160 l 167 812 l 62 854 l 62 972 l 382 979 l 771 979 l 771 711 l 646 711 l 611 812 l 382 812 l 382 583 l 663 583 l 663 431 m 332 1177 q 363 1255 332 1225 q 435 1284 393 1284 q 509 1256 484 1284 q 535 1177 535 1227 q 505 1097 535 1126 q 432 1068 475 1068 q 358 1096 383 1068 q 332 1177 332 1124 z "},"ė":{"ha":783,"x_min":49,"x_max":734,"o":"m 265 329 q 316 199 271 245 q 433 153 361 153 q 537 167 485 153 q 623 197 589 182 q 667 218 657 212 l 726 103 q 678 69 726 100 q 559 12 629 37 q 410 -14 489 -14 q 141 84 233 -14 q 49 361 49 182 q 93 573 49 481 q 221 714 138 664 q 419 764 304 764 q 653 676 572 764 q 734 437 734 589 q 731 373 734 404 q 726 334 728 342 l 265 329 m 406 597 q 313 559 349 597 q 268 458 277 521 l 519 458 q 492 559 519 521 q 406 597 464 597 m 313 970 q 343 1048 313 1018 q 415 1078 374 1078 q 490 1049 464 1078 q 515 970 515 1021 q 486 890 515 920 q 412 861 456 861 q 338 889 363 861 q 313 970 313 917 z "},"Ę":{"ha":863,"x_min":62,"x_max":787,"o":"m 663 431 l 382 431 l 382 167 l 631 167 l 663 281 l 787 281 l 787 0 l 62 0 l 62 118 l 167 160 l 167 812 l 62 854 l 62 972 l 382 979 l 771 979 l 771 711 l 646 711 l 611 812 l 382 812 l 382 583 l 663 583 l 663 431 m 640 -153 q 655 -190 640 -176 q 692 -203 669 -203 q 726 -199 705 -203 q 751 -195 746 -196 l 775 -292 q 750 -303 770 -294 q 699 -319 730 -311 q 633 -326 667 -326 q 524 -291 567 -326 q 481 -187 481 -256 q 512 -93 481 -134 q 582 -24 543 -52 q 621 0 621 3 l 787 0 q 746 -26 787 1 q 673 -88 705 -54 q 640 -153 640 -122 z "},"ę":{"ha":776,"x_min":49,"x_max":734,"o":"m 496 -149 q 510 -188 496 -174 q 549 -203 525 -203 q 582 -199 562 -203 q 607 -195 602 -196 l 631 -292 q 606 -303 625 -294 q 554 -319 586 -311 q 489 -326 522 -326 q 379 -291 422 -326 q 336 -191 336 -256 q 447 -11 336 -100 q 410 -14 422 -14 q 141 84 233 -14 q 49 361 49 182 q 93 573 49 481 q 221 714 138 664 q 419 764 304 764 q 653 676 572 764 q 734 437 734 589 q 732 373 734 404 q 728 334 729 342 l 267 329 q 317 199 272 245 q 433 153 363 153 q 556 171 503 153 q 667 218 610 189 l 726 103 q 576 -22 656 53 q 496 -149 496 -97 m 406 597 q 314 559 350 597 q 269 458 278 521 l 519 458 q 492 559 519 521 q 406 597 464 597 z "},"Ě":{"ha":863,"x_min":62,"x_max":787,"o":"m 663 431 l 382 431 l 382 167 l 631 167 l 663 281 l 787 281 l 787 0 l 62 0 l 62 118 l 167 160 l 167 812 l 62 854 l 62 972 l 382 979 l 771 979 l 771 711 l 646 711 l 611 812 l 382 812 l 382 583 l 663 583 l 663 431 m 521 1051 l 397 1042 l 184 1246 l 261 1329 l 456 1182 l 650 1329 l 719 1246 l 521 1051 z "},"ě":{"ha":783,"x_min":49,"x_max":734,"o":"m 265 329 q 316 199 271 245 q 433 153 361 153 q 537 167 485 153 q 623 197 589 182 q 667 218 657 212 l 726 103 q 678 69 726 100 q 559 12 629 37 q 410 -14 489 -14 q 141 84 233 -14 q 49 361 49 182 q 93 573 49 481 q 221 714 138 664 q 419 764 304 764 q 653 676 572 764 q 734 437 734 589 q 731 373 734 404 q 726 334 728 342 l 265 329 m 406 597 q 313 559 349 597 q 268 458 277 521 l 519 458 q 492 559 519 521 q 406 597 464 597 m 679 1064 l 461 847 l 337 840 l 105 1064 l 180 1143 l 397 981 l 612 1145 l 679 1064 z "},"Ĝ":{"ha":1042,"x_min":77,"x_max":993,"o":"m 697 800 q 672 807 692 802 q 616 817 652 812 q 541 822 581 822 q 368 738 427 822 q 309 482 309 653 q 545 160 309 160 q 610 165 576 160 q 667 177 644 171 q 697 184 690 183 l 697 359 l 593 392 l 593 505 l 993 513 l 993 392 l 899 359 l 899 77 q 846 50 899 74 q 709 4 793 25 q 521 -17 625 -17 q 193 109 309 -17 q 77 475 77 235 q 134 753 77 636 q 297 933 192 871 q 545 996 403 996 q 691 981 620 996 q 815 949 762 966 q 868 930 868 932 l 861 681 l 732 681 l 697 800 m 453 1304 l 576 1315 l 802 1122 l 734 1030 l 525 1166 l 307 1030 l 240 1122 l 453 1304 z "},"ĝ":{"ha":847,"x_min":56,"x_max":819,"o":"m 56 -153 q 88 -62 56 -100 q 161 -4 121 -25 q 201 14 201 17 q 178 20 201 11 q 137 50 155 29 q 118 106 118 71 q 191 262 118 149 q 117 340 151 289 q 83 479 83 392 q 176 690 83 617 q 416 764 268 764 q 581 730 509 764 l 819 736 l 819 625 l 705 606 q 718 571 707 600 q 729 496 729 542 q 639 281 729 351 q 396 211 549 211 q 349 215 370 211 q 325 218 329 218 l 319 125 l 525 125 q 731 69 659 125 q 803 -90 803 14 q 705 -282 803 -210 q 414 -354 607 -354 q 147 -308 239 -354 q 56 -153 56 -262 m 410 621 q 320 588 349 621 q 292 489 292 555 q 319 387 292 424 q 403 350 346 350 q 494 383 467 350 q 521 489 521 416 q 494 588 521 555 q 410 621 467 621 m 323 -28 q 302 -41 318 -31 q 272 -72 286 -52 q 257 -118 257 -92 q 298 -185 257 -168 q 431 -201 339 -201 q 567 -179 525 -201 q 608 -107 608 -157 q 576 -45 608 -62 q 469 -28 543 -28 l 323 -28 m 353 1135 l 476 1145 l 720 922 l 652 830 l 425 997 l 192 830 l 125 922 l 353 1135 z "},"Ğ":{"ha":1042,"x_min":77,"x_max":993,"o":"m 697 800 q 672 807 692 802 q 616 817 652 812 q 541 822 581 822 q 368 738 427 822 q 309 482 309 653 q 545 160 309 160 q 610 165 576 160 q 667 177 644 171 q 697 184 690 183 l 697 359 l 593 392 l 593 505 l 993 513 l 993 392 l 899 359 l 899 77 q 846 50 899 74 q 709 4 793 25 q 521 -17 625 -17 q 193 109 309 -17 q 77 475 77 235 q 134 753 77 636 q 297 933 192 871 q 545 996 403 996 q 691 981 620 996 q 815 949 762 966 q 868 930 868 932 l 861 681 l 732 681 l 697 800 m 432 1307 q 441 1275 432 1300 q 474 1227 450 1250 q 539 1204 498 1204 q 606 1224 582 1204 q 637 1266 629 1244 q 644 1295 644 1287 l 765 1304 q 733 1172 765 1226 q 646 1088 701 1117 q 525 1060 591 1060 q 417 1088 465 1060 q 340 1169 368 1116 q 311 1295 311 1222 l 432 1307 z "},"ğ":{"ha":847,"x_min":56,"x_max":819,"o":"m 56 -153 q 88 -62 56 -100 q 161 -4 121 -25 q 201 14 201 17 q 178 20 201 11 q 137 50 155 29 q 118 106 118 71 q 191 262 118 149 q 117 340 151 289 q 83 479 83 392 q 176 690 83 617 q 416 764 268 764 q 581 730 509 764 l 819 736 l 819 625 l 705 606 q 718 571 707 600 q 729 496 729 542 q 639 281 729 351 q 396 211 549 211 q 349 215 370 211 q 325 218 329 218 l 319 125 l 525 125 q 731 69 659 125 q 803 -90 803 14 q 705 -282 803 -210 q 414 -354 607 -354 q 147 -308 239 -354 q 56 -153 56 -262 m 410 621 q 320 588 349 621 q 292 489 292 555 q 319 387 292 424 q 403 350 346 350 q 494 383 467 350 q 521 489 521 416 q 494 588 521 555 q 410 621 467 621 m 323 -28 q 302 -41 318 -31 q 272 -72 286 -52 q 257 -118 257 -92 q 298 -185 257 -168 q 431 -201 339 -201 q 567 -179 525 -201 q 608 -107 608 -157 q 576 -45 608 -62 q 469 -28 543 -28 l 323 -28 m 317 1097 q 326 1065 317 1090 q 359 1018 334 1040 q 424 995 383 995 q 490 1015 467 995 q 522 1056 514 1035 q 529 1085 529 1078 l 650 1095 q 618 962 650 1017 q 531 879 586 907 q 410 850 476 850 q 301 878 350 850 q 224 959 253 906 q 196 1085 196 1013 l 317 1097 z "},"Ġ":{"ha":1042,"x_min":77,"x_max":993,"o":"m 697 800 q 672 807 692 802 q 616 817 652 812 q 541 822 581 822 q 368 738 427 822 q 309 482 309 653 q 545 160 309 160 q 610 165 576 160 q 667 177 644 171 q 697 184 690 183 l 697 359 l 593 392 l 593 505 l 993 513 l 993 392 l 899 359 l 899 77 q 846 50 899 74 q 709 4 793 25 q 521 -17 625 -17 q 193 109 309 -17 q 77 475 77 235 q 134 753 77 636 q 297 933 192 871 q 545 996 403 996 q 691 981 620 996 q 815 949 762 966 q 868 930 868 932 l 861 681 l 732 681 l 697 800 m 429 1177 q 460 1255 429 1225 q 532 1284 490 1284 q 606 1256 581 1284 q 632 1177 632 1227 q 602 1097 632 1126 q 529 1068 572 1068 q 455 1096 480 1068 q 429 1177 429 1124 z "},"ġ":{"ha":847,"x_min":56,"x_max":819,"o":"m 56 -153 q 88 -62 56 -100 q 161 -4 121 -25 q 201 14 201 17 q 178 20 201 11 q 137 50 155 29 q 118 106 118 71 q 191 262 118 149 q 117 340 151 289 q 83 479 83 392 q 176 690 83 617 q 416 764 268 764 q 581 730 509 764 l 819 736 l 819 625 l 705 606 q 718 571 707 600 q 729 496 729 542 q 639 281 729 351 q 396 211 549 211 q 349 215 370 211 q 325 218 329 218 l 319 125 l 525 125 q 731 69 659 125 q 803 -90 803 14 q 705 -282 803 -210 q 414 -354 607 -354 q 147 -308 239 -354 q 56 -153 56 -262 m 410 621 q 320 588 349 621 q 292 489 292 555 q 319 387 292 424 q 403 350 346 350 q 494 383 467 350 q 521 489 521 416 q 494 588 521 555 q 410 621 467 621 m 323 -28 q 302 -41 318 -31 q 272 -72 286 -52 q 257 -118 257 -92 q 298 -185 257 -168 q 431 -201 339 -201 q 567 -179 525 -201 q 608 -107 608 -157 q 576 -45 608 -62 q 469 -28 543 -28 l 323 -28 m 310 970 q 340 1048 310 1018 q 412 1078 371 1078 q 487 1049 461 1078 q 513 970 513 1021 q 483 890 513 920 q 410 861 453 861 q 335 889 361 861 q 310 970 310 917 z "},"Ģ":{"ha":1042,"x_min":77,"x_max":993,"o":"m 697 800 q 672 807 692 802 q 616 817 652 812 q 541 822 581 822 q 368 738 427 822 q 309 482 309 653 q 545 160 309 160 q 610 165 576 160 q 667 177 644 171 q 697 184 690 183 l 697 359 l 593 392 l 593 505 l 993 513 l 993 392 l 899 359 l 899 77 q 846 50 899 74 q 709 4 793 25 q 521 -17 625 -17 q 193 109 309 -17 q 77 475 77 235 q 134 753 77 636 q 297 933 192 871 q 545 996 403 996 q 691 981 620 996 q 815 949 762 966 q 868 930 868 932 l 861 681 l 732 681 l 697 800 m 395 -171 q 425 -97 395 -125 q 497 -69 454 -69 q 568 -98 540 -69 q 597 -178 597 -127 q 551 -314 597 -240 q 423 -461 505 -389 l 350 -395 q 375 -365 355 -388 q 412 -315 394 -342 q 431 -275 431 -289 q 426 -253 431 -264 q 415 -231 420 -241 q 395 -171 395 -197 z "},"ģ":{"ha":847,"x_min":56,"x_max":819,"o":"m 56 -153 q 88 -62 56 -100 q 161 -4 121 -25 q 201 14 201 17 q 178 20 201 11 q 137 50 155 29 q 118 106 118 71 q 191 262 118 149 q 117 340 151 289 q 83 479 83 392 q 176 690 83 617 q 416 764 268 764 q 581 730 509 764 l 819 736 l 819 625 l 705 606 q 718 571 707 600 q 729 496 729 542 q 639 281 729 351 q 396 211 549 211 q 349 215 370 211 q 325 218 329 218 l 319 125 l 525 125 q 731 69 659 125 q 803 -90 803 14 q 705 -282 803 -210 q 414 -354 607 -354 q 147 -308 239 -354 q 56 -153 56 -262 m 410 621 q 320 588 349 621 q 292 489 292 555 q 319 387 292 424 q 403 350 346 350 q 494 383 467 350 q 521 489 521 416 q 494 588 521 555 q 410 621 467 621 m 323 -28 q 302 -41 318 -31 q 272 -72 286 -52 q 257 -118 257 -92 q 298 -185 257 -168 q 431 -201 339 -201 q 567 -179 525 -201 q 608 -107 608 -157 q 576 -45 608 -62 q 469 -28 543 -28 l 323 -28 m 366 1093 q 395 1167 366 1139 q 468 1195 425 1195 q 539 1166 511 1195 q 568 1086 568 1137 q 522 950 568 1024 q 394 803 476 876 l 321 869 q 346 899 326 876 q 383 949 365 922 q 401 989 401 975 q 396 1011 401 1000 q 386 1034 391 1023 q 366 1093 366 1067 z "},"Ĥ":{"ha":1100,"x_min":49,"x_max":1051,"o":"m 49 118 l 153 160 l 153 812 l 49 854 l 49 972 l 479 979 l 479 854 l 368 812 l 368 590 l 732 590 l 732 812 l 621 854 l 621 972 l 1051 979 l 1051 854 l 947 812 l 947 160 l 1051 118 l 1051 0 l 621 0 l 621 118 l 732 160 l 732 424 l 368 424 l 368 160 l 479 118 l 479 0 l 49 0 l 49 118 m 492 1304 l 615 1315 l 840 1122 l 773 1030 l 564 1166 l 346 1030 l 279 1122 l 492 1304 z "},"ĥ":{"ha":930,"x_min":-74,"x_max":896,"o":"m 347 669 q 451 734 390 705 q 581 764 513 764 q 743 698 686 764 q 799 514 799 632 l 799 146 l 896 111 l 896 0 l 518 0 l 518 111 l 590 144 l 590 481 q 498 591 590 592 q 431 575 464 591 q 375 541 397 558 q 347 518 353 524 l 347 146 l 421 111 l 421 0 l 28 0 l 28 111 l 139 146 l 139 926 l 28 954 l 28 1065 l 347 1076 l 347 669 m 154 1379 l 277 1390 l 521 1167 l 454 1075 l 227 1242 l -7 1075 l -74 1167 l 154 1379 z "},"Ħ":{"ha":1100,"x_min":49,"x_max":1051,"o":"m 947 771 l 1051 771 l 1051 646 l 947 646 l 947 160 l 1051 118 l 1051 0 l 625 0 l 625 118 l 732 160 l 732 410 l 368 410 l 368 160 l 475 118 l 475 0 l 49 0 l 49 118 l 153 160 l 153 646 l 49 646 l 49 771 l 153 771 l 153 812 l 49 854 l 49 972 l 475 979 l 475 857 l 368 815 l 368 771 l 732 771 l 732 815 l 625 857 l 625 972 l 1051 979 l 1051 854 l 947 812 l 947 771 m 368 646 l 368 572 l 732 572 l 732 646 l 368 646 z "},"ħ":{"ha":930,"x_min":28,"x_max":896,"o":"m 896 0 l 518 0 l 518 111 l 590 144 l 590 481 q 498 591 590 592 q 431 575 464 591 q 375 541 397 558 q 347 518 353 524 l 347 146 l 421 111 l 421 0 l 28 0 l 28 111 l 139 146 l 139 778 l 28 778 l 28 889 l 139 889 l 139 926 l 28 954 l 28 1065 l 347 1076 l 347 889 l 454 889 l 454 778 l 347 778 l 347 669 q 451 734 390 705 q 581 764 513 764 q 743 698 686 764 q 799 514 799 632 l 799 146 l 896 111 l 896 0 z "},"Ĩ":{"ha":521,"x_min":-32,"x_max":555,"o":"m -32 1133 q -9 1178 -32 1139 q 52 1252 14 1218 q 142 1286 90 1286 q 205 1278 175 1286 q 272 1253 235 1270 q 333 1230 309 1237 q 383 1222 357 1222 q 429 1235 407 1222 q 463 1262 450 1249 q 479 1280 476 1276 l 555 1222 q 529 1180 555 1218 q 461 1109 503 1141 q 368 1078 419 1078 q 309 1085 335 1078 q 241 1107 282 1092 q 185 1125 208 1119 q 135 1132 161 1132 q 86 1120 109 1132 q 51 1096 64 1108 q 35 1079 37 1083 l -32 1133 m 56 118 l 160 160 l 160 812 l 56 854 l 56 972 l 479 979 l 479 854 l 375 812 l 375 160 l 479 118 l 479 0 l 56 0 l 56 118 z "},"ĩ":{"ha":501,"x_min":-45,"x_max":501,"o":"m -45 939 q -22 984 -45 945 q 38 1058 0 1023 q 125 1092 75 1092 q 182 1083 157 1092 q 244 1057 208 1075 q 294 1036 273 1044 q 336 1028 315 1028 q 379 1041 359 1028 q 412 1068 399 1054 q 428 1086 425 1082 l 501 1022 q 478 977 501 1017 q 418 904 456 937 q 332 871 380 871 q 277 879 302 871 q 221 903 252 888 q 195 914 216 905 q 154 927 174 922 q 118 932 135 932 q 73 919 94 932 q 38 893 52 907 q 21 875 24 879 l -45 939 m 461 111 l 461 0 l 49 0 l 49 111 l 160 146 l 160 600 l 49 628 l 49 739 l 364 750 l 364 146 l 461 111 z "},"Ī":{"ha":534,"x_min":56,"x_max":479,"o":"m 56 118 l 160 160 l 160 812 l 56 854 l 56 972 l 479 979 l 479 854 l 375 812 l 375 160 l 479 118 l 479 0 l 56 0 l 56 118 m 477 1114 l 60 1114 l 60 1260 l 477 1260 l 477 1114 z "},"ī":{"ha":503,"x_min":32,"x_max":461,"o":"m 461 111 l 461 0 l 49 0 l 49 111 l 160 146 l 160 600 l 49 628 l 49 739 l 364 750 l 364 146 l 461 111 m 449 899 l 32 899 l 32 1044 l 449 1044 l 449 899 z "},"Ĭ":{"ha":534,"x_min":41,"x_max":494,"o":"m 56 118 l 160 160 l 160 812 l 56 854 l 56 972 l 479 979 l 479 854 l 375 812 l 375 160 l 479 118 l 479 0 l 56 0 l 56 118 m 161 1307 q 170 1275 161 1300 q 203 1227 179 1250 q 269 1204 228 1204 q 335 1224 311 1204 q 366 1266 359 1244 q 374 1295 374 1287 l 494 1304 q 463 1172 494 1226 q 376 1088 431 1117 q 254 1060 321 1060 q 146 1088 195 1060 q 69 1169 98 1116 q 41 1295 41 1222 l 161 1307 z "},"ĭ":{"ha":503,"x_min":22,"x_max":476,"o":"m 461 111 l 461 0 l 49 0 l 49 111 l 160 146 l 160 600 l 49 628 l 49 739 l 364 750 l 364 146 l 461 111 m 143 1097 q 152 1065 143 1090 q 185 1018 161 1040 q 250 995 210 995 q 317 1015 293 995 q 348 1056 340 1035 q 355 1085 355 1078 l 476 1095 q 444 962 476 1017 q 357 879 412 907 q 236 850 302 850 q 128 878 176 850 q 51 959 79 906 q 22 1085 22 1013 l 143 1097 z "},"Į":{"ha":521,"x_min":56,"x_max":479,"o":"m 375 160 l 479 118 l 479 0 q 336 -74 396 -36 q 277 -153 277 -113 q 291 -190 277 -176 q 328 -203 306 -203 q 362 -199 343 -203 q 387 -195 382 -196 l 411 -292 q 386 -303 406 -294 q 335 -319 367 -311 q 269 -326 302 -326 q 160 -291 203 -326 q 117 -187 117 -256 q 170 -72 117 -119 q 278 0 224 -25 l 56 0 l 56 118 l 160 160 l 160 812 l 56 854 l 56 972 l 479 979 l 479 854 l 375 812 l 375 160 z "},"į":{"ha":507,"x_min":49,"x_max":465,"o":"m 254 852 q 166 885 197 852 q 135 979 135 918 q 170 1070 135 1036 q 254 1104 205 1104 q 371 979 371 1104 q 335 887 371 921 q 254 852 300 852 m 465 0 l 461 0 q 405 -26 461 1 q 303 -88 349 -54 q 258 -153 258 -122 q 273 -190 258 -176 q 310 -203 288 -203 q 344 -199 323 -203 q 370 -195 364 -196 l 393 -292 q 368 -303 388 -294 q 317 -319 349 -311 q 252 -326 285 -326 q 142 -291 185 -326 q 98 -187 98 -256 q 136 -93 98 -134 q 220 -24 174 -52 q 267 0 267 3 l 49 0 l 49 111 l 160 146 l 160 597 l 49 632 l 49 743 l 368 750 l 368 146 l 465 111 l 465 0 z "},"İ":{"ha":534,"x_min":56,"x_max":479,"o":"m 56 118 l 160 160 l 160 812 l 56 854 l 56 972 l 479 979 l 479 854 l 375 812 l 375 160 l 479 118 l 479 0 l 56 0 l 56 118 m 160 1177 q 191 1255 160 1225 q 262 1284 221 1284 q 337 1256 311 1284 q 363 1177 363 1227 q 333 1097 363 1126 q 260 1068 303 1068 q 185 1096 211 1068 q 160 1177 160 1124 z "},"ı":{"ha":503,"x_min":49,"x_max":461,"o":"m 461 111 l 461 0 l 49 0 l 49 111 l 160 146 l 160 600 l 49 628 l 49 739 l 364 750 l 364 146 l 461 111 z "},"Ĳ":{"ha":1067,"x_min":56,"x_max":1019,"o":"m 56 118 l 160 160 l 160 812 l 56 854 l 56 972 l 479 979 l 479 854 l 375 812 l 375 160 l 479 118 l 479 0 l 56 0 l 56 118 m 915 147 q 886 -60 915 21 q 787 -181 857 -140 q 598 -222 718 -222 q 536 -218 570 -222 q 493 -212 503 -214 l 511 -69 l 577 -69 q 700 64 699 -69 l 700 812 l 595 854 l 595 972 l 1019 979 l 1019 854 l 915 812 l 915 147 z "},"ĳ":{"ha":975,"x_min":49,"x_max":878,"o":"m 135 979 q 170 1070 135 1036 q 254 1104 205 1104 q 371 979 371 1104 q 335 887 371 921 q 254 852 300 852 q 166 885 197 852 q 135 979 135 918 m 465 111 l 465 0 l 49 0 l 49 111 l 160 146 l 160 597 l 49 632 l 49 743 l 368 750 l 368 146 l 465 111 m 642 979 q 676 1069 642 1035 q 762 1104 710 1104 q 878 979 878 1104 q 844 888 878 924 q 762 852 810 852 q 673 885 705 852 q 642 979 642 918 m 570 -340 q 508 -336 542 -340 q 465 -330 474 -332 l 481 -195 l 553 -195 q 641 -160 614 -195 q 667 -57 667 -126 l 667 597 l 556 632 l 556 743 l 876 750 l 876 18 q 847 -184 876 -106 q 752 -301 819 -262 q 570 -340 685 -340 z "},"Ĵ":{"ha":533,"x_min":-41,"x_max":547,"o":"m 380 147 q 351 -60 380 21 q 253 -181 322 -140 q 64 -222 183 -222 q 2 -218 36 -222 q -41 -212 -32 -214 l -24 -69 l 43 -69 q 165 64 165 -69 l 165 812 l 61 854 l 61 972 l 485 979 l 485 854 l 380 812 l 380 147 m 199 1304 l 322 1315 l 547 1122 l 480 1030 l 271 1166 l 53 1030 l -14 1122 l 199 1304 z "},"ĵ":{"ha":462,"x_min":-70,"x_max":525,"o":"m 62 -340 q 1 -336 35 -340 q -43 -330 -33 -332 l -26 -201 l 46 -201 q 134 -168 107 -201 q 160 -64 160 -134 l 160 597 l 49 632 l 49 743 l 366 750 l 366 18 q 338 -184 366 -106 q 244 -301 310 -262 q 62 -340 178 -340 m 158 1135 l 281 1145 l 525 922 l 458 830 l 231 997 l -3 830 l -70 922 l 158 1135 z "},"Ķ":{"ha":1000,"x_min":49,"x_max":1000,"o":"m 49 118 l 153 160 l 153 815 l 49 857 l 49 972 l 472 979 l 472 857 l 368 815 l 368 576 l 463 576 l 694 972 l 951 979 l 951 857 l 819 818 l 637 515 l 896 160 l 1000 118 l 1000 0 l 576 0 l 576 118 l 660 160 l 469 424 l 368 424 l 368 160 l 472 118 l 472 0 l 49 0 l 49 118 m 403 -171 q 432 -97 403 -125 q 505 -69 461 -69 q 576 -98 547 -69 q 604 -178 604 -127 q 558 -314 604 -240 q 431 -461 513 -389 l 357 -395 q 382 -365 363 -388 q 420 -315 401 -342 q 438 -275 438 -289 q 433 -253 438 -264 q 422 -231 428 -241 q 403 -171 403 -197 z "},"ķ":{"ha":879,"x_min":28,"x_max":865,"o":"m 439 471 l 533 612 l 472 632 l 472 743 l 831 750 l 831 632 l 733 614 l 604 432 l 760 144 l 865 111 l 865 0 l 608 0 l 436 339 l 347 339 l 347 146 l 424 111 l 424 0 l 28 0 l 28 111 l 139 146 l 139 926 l 28 954 l 28 1065 l 347 1076 l 347 471 l 439 471 m 357 -171 q 386 -97 357 -125 q 458 -69 415 -69 q 530 -98 501 -69 q 558 -178 558 -127 q 512 -314 558 -240 q 385 -461 467 -389 l 311 -395 q 336 -365 317 -388 q 374 -315 355 -342 q 392 -275 392 -289 q 387 -253 392 -264 q 376 -231 382 -241 q 357 -171 357 -197 z "},"ĸ":{"ha":900,"x_min":49,"x_max":886,"o":"m 458 471 l 554 611 l 493 632 l 493 743 l 851 753 l 851 635 l 754 612 l 625 432 l 781 144 l 886 111 l 886 0 l 629 0 l 457 339 l 368 339 l 368 146 l 444 111 l 444 0 l 49 0 l 49 111 l 160 146 l 160 597 l 49 632 l 49 743 l 368 753 l 368 471 l 458 471 z "},"Ĺ":{"ha":749,"x_min":41,"x_max":736,"o":"m 604 319 l 736 319 l 736 0 l 41 0 l 41 118 l 146 160 l 146 812 l 41 854 l 41 972 l 465 979 l 465 854 l 361 812 l 361 167 l 574 167 l 604 319 m 132 1132 l 431 1328 l 511 1177 l 196 1021 l 132 1132 z "},"ĺ":{"ha":480,"x_min":28,"x_max":473,"o":"m 473 111 l 473 0 l 28 0 l 28 111 l 139 146 l 139 926 l 28 954 l 28 1065 l 349 1076 l 349 146 l 473 111 m 49 1201 l 347 1397 l 428 1246 l 113 1090 l 49 1201 z "},"Ļ":{"ha":749,"x_min":41,"x_max":736,"o":"m 604 319 l 736 319 l 736 0 l 41 0 l 41 118 l 146 160 l 146 812 l 41 854 l 41 972 l 465 979 l 465 854 l 361 812 l 361 167 l 574 167 l 604 319 m 298 -171 q 328 -97 298 -125 q 400 -69 357 -69 q 471 -98 443 -69 q 500 -178 500 -127 q 454 -314 500 -240 q 326 -461 408 -389 l 253 -395 q 278 -365 258 -388 q 315 -315 297 -342 q 334 -275 334 -289 q 329 -253 334 -264 q 318 -231 323 -241 q 298 -171 298 -197 z "},"ļ":{"ha":480,"x_min":28,"x_max":473,"o":"m 473 111 l 473 0 l 28 0 l 28 111 l 139 146 l 139 926 l 28 954 l 28 1065 l 349 1076 l 349 146 l 473 111 m 138 -171 q 168 -97 138 -125 q 240 -69 197 -69 q 311 -98 283 -69 q 340 -178 340 -127 q 294 -314 340 -240 q 166 -461 248 -389 l 93 -395 q 118 -365 98 -388 q 155 -315 137 -342 q 174 -275 174 -289 q 169 -253 174 -264 q 158 -231 163 -241 q 138 -171 138 -197 z "},"Ľ":{"ha":757,"x_min":41,"x_max":743,"o":"m 604 319 l 736 319 l 736 0 l 41 0 l 41 118 l 146 160 l 146 812 l 41 854 l 41 972 l 465 979 l 465 854 l 361 812 l 361 167 l 574 167 l 604 319 m 515 623 q 561 972 568 806 l 743 979 q 711 797 742 901 q 627 583 681 692 l 515 623 z "},"ľ":{"ha":644,"x_min":28,"x_max":659,"o":"m 428 747 q 463 901 453 833 q 473 1034 473 968 l 472 1076 l 659 1083 q 626 917 657 1009 q 536 708 595 825 l 428 747 m 473 111 l 473 0 l 28 0 l 28 111 l 139 146 l 139 926 l 28 954 l 28 1065 l 349 1076 l 349 146 l 473 111 z "},"Ŀ":{"ha":749,"x_min":41,"x_max":736,"o":"m 604 319 l 736 319 l 736 0 l 41 0 l 41 118 l 146 160 l 146 812 l 41 854 l 41 972 l 465 979 l 465 854 l 361 812 l 361 167 l 574 167 l 604 319 m 449 522 q 484 618 449 583 q 574 652 518 652 q 693 522 693 652 q 659 427 693 461 q 570 393 625 393 q 449 522 449 393 z "},"ŀ":{"ha":704,"x_min":28,"x_max":697,"o":"m 473 111 l 473 0 l 28 0 l 28 111 l 139 146 l 139 926 l 28 954 l 28 1065 l 349 1076 l 349 146 l 473 111 m 453 435 q 488 531 453 496 q 578 566 522 566 q 697 435 697 566 q 663 340 697 374 q 574 306 629 306 q 453 435 453 306 z "},"Ł":{"ha":783,"x_min":28,"x_max":770,"o":"m 629 545 l 395 440 l 395 167 l 607 167 l 637 319 l 770 319 l 770 0 l 75 0 l 75 118 l 179 160 l 179 353 l 72 306 l 28 454 l 179 521 l 179 812 l 75 854 l 75 972 l 498 979 l 498 854 l 395 812 l 395 608 l 585 693 l 629 545 z "},"ł":{"ha":598,"x_min":35,"x_max":585,"o":"m 553 711 l 585 557 l 414 482 l 414 146 l 546 111 l 546 0 l 93 0 l 93 111 l 204 146 l 204 397 l 78 342 l 35 489 l 204 564 l 204 926 l 93 954 l 93 1065 l 414 1076 l 414 650 l 553 711 z "},"Ń":{"ha":1093,"x_min":49,"x_max":1051,"o":"m 49 118 l 153 160 l 153 812 l 49 854 l 49 972 l 382 979 l 757 338 l 757 812 l 656 854 l 656 972 l 1051 979 l 1051 854 l 947 812 l 947 0 l 715 0 l 343 629 l 343 160 l 452 118 l 452 0 l 49 0 l 49 118 m 424 1132 l 722 1328 l 803 1177 l 488 1021 l 424 1132 z "},"ń":{"ha":951,"x_min":49,"x_max":917,"o":"m 353 654 q 396 686 353 657 q 496 738 440 714 q 608 761 553 761 q 764 695 708 761 q 819 514 819 629 l 819 146 l 917 111 l 917 0 l 534 0 l 534 111 l 611 146 l 611 476 q 585 556 611 525 q 517 587 559 587 q 445 570 478 587 q 390 532 412 553 q 368 509 368 511 l 368 146 l 444 111 l 444 0 l 49 0 l 49 111 l 160 146 l 160 597 l 49 632 l 49 743 l 343 750 l 353 654 m 629 1182 l 319 935 l 387 833 l 724 1038 l 629 1182 z "},"Ņ":{"ha":1093,"x_min":49,"x_max":1051,"o":"m 49 118 l 153 160 l 153 812 l 49 854 l 49 972 l 382 979 l 757 338 l 757 812 l 656 854 l 656 972 l 1051 979 l 1051 854 l 947 812 l 947 0 l 715 0 l 343 629 l 343 160 l 452 118 l 452 0 l 49 0 l 49 118 m 444 -171 q 473 -97 444 -125 q 546 -69 503 -69 q 617 -98 589 -69 q 646 -178 646 -127 q 600 -314 646 -240 q 472 -461 554 -389 l 399 -395 q 424 -365 404 -388 q 461 -315 443 -342 q 479 -275 479 -289 q 474 -253 479 -264 q 464 -231 469 -241 q 444 -171 444 -197 z "},"ņ":{"ha":951,"x_min":49,"x_max":917,"o":"m 353 654 q 396 686 353 657 q 496 738 440 714 q 608 761 553 761 q 764 695 708 761 q 819 514 819 629 l 819 146 l 917 111 l 917 0 l 534 0 l 534 111 l 611 146 l 611 476 q 585 556 611 525 q 517 587 559 587 q 445 570 478 587 q 390 532 412 553 q 368 509 368 511 l 368 146 l 444 111 l 444 0 l 49 0 l 49 111 l 160 146 l 160 597 l 49 632 l 49 743 l 343 750 l 353 654 m 358 -171 q 387 -97 358 -125 q 460 -69 416 -69 q 531 -98 503 -69 q 559 -178 559 -127 q 514 -314 559 -240 q 386 -461 468 -389 l 313 -395 q 337 -365 318 -388 q 375 -315 357 -342 q 393 -275 393 -289 q 388 -253 393 -264 q 378 -231 383 -241 q 358 -171 358 -197 z "},"Ň":{"ha":1093,"x_min":49,"x_max":1051,"o":"m 49 118 l 153 160 l 153 812 l 49 854 l 49 972 l 382 979 l 757 338 l 757 812 l 656 854 l 656 972 l 1051 979 l 1051 854 l 947 812 l 947 0 l 715 0 l 343 629 l 343 160 l 452 118 l 452 0 l 49 0 l 49 118 m 617 1051 l 493 1042 l 281 1246 l 357 1329 l 553 1182 l 746 1329 l 815 1246 l 617 1051 z "},"ň":{"ha":951,"x_min":49,"x_max":917,"o":"m 353 654 q 396 686 353 657 q 496 738 440 714 q 608 761 553 761 q 764 695 708 761 q 819 514 819 629 l 819 146 l 917 111 l 917 0 l 534 0 l 534 111 l 611 146 l 611 476 q 585 556 611 525 q 517 587 559 587 q 445 570 478 587 q 390 532 412 553 q 368 509 368 511 l 368 146 l 444 111 l 444 0 l 49 0 l 49 111 l 160 146 l 160 597 l 49 632 l 49 743 l 343 750 l 353 654 m 758 1064 l 541 847 l 416 840 l 184 1064 l 260 1143 l 476 981 l 692 1145 l 758 1064 z "},"ŉ":{"ha":951,"x_min":-46,"x_max":917,"o":"m -46 859 q -24 890 -41 868 q 17 960 16 942 q 4 996 17 970 q -5 1017 3 998 q -12 1054 -12 1035 q 19 1123 -12 1095 q 97 1152 50 1152 q 173 1120 143 1152 q 203 1042 203 1088 q 43 791 203 926 l -46 859 m 353 654 q 396 686 353 657 q 496 738 440 714 q 608 761 553 761 q 764 695 708 761 q 819 514 819 629 l 819 146 l 917 111 l 917 0 l 534 0 l 534 111 l 611 146 l 611 476 q 585 556 611 525 q 517 587 559 587 q 445 570 478 587 q 390 532 412 553 q 368 509 368 511 l 368 146 l 444 111 l 444 0 l 49 0 l 49 111 l 160 146 l 160 597 l 49 632 l 49 743 l 343 750 l 353 654 z "},"Ŋ":{"ha":1100,"x_min":49,"x_max":1051,"o":"m 947 812 l 947 147 q 918 -58 947 21 q 820 -178 889 -138 q 631 -218 751 -218 q 569 -214 603 -218 q 525 -208 534 -210 l 543 -69 l 619 -69 q 697 -57 668 -69 q 742 -18 726 -45 l 343 629 l 343 160 l 452 118 l 452 0 l 49 0 l 49 118 l 153 160 l 153 812 l 49 854 l 49 972 l 382 979 l 757 328 l 757 812 l 656 854 l 656 972 l 1051 979 l 1051 854 l 947 812 z "},"ŋ":{"ha":916,"x_min":49,"x_max":819,"o":"m 353 654 q 396 686 353 657 q 496 738 440 714 q 608 761 553 761 q 765 695 711 761 q 819 514 819 629 l 819 25 q 791 -180 819 -101 q 697 -300 764 -260 q 513 -340 631 -340 q 451 -336 485 -340 q 407 -330 416 -332 l 424 -201 l 496 -201 q 584 -164 557 -201 q 611 -56 611 -126 l 611 482 q 585 562 611 531 q 517 593 559 593 q 445 575 478 593 q 390 537 412 558 q 368 514 368 517 l 368 146 l 440 111 l 440 0 l 49 0 l 49 111 l 160 146 l 160 597 l 49 632 l 49 743 l 343 750 l 353 654 z "},"Ō":{"ha":1048,"x_min":77,"x_max":972,"o":"m 534 996 q 858 866 743 996 q 972 503 972 736 q 914 231 972 349 q 750 47 856 113 q 507 -18 644 -18 q 188 110 299 -18 q 77 482 77 237 q 132 756 77 640 q 291 934 187 872 q 534 996 395 996 m 528 822 q 366 745 419 822 q 313 489 313 668 q 361 236 313 317 q 514 155 410 155 q 679 235 623 155 q 736 496 736 315 q 685 744 736 665 q 528 822 633 822 m 747 1114 l 330 1114 l 330 1260 l 747 1260 l 747 1114 z "},"ō":{"ha":822,"x_min":49,"x_max":774,"o":"m 424 764 q 683 666 591 764 q 774 389 774 568 q 728 174 774 265 q 599 35 682 83 q 403 -14 515 -14 q 49 368 49 -14 q 95 581 49 492 q 227 716 142 669 q 424 764 311 764 m 416 597 q 301 547 338 597 q 264 375 264 496 q 299 206 264 260 q 410 153 334 153 q 522 206 486 153 q 558 382 558 260 q 524 544 558 490 q 416 597 490 597 m 632 899 l 215 899 l 215 1044 l 632 1044 l 632 899 z "},"Ŏ":{"ha":1048,"x_min":77,"x_max":972,"o":"m 534 996 q 858 866 743 996 q 972 503 972 736 q 914 231 972 349 q 750 47 856 113 q 507 -18 644 -18 q 188 110 299 -18 q 77 482 77 237 q 132 756 77 640 q 291 934 187 872 q 534 996 395 996 m 528 822 q 366 745 419 822 q 313 489 313 668 q 361 236 313 317 q 514 155 410 155 q 679 235 623 155 q 736 496 736 315 q 685 744 736 665 q 528 822 633 822 m 418 1307 q 427 1275 418 1300 q 460 1227 436 1250 q 526 1204 485 1204 q 592 1224 568 1204 q 623 1266 616 1244 q 631 1295 631 1287 l 751 1304 q 720 1172 751 1226 q 633 1088 688 1117 q 511 1060 578 1060 q 403 1088 452 1060 q 326 1169 355 1116 q 298 1295 298 1222 l 418 1307 z "},"ŏ":{"ha":822,"x_min":49,"x_max":774,"o":"m 424 764 q 683 666 591 764 q 774 389 774 568 q 728 174 774 265 q 599 35 682 83 q 403 -14 515 -14 q 49 368 49 -14 q 95 581 49 492 q 227 716 142 669 q 424 764 311 764 m 416 597 q 301 547 338 597 q 264 375 264 496 q 299 206 264 260 q 410 153 334 153 q 522 206 486 153 q 558 382 558 260 q 524 544 558 490 q 416 597 490 597 m 307 1097 q 316 1065 307 1090 q 349 1018 325 1040 q 414 995 374 995 q 481 1015 457 995 q 512 1056 505 1035 q 519 1085 519 1078 l 640 1095 q 608 962 640 1017 q 522 879 576 907 q 400 850 467 850 q 292 878 340 850 q 215 959 243 906 q 186 1085 186 1013 l 307 1097 z "},"Ő":{"ha":1048,"x_min":77,"x_max":972,"o":"m 534 996 q 858 866 743 996 q 972 503 972 736 q 914 231 972 349 q 750 47 856 113 q 507 -18 644 -18 q 188 110 299 -18 q 77 482 77 237 q 132 756 77 640 q 291 934 187 872 q 534 996 395 996 m 528 822 q 366 745 419 822 q 313 489 313 668 q 361 236 313 317 q 514 155 410 155 q 679 235 623 155 q 736 496 736 315 q 685 744 736 665 q 528 822 633 822 m 493 1371 l 606 1255 l 335 1021 l 248 1107 l 493 1371 m 806 1371 l 918 1255 l 648 1021 l 560 1107 l 806 1371 z "},"ő":{"ha":822,"x_min":49,"x_max":819,"o":"m 424 764 q 683 666 591 764 q 774 389 774 568 q 728 174 774 265 q 599 35 682 83 q 403 -14 515 -14 q 49 368 49 -14 q 95 581 49 492 q 227 716 142 669 q 424 764 311 764 m 416 597 q 301 547 338 597 q 264 375 264 496 q 299 206 264 260 q 410 153 334 153 q 522 206 486 153 q 558 382 558 260 q 524 544 558 490 q 416 597 490 597 m 394 1179 l 507 1064 l 236 829 l 149 916 l 394 1179 m 707 1179 l 819 1064 l 549 829 l 461 916 l 707 1179 z "},"Œ":{"ha":1339,"x_min":77,"x_max":1263,"o":"m 1135 278 l 1263 278 l 1263 0 l 762 0 q 650 -7 720 0 q 507 -14 532 -14 q 187 113 298 -14 q 77 482 77 239 q 133 755 77 640 q 292 932 189 871 q 534 993 395 993 q 605 990 565 993 q 663 986 646 987 q 781 979 732 979 l 1246 979 l 1246 708 l 1117 708 l 1082 812 l 857 812 l 857 583 l 1137 583 l 1137 431 l 857 431 l 857 167 l 1103 167 l 1135 278 m 642 812 q 598 816 627 814 q 543 818 570 818 q 413 789 464 818 q 336 687 363 760 q 310 489 310 615 q 360 239 310 318 q 518 160 411 160 q 607 164 532 160 l 642 167 l 642 812 z "},"œ":{"ha":1289,"x_min":49,"x_max":1247,"o":"m 421 764 q 569 732 503 764 q 679 644 635 701 q 789 732 724 701 q 935 764 854 764 q 1166 676 1084 764 q 1247 437 1247 589 q 1244 373 1247 404 q 1239 334 1240 342 l 778 329 q 828 199 783 245 q 945 153 873 153 q 1059 169 1010 153 q 1139 199 1108 184 q 1178 218 1169 214 l 1238 103 q 1190 69 1238 100 q 1072 12 1141 37 q 925 -14 1003 -14 q 664 107 751 -14 q 550 18 616 50 q 400 -14 484 -14 q 139 80 229 -14 q 49 368 49 174 q 95 581 49 492 q 226 716 142 669 q 421 764 310 764 m 416 597 q 301 547 339 597 q 264 375 264 496 q 299 207 264 261 q 410 153 335 153 q 525 206 488 153 q 562 382 562 260 q 527 544 562 490 q 416 597 492 597 m 917 597 q 825 559 861 597 q 781 458 789 521 l 1031 458 q 1003 559 1031 521 q 917 597 975 597 z "},"Ŕ":{"ha":937,"x_min":49,"x_max":924,"o":"m 49 118 l 153 160 l 153 812 l 49 854 l 49 972 l 368 979 l 473 979 q 741 908 647 979 q 835 696 835 836 q 793 536 835 602 q 677 433 751 471 q 736 343 712 393 l 829 153 l 924 118 l 924 0 l 667 0 l 550 257 q 508 341 524 317 q 474 375 493 366 q 416 385 454 385 l 368 385 l 368 160 l 468 118 l 468 0 l 49 0 l 49 118 m 447 530 q 575 569 529 530 q 621 676 621 607 q 583 774 621 736 q 482 812 546 812 l 368 812 l 368 530 l 447 530 m 285 1132 l 583 1328 l 664 1177 l 349 1021 l 285 1132 z "},"ŕ":{"ha":682,"x_min":49,"x_max":675,"o":"m 353 654 q 385 686 353 657 q 461 740 418 715 q 546 764 504 764 q 608 758 579 764 q 654 747 637 753 q 675 739 671 741 l 664 472 l 539 472 l 518 590 q 449 573 482 590 q 392 535 415 555 q 368 513 368 514 l 368 146 l 507 111 l 507 0 l 49 0 l 49 111 l 160 146 l 160 597 l 49 632 l 49 743 l 340 750 l 353 654 m 471 1182 l 161 935 l 229 833 l 566 1038 l 471 1182 z "},"Ŗ":{"ha":937,"x_min":49,"x_max":924,"o":"m 49 118 l 153 160 l 153 812 l 49 854 l 49 972 l 368 979 l 473 979 q 741 908 647 979 q 835 696 835 836 q 793 536 835 602 q 677 433 751 471 q 736 343 712 393 l 829 153 l 924 118 l 924 0 l 667 0 l 550 257 q 508 341 524 317 q 474 375 493 366 q 416 385 454 385 l 368 385 l 368 160 l 468 118 l 468 0 l 49 0 l 49 118 m 447 530 q 575 569 529 530 q 621 676 621 607 q 583 774 621 736 q 482 812 546 812 l 368 812 l 368 530 l 447 530 m 403 -171 q 432 -97 403 -125 q 505 -69 461 -69 q 576 -98 547 -69 q 604 -178 604 -127 q 558 -314 604 -240 q 431 -461 513 -389 l 357 -395 q 382 -365 363 -388 q 420 -315 401 -342 q 438 -275 438 -289 q 433 -253 438 -264 q 422 -231 428 -241 q 403 -171 403 -197 z "},"ŗ":{"ha":682,"x_min":49,"x_max":675,"o":"m 353 654 q 385 686 353 657 q 461 740 418 715 q 546 764 504 764 q 608 758 579 764 q 654 747 637 753 q 675 739 671 741 l 664 472 l 539 472 l 518 590 q 449 573 482 590 q 392 535 415 555 q 368 513 368 514 l 368 146 l 507 111 l 507 0 l 49 0 l 49 111 l 160 146 l 160 597 l 49 632 l 49 743 l 340 750 l 353 654 m 161 -171 q 190 -97 161 -125 q 262 -69 219 -69 q 334 -98 305 -69 q 362 -178 362 -127 q 316 -314 362 -240 q 189 -461 271 -389 l 115 -395 q 140 -365 121 -388 q 178 -315 159 -342 q 196 -275 196 -289 q 191 -253 196 -264 q 180 -231 186 -241 q 161 -171 161 -197 z "},"Ř":{"ha":937,"x_min":49,"x_max":924,"o":"m 49 118 l 153 160 l 153 812 l 49 854 l 49 972 l 368 979 l 473 979 q 741 908 647 979 q 835 696 835 836 q 793 536 835 602 q 677 433 751 471 q 736 343 712 393 l 829 153 l 924 118 l 924 0 l 667 0 l 550 257 q 508 341 524 317 q 474 375 493 366 q 416 385 454 385 l 368 385 l 368 160 l 468 118 l 468 0 l 49 0 l 49 118 m 447 530 q 575 569 529 530 q 621 676 621 607 q 583 774 621 736 q 482 812 546 812 l 368 812 l 368 530 l 447 530 m 503 1051 l 379 1042 l 167 1246 l 243 1329 l 439 1182 l 632 1329 l 701 1246 l 503 1051 z "},"ř":{"ha":682,"x_min":49,"x_max":675,"o":"m 353 654 q 385 686 353 657 q 461 740 418 715 q 546 764 504 764 q 608 758 579 764 q 654 747 637 753 q 675 739 671 741 l 664 472 l 539 472 l 518 590 q 449 573 482 590 q 392 535 415 555 q 368 513 368 514 l 368 146 l 507 111 l 507 0 l 49 0 l 49 111 l 160 146 l 160 597 l 49 632 l 49 743 l 340 750 l 353 654 m 643 1064 l 425 847 l 301 840 l 69 1064 l 144 1143 l 361 981 l 576 1145 l 643 1064 z "},"Ś":{"ha":840,"x_min":83,"x_max":771,"o":"m 249 184 q 271 175 253 182 q 319 162 289 168 q 385 155 349 155 q 504 185 455 155 q 553 268 553 215 q 531 321 553 300 q 477 358 510 343 q 382 395 444 372 q 231 458 290 427 q 127 548 171 489 q 83 701 83 607 q 129 861 83 794 q 255 962 175 928 q 436 996 335 996 q 573 983 505 996 q 686 958 642 971 q 742 940 730 945 l 734 688 l 607 688 l 572 806 q 549 812 567 807 q 503 822 530 817 q 450 827 476 827 q 341 799 380 827 q 302 728 302 771 q 344 657 302 683 q 476 600 386 632 q 627 538 568 568 q 729 450 686 507 q 771 304 771 393 q 722 130 771 203 q 589 19 673 57 q 396 -18 504 -18 q 258 -6 327 -18 q 144 18 189 5 q 86 35 98 31 l 86 301 l 228 301 l 249 184 m 264 1132 l 562 1328 l 643 1177 l 328 1021 l 264 1132 z "},"ś":{"ha":676,"x_min":49,"x_max":628,"o":"m 189 153 q 226 145 189 151 q 306 139 262 139 q 419 207 420 139 q 387 256 419 237 q 286 298 355 275 q 165 347 212 323 q 83 415 118 371 q 49 526 49 458 q 131 706 49 648 q 335 764 212 764 q 448 755 391 764 q 544 735 505 746 q 593 722 583 725 l 587 514 l 469 514 l 449 597 q 418 605 449 599 q 353 611 387 611 q 282 593 307 611 q 257 541 257 575 q 289 492 257 510 q 390 453 321 473 q 512 408 464 429 q 594 344 559 386 q 628 236 628 302 q 541 52 628 118 q 309 -14 454 -14 q 193 -7 250 -14 q 99 7 136 0 q 53 17 62 14 l 53 243 l 178 243 l 189 153 m 456 1182 l 146 935 l 214 833 l 550 1038 l 456 1182 z "},"Ŝ":{"ha":840,"x_min":83,"x_max":771,"o":"m 249 184 q 271 175 253 182 q 319 162 289 168 q 385 155 349 155 q 504 185 455 155 q 553 268 553 215 q 531 321 553 300 q 477 358 510 343 q 382 395 444 372 q 231 458 290 427 q 127 548 171 489 q 83 701 83 607 q 129 861 83 794 q 255 962 175 928 q 436 996 335 996 q 573 983 505 996 q 686 958 642 971 q 742 940 730 945 l 734 688 l 607 688 l 572 806 q 549 812 567 807 q 503 822 530 817 q 450 827 476 827 q 341 799 380 827 q 302 728 302 771 q 344 657 302 683 q 476 600 386 632 q 627 538 568 568 q 729 450 686 507 q 771 304 771 393 q 722 130 771 203 q 589 19 673 57 q 396 -18 504 -18 q 258 -6 327 -18 q 144 18 189 5 q 86 35 98 31 l 86 301 l 228 301 l 249 184 m 353 1304 l 476 1315 l 701 1122 l 634 1030 l 425 1166 l 207 1030 l 140 1122 l 353 1304 z "},"ŝ":{"ha":676,"x_min":39,"x_max":633,"o":"m 189 153 q 226 145 189 151 q 306 139 262 139 q 419 207 420 139 q 387 256 419 237 q 286 298 355 275 q 165 347 212 323 q 83 415 118 371 q 49 526 49 458 q 131 706 49 648 q 335 764 212 764 q 448 755 391 764 q 544 735 505 746 q 593 722 583 725 l 587 514 l 469 514 l 449 597 q 418 605 449 599 q 353 611 387 611 q 282 593 307 611 q 257 541 257 575 q 289 492 257 510 q 390 453 321 473 q 512 408 464 429 q 594 344 559 386 q 628 236 628 302 q 541 52 628 118 q 309 -14 454 -14 q 193 -7 250 -14 q 99 7 136 0 q 53 17 62 14 l 53 243 l 178 243 l 189 153 m 267 1135 l 390 1145 l 633 922 l 566 830 l 339 997 l 106 830 l 39 922 l 267 1135 z "},"Ş":{"ha":840,"x_min":83,"x_max":771,"o":"m 771 304 q 688 87 771 170 q 468 -14 606 4 l 468 -60 q 555 -103 524 -71 q 587 -183 587 -135 q 539 -284 587 -245 q 412 -323 490 -323 q 333 -314 371 -323 q 272 -294 296 -304 q 243 -279 249 -283 l 286 -203 q 306 -213 290 -205 q 347 -226 322 -220 q 395 -232 371 -232 q 445 -217 427 -232 q 464 -179 464 -203 q 433 -135 464 -150 q 350 -119 403 -119 l 350 -17 q 230 -2 289 -13 q 133 21 171 9 q 86 35 96 32 l 86 301 l 228 301 l 249 184 q 271 175 253 182 q 319 162 289 168 q 385 155 349 155 q 504 185 455 155 q 553 268 553 215 q 531 321 553 300 q 477 358 510 343 q 382 395 444 372 q 231 458 290 427 q 127 548 171 489 q 83 701 83 607 q 129 861 83 794 q 255 962 175 928 q 436 996 335 996 q 573 983 505 996 q 686 958 642 971 q 742 940 730 945 l 734 688 l 607 688 l 572 806 q 549 812 567 807 q 503 822 530 817 q 450 827 476 827 q 341 799 380 827 q 302 728 302 771 q 344 657 302 683 q 476 600 386 632 q 627 538 568 568 q 729 450 686 507 q 771 304 771 393 z "},"ş":{"ha":676,"x_min":49,"x_max":628,"o":"m 628 236 q 558 67 628 132 q 371 -9 489 3 l 371 -60 q 458 -103 427 -71 q 490 -183 490 -135 q 442 -284 490 -245 q 315 -323 393 -323 q 236 -314 274 -323 q 175 -294 199 -304 q 146 -279 151 -283 l 189 -203 q 209 -213 193 -205 q 249 -226 225 -220 q 297 -232 273 -232 q 348 -217 329 -232 q 367 -179 367 -203 q 336 -135 367 -150 q 253 -119 306 -119 l 253 -12 q 119 4 185 -8 q 53 17 53 16 l 53 243 l 178 243 l 189 153 q 226 145 189 151 q 306 139 262 139 q 419 207 420 139 q 387 256 419 237 q 286 298 355 275 q 165 347 212 323 q 83 415 118 371 q 49 526 49 458 q 131 706 49 648 q 335 764 212 764 q 448 755 391 764 q 544 735 505 746 q 593 722 583 725 l 587 514 l 469 514 l 449 597 q 418 605 449 599 q 353 611 387 611 q 282 593 307 611 q 257 541 257 575 q 289 492 257 510 q 390 453 321 473 q 512 408 464 429 q 594 344 559 386 q 628 236 628 302 z "},"Š":{"ha":840,"x_min":83,"x_max":771,"o":"m 249 184 q 271 175 253 182 q 319 162 289 168 q 385 155 349 155 q 504 185 455 155 q 553 268 553 215 q 531 321 553 300 q 477 358 510 343 q 382 395 444 372 q 231 458 290 427 q 127 548 171 489 q 83 701 83 607 q 129 861 83 794 q 255 962 175 928 q 436 996 335 996 q 573 983 505 996 q 686 958 642 971 q 742 940 730 945 l 734 688 l 607 688 l 572 806 q 549 812 567 807 q 503 822 530 817 q 450 827 476 827 q 341 799 380 827 q 302 728 302 771 q 344 657 302 683 q 476 600 386 632 q 627 538 568 568 q 729 450 686 507 q 771 304 771 393 q 722 130 771 203 q 589 19 673 57 q 396 -18 504 -18 q 258 -6 327 -18 q 144 18 189 5 q 86 35 98 31 l 86 301 l 228 301 l 249 184 m 490 1051 l 366 1042 l 154 1246 l 231 1329 l 426 1182 l 619 1329 l 688 1246 l 490 1051 z "},"š":{"ha":676,"x_min":49,"x_max":635,"o":"m 189 153 q 226 145 189 151 q 306 139 262 139 q 419 207 420 139 q 387 256 419 237 q 286 298 355 275 q 165 347 212 323 q 83 415 118 371 q 49 526 49 458 q 131 706 49 648 q 335 764 212 764 q 448 755 391 764 q 544 735 505 746 q 593 722 583 725 l 587 514 l 469 514 l 449 597 q 418 605 449 599 q 353 611 387 611 q 282 593 307 611 q 257 541 257 575 q 289 492 257 510 q 390 453 321 473 q 512 408 464 429 q 594 344 559 386 q 628 236 628 302 q 541 52 628 118 q 309 -14 454 -14 q 193 -7 250 -14 q 99 7 136 0 q 53 17 62 14 l 53 243 l 178 243 l 189 153 m 635 1064 l 417 847 l 293 840 l 61 1064 l 136 1143 l 353 981 l 568 1145 l 635 1064 z "},"Ţ":{"ha":833,"x_min":14,"x_max":819,"o":"m 309 812 l 176 812 l 142 681 l 14 681 l 14 979 l 819 979 l 819 681 l 690 681 l 656 812 l 524 812 l 524 160 l 656 118 l 656 0 l 176 0 l 176 118 l 309 160 l 309 812 m 395 -232 q 445 -217 427 -232 q 464 -179 464 -203 q 433 -135 464 -150 q 350 -119 403 -119 l 350 0 l 468 0 l 468 -60 q 555 -103 524 -71 q 587 -183 587 -135 q 539 -284 587 -245 q 412 -323 490 -323 q 333 -314 371 -323 q 272 -294 296 -304 q 243 -279 249 -283 l 286 -203 q 306 -213 290 -205 q 347 -226 322 -220 q 395 -232 371 -232 z "},"ţ":{"ha":605,"x_min":21,"x_max":591,"o":"m 397 -60 q 485 -103 453 -71 q 517 -183 517 -135 q 468 -284 517 -245 q 342 -323 419 -323 q 263 -314 300 -323 q 201 -294 225 -304 q 172 -279 178 -283 l 215 -203 q 235 -213 219 -205 q 276 -226 252 -220 q 323 -232 300 -232 q 374 -217 355 -232 q 393 -179 393 -203 q 362 -135 393 -150 q 279 -119 332 -119 l 279 -3 q 180 85 210 20 q 150 257 150 151 l 150 576 l 21 576 l 21 711 l 150 729 l 150 921 l 358 958 l 358 729 l 553 729 l 553 576 l 358 576 l 358 271 q 373 174 358 201 q 432 146 389 146 q 490 157 457 146 q 542 178 524 168 l 591 72 q 397 -11 493 0 l 397 -60 z "},"Ť":{"ha":833,"x_min":14,"x_max":819,"o":"m 309 812 l 176 812 l 142 681 l 14 681 l 14 979 l 819 979 l 819 681 l 690 681 l 656 812 l 524 812 l 524 160 l 656 118 l 656 0 l 176 0 l 176 118 l 309 160 l 309 812 m 489 1051 l 365 1042 l 153 1246 l 229 1329 l 425 1182 l 618 1329 l 687 1246 l 489 1051 z "},"ť":{"ha":637,"x_min":21,"x_max":659,"o":"m 428 817 q 463 970 453 903 q 473 1103 473 1038 l 472 1146 l 659 1153 q 626 987 657 1079 q 536 778 595 895 l 428 817 m 355 -14 q 196 56 243 -14 q 150 257 150 126 l 150 576 l 21 576 l 21 711 l 150 729 l 150 921 l 358 958 l 358 729 l 553 729 l 553 576 l 358 576 l 358 271 q 373 174 358 201 q 432 146 389 146 q 490 157 457 146 q 542 178 524 168 l 591 72 q 355 -14 475 -14 z "},"Ŧ":{"ha":833,"x_min":14,"x_max":819,"o":"m 524 549 l 711 549 l 711 416 l 524 416 l 524 160 l 656 118 l 656 0 l 176 0 l 176 118 l 309 160 l 309 416 l 121 416 l 121 549 l 309 549 l 309 812 l 176 812 l 142 681 l 14 681 l 14 979 l 819 979 l 819 681 l 690 681 l 656 812 l 524 812 l 524 549 z "},"ŧ":{"ha":619,"x_min":28,"x_max":599,"o":"m 599 72 q 363 -14 482 -14 q 203 56 250 -14 q 157 257 157 126 l 157 357 l 31 357 l 31 468 l 157 468 l 157 576 l 28 576 l 28 711 l 157 729 l 157 921 l 366 958 l 366 729 l 559 729 l 559 576 l 366 576 l 366 468 l 558 468 l 558 357 l 366 357 l 366 271 q 381 174 366 201 q 439 146 396 146 q 497 157 464 146 q 549 178 530 168 l 599 72 z "},"Ũ":{"ha":1095,"x_min":49,"x_max":1047,"o":"m 253 1133 q 276 1178 253 1139 q 337 1252 298 1218 q 427 1286 375 1286 q 490 1278 460 1286 q 557 1253 519 1270 q 618 1230 594 1237 q 668 1222 642 1222 q 713 1235 692 1222 q 748 1262 734 1249 q 764 1280 761 1276 l 840 1222 q 814 1180 840 1218 q 746 1109 787 1141 q 653 1078 704 1078 q 593 1085 620 1078 q 526 1107 567 1092 q 469 1125 493 1119 q 419 1132 446 1132 q 371 1120 393 1132 q 335 1096 349 1108 q 319 1079 322 1083 l 253 1133 m 367 375 q 407 203 367 254 q 549 153 447 153 q 660 178 621 153 q 713 256 699 204 q 728 396 728 309 l 728 812 l 619 854 l 619 972 l 1047 979 l 1047 854 l 943 812 l 943 396 q 851 85 943 188 q 542 -17 758 -17 q 243 78 335 -17 q 151 375 151 172 l 151 812 l 49 854 l 49 972 l 475 979 l 475 854 l 367 812 l 367 375 z "},"ũ":{"ha":929,"x_min":21,"x_max":901,"o":"m 21 743 l 340 750 l 340 271 q 360 186 340 212 q 425 160 379 160 q 500 177 465 160 q 558 213 534 193 q 582 235 582 232 l 582 597 l 471 632 l 471 743 l 790 750 l 790 146 l 901 118 l 901 9 l 608 0 l 595 97 q 556 65 595 94 q 464 11 518 36 q 351 -14 410 -14 q 190 52 247 -14 q 132 235 132 118 l 132 597 l 21 632 l 21 743 m 142 939 q 164 984 142 945 q 225 1058 187 1023 q 315 1092 264 1092 q 377 1083 349 1092 q 440 1059 406 1075 q 497 1036 475 1043 q 546 1028 519 1028 q 591 1041 570 1028 q 626 1068 612 1054 q 642 1086 639 1082 l 715 1022 q 692 977 715 1017 q 630 904 669 937 q 542 871 591 871 q 482 879 509 871 q 415 903 456 886 q 360 924 385 916 q 309 932 336 932 q 260 919 282 932 q 223 893 237 907 q 207 875 210 879 l 142 939 z "},"Ū":{"ha":1095,"x_min":49,"x_max":1047,"o":"m 367 375 q 407 203 367 254 q 549 153 447 153 q 660 178 621 153 q 713 256 699 204 q 728 396 728 309 l 728 812 l 619 854 l 619 972 l 1047 979 l 1047 854 l 943 812 l 943 396 q 851 85 943 188 q 542 -17 758 -17 q 243 78 335 -17 q 151 375 151 172 l 151 812 l 49 854 l 49 972 l 475 979 l 475 854 l 367 812 l 367 375 m 762 1114 l 345 1114 l 345 1260 l 762 1260 l 762 1114 z "},"ū":{"ha":929,"x_min":21,"x_max":901,"o":"m 21 743 l 340 750 l 340 271 q 360 186 340 212 q 425 160 379 160 q 500 177 465 160 q 558 213 534 193 q 582 235 582 232 l 582 597 l 471 632 l 471 743 l 790 750 l 790 146 l 901 118 l 901 9 l 608 0 l 595 97 q 556 65 595 94 q 464 11 518 36 q 351 -14 410 -14 q 190 52 247 -14 q 132 235 132 118 l 132 597 l 21 632 l 21 743 m 644 899 l 227 899 l 227 1044 l 644 1044 l 644 899 z "},"Ŭ":{"ha":1095,"x_min":49,"x_max":1047,"o":"m 367 375 q 407 203 367 254 q 549 153 447 153 q 660 178 621 153 q 713 256 699 204 q 728 396 728 309 l 728 812 l 619 854 l 619 972 l 1047 979 l 1047 854 l 943 812 l 943 396 q 851 85 943 188 q 542 -17 758 -17 q 243 78 335 -17 q 151 375 151 172 l 151 812 l 49 854 l 49 972 l 475 979 l 475 854 l 367 812 l 367 375 m 449 1307 q 458 1275 449 1300 q 491 1227 467 1250 q 556 1204 515 1204 q 623 1224 599 1204 q 654 1266 646 1244 q 661 1295 661 1287 l 782 1304 q 750 1172 782 1226 q 663 1088 718 1117 q 542 1060 608 1060 q 434 1088 482 1060 q 357 1169 385 1116 q 328 1295 328 1222 l 449 1307 z "},"ŭ":{"ha":929,"x_min":21,"x_max":901,"o":"m 21 743 l 340 750 l 340 271 q 360 186 340 212 q 425 160 379 160 q 500 177 465 160 q 558 213 534 193 q 582 235 582 232 l 582 597 l 471 632 l 471 743 l 790 750 l 790 146 l 901 118 l 901 9 l 608 0 l 595 97 q 556 65 595 94 q 464 11 518 36 q 351 -14 410 -14 q 190 52 247 -14 q 132 235 132 118 l 132 597 l 21 632 l 21 743 m 335 1097 q 344 1065 335 1090 q 377 1018 353 1040 q 442 995 401 995 q 509 1015 485 995 q 540 1056 532 1035 q 547 1085 547 1078 l 668 1095 q 636 962 668 1017 q 549 879 604 907 q 428 850 494 850 q 320 878 368 850 q 243 959 271 906 q 214 1085 214 1013 l 335 1097 z "},"Ů":{"ha":1095,"x_min":49,"x_max":1047,"o":"m 367 375 q 407 203 367 254 q 549 153 447 153 q 660 178 621 153 q 713 256 699 204 q 728 396 728 309 l 728 812 l 619 854 l 619 972 l 1047 979 l 1047 854 l 943 812 l 943 396 q 851 85 943 188 q 542 -17 758 -17 q 243 78 335 -17 q 151 375 151 172 l 151 812 l 49 854 l 49 972 l 475 979 l 475 854 l 367 812 l 367 375 m 357 1198 q 383 1296 357 1253 q 453 1360 410 1338 q 543 1382 496 1382 q 633 1361 591 1382 q 701 1301 675 1341 q 728 1206 728 1261 q 701 1108 728 1150 q 632 1044 675 1067 q 543 1021 589 1021 q 453 1042 496 1021 q 383 1102 410 1063 q 357 1198 357 1142 m 475 1202 q 493 1143 475 1163 q 543 1122 510 1122 q 591 1143 572 1122 q 610 1203 610 1164 q 592 1262 610 1242 q 543 1282 575 1282 q 494 1261 513 1282 q 475 1202 475 1240 z "},"ů":{"ha":929,"x_min":21,"x_max":901,"o":"m 21 743 l 340 750 l 340 271 q 360 186 340 212 q 425 160 379 160 q 500 177 465 160 q 558 213 534 193 q 582 235 582 232 l 582 597 l 471 632 l 471 743 l 790 750 l 790 146 l 901 118 l 901 9 l 608 0 l 595 97 q 556 65 595 94 q 464 11 518 36 q 351 -14 410 -14 q 190 52 247 -14 q 132 235 132 118 l 132 597 l 21 632 l 21 743 m 248 1006 q 275 1104 248 1061 q 344 1168 301 1146 q 435 1190 387 1190 q 524 1170 482 1190 q 593 1109 566 1149 q 619 1014 619 1069 q 593 917 619 958 q 523 852 566 875 q 435 829 480 829 q 344 850 387 829 q 275 910 301 871 q 248 1006 248 950 m 367 1010 q 384 951 367 971 q 435 930 401 930 q 483 951 464 930 q 501 1011 501 972 q 484 1070 501 1050 q 435 1090 467 1090 q 386 1069 404 1090 q 367 1010 367 1048 z "},"Ű":{"ha":1095,"x_min":49,"x_max":1047,"o":"m 367 375 q 407 203 367 254 q 549 153 447 153 q 660 178 621 153 q 713 256 699 204 q 728 396 728 309 l 728 812 l 619 854 l 619 972 l 1047 979 l 1047 854 l 943 812 l 943 396 q 851 85 943 188 q 542 -17 758 -17 q 243 78 335 -17 q 151 375 151 172 l 151 812 l 49 854 l 49 972 l 475 979 l 475 854 l 367 812 l 367 375 m 509 1371 l 622 1255 l 351 1021 l 264 1107 l 509 1371 m 822 1371 l 935 1255 l 664 1021 l 576 1107 l 822 1371 z "},"ű":{"ha":929,"x_min":21,"x_max":901,"o":"m 21 743 l 340 750 l 340 271 q 360 186 340 212 q 425 160 379 160 q 500 177 465 160 q 558 213 534 193 q 582 235 582 232 l 582 597 l 471 632 l 471 743 l 790 750 l 790 146 l 901 118 l 901 9 l 608 0 l 595 97 q 556 65 595 94 q 464 11 518 36 q 351 -14 410 -14 q 190 52 247 -14 q 132 235 132 118 l 132 597 l 21 632 l 21 743 m 378 1179 l 490 1064 l 220 829 l 132 916 l 378 1179 m 690 1179 l 803 1064 l 532 829 l 445 916 l 690 1179 z "},"Ų":{"ha":1090,"x_min":45,"x_max":1042,"o":"m 937 812 l 937 396 q 893 159 937 245 q 741 17 848 74 q 551 -153 551 -83 q 566 -190 551 -176 q 603 -203 581 -203 q 637 -199 616 -203 q 663 -195 657 -196 l 686 -292 q 661 -303 681 -294 q 610 -319 642 -311 q 545 -326 578 -326 q 435 -291 478 -326 q 392 -187 392 -256 q 428 -88 392 -132 q 509 -16 464 -45 q 238 80 328 -16 q 149 375 149 175 l 149 812 l 45 854 l 45 972 l 472 979 l 472 854 l 364 812 l 364 375 q 404 203 364 254 q 545 153 444 153 q 655 178 616 153 q 708 256 693 204 q 722 396 722 309 l 722 812 l 614 854 l 614 972 l 1042 979 l 1042 854 l 937 812 z "},"ų":{"ha":913,"x_min":21,"x_max":901,"o":"m 901 9 q 856 -19 901 11 q 773 -85 810 -49 q 737 -153 737 -121 q 752 -190 737 -176 q 790 -203 766 -203 q 824 -199 804 -203 q 850 -195 844 -196 l 873 -292 q 848 -303 868 -294 q 796 -319 828 -311 q 730 -326 764 -326 q 622 -291 665 -326 q 578 -187 578 -256 q 605 -99 578 -140 q 666 -32 632 -58 q 722 4 700 -5 l 608 0 l 595 97 q 556 65 595 94 q 464 11 518 36 q 351 -14 410 -14 q 190 52 247 -14 q 132 235 132 118 l 132 597 l 21 632 l 21 743 l 340 750 l 340 271 q 360 186 340 212 q 425 160 379 160 q 500 177 465 160 q 558 213 534 193 q 582 235 582 232 l 582 597 l 471 632 l 471 743 l 790 750 l 790 146 l 901 118 l 901 9 z "},"Ŵ":{"ha":1437,"x_min":7,"x_max":1430,"o":"m 7 972 l 419 979 l 419 854 l 318 812 l 437 313 l 632 968 l 819 979 l 1006 314 l 1139 812 l 1035 854 l 1035 972 l 1430 979 l 1430 854 l 1331 812 l 1093 0 l 896 0 l 714 660 l 681 528 l 521 0 l 329 0 l 104 814 l 7 854 l 7 972 m 650 1304 l 774 1315 l 999 1122 l 932 1030 l 722 1166 l 505 1030 l 437 1122 l 650 1304 z "},"ŵ":{"ha":1217,"x_min":7,"x_max":1210,"o":"m 854 632 l 854 743 l 1210 750 l 1210 632 l 1136 615 l 951 0 l 739 0 l 629 354 l 604 463 l 570 311 l 468 0 l 257 0 l 68 612 l 7 632 l 7 743 l 371 750 l 371 632 l 283 615 l 375 225 l 522 726 l 705 757 l 857 225 l 939 611 l 854 632 m 537 1135 l 661 1145 l 904 922 l 837 830 l 610 997 l 376 830 l 309 922 l 537 1135 z "},"Ŷ":{"ha":926,"x_min":9,"x_max":917,"o":"m 250 118 l 354 160 l 354 339 l 100 817 l 9 854 l 9 972 l 403 979 l 403 854 l 332 825 l 471 526 l 618 823 l 542 854 l 542 972 l 917 979 l 917 854 l 821 817 l 570 340 l 570 160 l 673 118 l 673 0 l 250 0 l 250 118 m 420 1304 l 543 1315 l 768 1122 l 701 1030 l 492 1166 l 274 1030 l 207 1122 l 420 1304 z "},"ŷ":{"ha":834,"x_min":7,"x_max":835,"o":"m 7 743 l 378 750 l 378 632 l 300 618 l 424 229 l 542 614 l 461 632 l 461 743 l 835 750 l 835 632 l 749 614 l 545 45 q 459 -148 505 -68 q 341 -281 414 -228 q 167 -334 269 -334 q 92 -329 138 -334 q 32 -322 46 -323 l 52 -174 l 142 -174 q 255 -123 214 -174 q 328 -1 297 -72 l 81 610 l 7 632 l 7 743 m 359 1135 l 483 1145 l 726 922 l 659 830 l 432 997 l 199 830 l 132 922 l 359 1135 z "},"Ÿ":{"ha":926,"x_min":9,"x_max":917,"o":"m 250 118 l 354 160 l 354 339 l 100 817 l 9 854 l 9 972 l 403 979 l 403 854 l 332 825 l 471 526 l 618 823 l 542 854 l 542 972 l 917 979 l 917 854 l 821 817 l 570 340 l 570 160 l 673 118 l 673 0 l 250 0 l 250 118 m 205 1178 q 235 1257 205 1227 q 309 1286 265 1286 q 383 1258 357 1286 q 408 1178 408 1230 q 378 1099 408 1128 q 306 1069 349 1069 q 231 1097 257 1069 q 205 1178 205 1125 m 509 1178 q 539 1257 509 1227 q 611 1286 570 1286 q 686 1258 660 1286 q 711 1178 711 1230 q 682 1099 711 1128 q 608 1069 652 1069 q 534 1097 559 1069 q 509 1178 509 1125 z "},"Ź":{"ha":854,"x_min":41,"x_max":812,"o":"m 534 812 l 243 812 l 208 688 l 77 688 l 77 979 l 812 979 l 812 822 l 329 167 l 646 167 l 676 306 l 808 306 l 808 0 l 41 0 l 41 146 l 534 812 m 292 1132 l 590 1328 l 671 1177 l 355 1021 l 292 1132 z "},"ź":{"ha":701,"x_min":56,"x_max":660,"o":"m 309 153 l 511 153 l 534 271 l 660 271 l 660 0 l 56 0 l 56 127 l 408 597 l 218 597 l 197 496 l 72 496 l 72 750 l 656 750 l 656 621 l 309 153 m 511 1182 l 201 935 l 269 833 l 606 1038 l 511 1182 z "},"Ż":{"ha":854,"x_min":41,"x_max":812,"o":"m 534 812 l 243 812 l 208 688 l 77 688 l 77 979 l 812 979 l 812 822 l 329 167 l 646 167 l 676 306 l 808 306 l 808 0 l 41 0 l 41 146 l 534 812 m 340 1177 q 371 1255 340 1225 q 443 1284 401 1284 q 517 1256 492 1284 q 543 1177 543 1227 q 513 1097 543 1126 q 440 1068 484 1068 q 366 1096 391 1068 q 340 1177 340 1124 z "},"ż":{"ha":701,"x_min":56,"x_max":660,"o":"m 309 153 l 511 153 l 534 271 l 660 271 l 660 0 l 56 0 l 56 127 l 408 597 l 218 597 l 197 496 l 72 496 l 72 750 l 656 750 l 656 621 l 309 153 m 269 970 q 299 1048 269 1018 q 371 1078 330 1078 q 446 1049 420 1078 q 471 970 471 1021 q 441 890 471 920 q 368 861 412 861 q 294 889 319 861 q 269 970 269 917 z "},"Ž":{"ha":854,"x_min":41,"x_max":812,"o":"m 534 812 l 243 812 l 208 688 l 77 688 l 77 979 l 812 979 l 812 822 l 329 167 l 646 167 l 676 306 l 808 306 l 808 0 l 41 0 l 41 146 l 534 812 m 493 1051 l 369 1042 l 157 1246 l 233 1329 l 429 1182 l 622 1329 l 691 1246 l 493 1051 z "},"ž":{"ha":701,"x_min":56,"x_max":669,"o":"m 309 153 l 511 153 l 534 271 l 660 271 l 660 0 l 56 0 l 56 127 l 408 597 l 218 597 l 197 496 l 72 496 l 72 750 l 656 750 l 656 621 l 309 153 m 669 1064 l 452 847 l 328 840 l 96 1064 l 171 1143 l 387 981 l 603 1145 l 669 1064 z "},"ſ":{"ha":622,"x_min":69,"x_max":713,"o":"m 180 799 q 257 1014 180 935 q 476 1093 334 1093 q 595 1082 543 1093 q 681 1057 648 1071 q 713 1042 713 1043 l 708 836 l 587 836 l 567 939 q 542 942 562 940 q 493 945 522 945 q 386 822 386 945 l 386 146 l 519 111 l 519 0 l 69 0 l 69 111 l 180 146 l 180 799 z "},"ƒ":{"ha":611,"x_min":-93,"x_max":611,"o":"m 175 765 q 262 1003 189 922 q 481 1083 335 1083 q 554 1080 511 1083 q 611 1075 597 1076 l 597 930 l 507 930 q 417 900 442 930 q 385 798 392 869 l 371 646 l 553 646 l 549 507 l 359 507 l 315 40 q 228 -197 300 -117 q 9 -278 155 -278 q -47 -274 -13 -278 q -93 -269 -82 -271 l -75 -125 l -17 -125 q 73 -94 48 -125 q 106 8 98 -64 l 151 507 l 37 507 l 39 625 l 164 646 l 175 765 z "},"Ǻ":{"ha":1038,"x_min":7,"x_max":1032,"o":"m 1032 0 l 590 0 l 590 118 l 694 155 l 661 257 l 353 257 l 318 157 l 427 118 l 427 0 l 7 0 l 7 118 l 109 157 l 411 970 q 350 1103 350 1020 q 376 1201 350 1158 q 446 1265 403 1243 q 536 1287 489 1287 q 626 1266 584 1287 q 694 1206 668 1246 q 721 1111 721 1166 q 700 1023 721 1062 q 643 960 679 985 l 935 157 l 1032 118 l 1032 0 m 536 1187 q 487 1167 505 1187 q 468 1107 468 1146 q 485 1048 468 1068 q 536 1028 503 1028 q 584 1049 566 1028 q 603 1108 603 1069 q 586 1167 603 1147 q 536 1187 568 1187 m 511 734 l 401 406 l 615 406 l 511 734 z "},"ǻ":{"ha":834,"x_min":0,"x_max":800,"o":"m 497 90 q 461 60 497 87 q 375 9 425 32 q 272 -14 325 -14 q 113 43 170 -14 q 56 204 56 100 q 141 378 56 323 q 390 433 227 433 l 488 433 l 488 510 q 380 611 488 612 q 321 606 349 611 q 278 596 294 602 q 258 590 262 591 l 237 503 l 113 503 l 103 708 q 163 726 115 712 q 278 751 211 739 q 404 764 345 764 q 574 737 511 764 q 667 650 637 710 q 696 489 696 590 l 696 146 l 800 121 l 800 9 l 522 0 l 497 90 m 257 225 q 278 163 257 184 q 339 142 300 142 q 405 160 372 142 q 460 197 437 178 q 488 222 482 216 l 488 315 l 408 315 q 292 294 328 315 q 257 225 257 272 m 211 985 q 237 1083 211 1040 q 307 1147 264 1125 q 397 1169 350 1169 q 487 1148 445 1169 q 555 1088 529 1128 q 582 993 582 1048 q 555 896 582 937 q 486 831 529 854 q 397 808 443 808 q 307 829 350 808 q 237 889 264 850 q 211 985 211 929 m 330 989 q 347 930 330 950 q 397 909 364 909 q 445 930 427 909 q 464 990 464 951 q 447 1049 464 1029 q 397 1069 429 1069 q 348 1048 367 1069 q 330 989 330 1027 m 0 0 l 0 0 l 0 0 l 0 0 l 0 0 z "},"Ǽ":{"ha":1348,"x_min":7,"x_max":1279,"o":"m 1154 431 l 873 431 l 873 167 l 1120 167 l 1152 281 l 1279 281 l 1279 0 l 555 0 l 555 118 l 659 160 l 659 267 l 390 267 l 336 154 l 421 118 l 421 0 l 7 0 l 7 118 l 123 160 l 441 812 l 323 854 l 323 972 l 589 979 l 1263 979 l 1263 708 l 1133 708 l 1099 812 l 873 812 l 873 583 l 1154 583 l 1154 431 m 456 416 l 659 416 l 659 812 l 639 812 l 456 416 m 694 1132 l 993 1328 l 1074 1177 l 758 1021 l 694 1132 z "},"ǽ":{"ha":1202,"x_min":56,"x_max":1161,"o":"m 693 326 q 744 198 699 244 q 861 153 789 153 q 964 167 913 153 q 1049 197 1015 182 q 1092 218 1083 212 l 1153 103 q 1102 69 1153 100 q 980 12 1051 37 q 833 -14 909 -14 q 545 125 631 -14 q 426 26 494 66 q 271 -14 357 -14 q 114 45 172 -14 q 56 204 56 103 q 140 378 56 323 q 389 433 225 433 l 486 433 l 486 510 q 379 610 486 610 q 321 605 349 610 q 278 595 294 600 q 257 589 261 590 l 236 503 l 111 503 l 102 708 q 154 725 102 711 q 274 751 207 739 q 400 762 342 762 q 531 743 478 762 q 616 682 585 724 q 847 764 709 764 q 1079 677 997 764 q 1161 439 1161 591 q 1158 373 1161 406 q 1153 330 1154 340 l 693 326 m 833 597 q 738 558 775 597 q 693 452 701 519 l 947 452 q 920 558 947 519 q 833 597 892 597 m 254 225 q 276 164 254 186 q 338 142 298 142 q 403 160 370 142 q 458 199 436 179 q 486 225 481 218 l 486 315 l 407 315 q 290 294 326 315 q 254 225 254 272 m 768 1182 l 458 935 l 526 833 l 863 1038 l 768 1182 z "},"Ǿ":{"ha":1062,"x_min":83,"x_max":979,"o":"m 208 96 q 83 482 83 224 q 140 756 83 640 q 299 934 196 872 q 542 996 403 996 q 734 958 650 996 l 821 1101 l 945 1031 l 851 879 q 946 720 913 815 q 979 503 979 625 q 921 231 979 349 q 757 48 863 113 q 514 -17 652 -17 q 326 17 408 -17 l 224 -153 l 100 -82 l 208 96 m 534 822 q 372 747 428 822 q 317 504 317 672 q 346 321 317 385 l 555 667 l 636 799 q 534 822 591 823 m 747 496 q 717 657 747 593 l 425 179 q 521 155 465 155 q 747 496 747 155 m 361 1132 l 659 1328 l 740 1177 l 425 1021 l 361 1132 z "},"ǿ":{"ha":836,"x_min":56,"x_max":781,"o":"m 161 64 q 56 368 56 157 q 102 581 56 492 q 233 716 149 669 q 431 764 318 764 q 568 742 501 764 l 659 893 l 762 835 l 672 684 q 781 389 781 587 q 735 174 781 265 q 606 35 689 83 q 410 -14 522 -14 q 267 5 340 -14 l 165 -163 l 61 -104 l 161 64 m 424 604 q 307 551 343 604 q 271 374 271 498 q 286 272 271 315 l 478 593 q 424 604 453 604 m 566 382 q 550 479 566 444 l 357 157 q 416 146 379 146 q 530 201 494 146 q 566 382 566 257 m 525 1182 l 215 935 l 283 833 l 619 1038 l 525 1182 z "},"Ș":{"ha":840,"x_min":83,"x_max":771,"o":"m 249 184 q 271 175 253 182 q 319 162 289 168 q 385 155 349 155 q 504 185 455 155 q 553 268 553 215 q 531 321 553 300 q 477 358 510 343 q 382 395 444 372 q 231 458 290 427 q 127 548 171 489 q 83 701 83 607 q 129 861 83 794 q 255 962 175 928 q 436 996 335 996 q 573 983 505 996 q 686 958 642 971 q 742 940 730 945 l 734 688 l 607 688 l 572 806 q 549 812 567 807 q 503 822 530 817 q 450 827 476 827 q 341 799 380 827 q 302 728 302 771 q 344 657 302 683 q 476 600 386 632 q 627 538 568 568 q 729 450 686 507 q 771 304 771 393 q 722 130 771 203 q 589 19 673 57 q 396 -18 504 -18 q 258 -6 327 -18 q 144 18 189 5 q 86 35 98 31 l 86 301 l 228 301 l 249 184 m 340 -171 q 369 -97 340 -125 q 441 -69 398 -69 q 513 -98 484 -69 q 541 -178 541 -127 q 495 -314 541 -240 q 368 -461 450 -389 l 294 -395 q 319 -365 300 -388 q 357 -315 338 -342 q 375 -275 375 -289 q 370 -253 375 -264 q 359 -231 365 -241 q 340 -171 340 -197 z "},"ș":{"ha":676,"x_min":49,"x_max":628,"o":"m 189 153 q 226 145 189 151 q 306 139 262 139 q 419 207 420 139 q 387 256 419 237 q 286 298 355 275 q 165 347 212 323 q 83 415 118 371 q 49 526 49 458 q 131 706 49 648 q 335 764 212 764 q 448 755 391 764 q 544 735 505 746 q 593 722 583 725 l 587 514 l 469 514 l 449 597 q 418 605 449 599 q 353 611 387 611 q 282 593 307 611 q 257 541 257 575 q 289 492 257 510 q 390 453 321 473 q 512 408 464 429 q 594 344 559 386 q 628 236 628 302 q 541 52 628 118 q 309 -14 454 -14 q 193 -7 250 -14 q 99 7 136 0 q 53 17 62 14 l 53 243 l 178 243 l 189 153 m 219 -171 q 248 -97 219 -125 q 321 -69 277 -69 q 392 -98 363 -69 q 420 -178 420 -127 q 375 -314 420 -240 q 247 -461 329 -389 l 174 -395 q 198 -365 179 -388 q 236 -315 218 -342 q 254 -275 254 -289 q 249 -253 254 -264 q 239 -231 244 -241 q 219 -171 219 -197 z "},"Ț":{"ha":833,"x_min":14,"x_max":819,"o":"m 309 812 l 176 812 l 142 681 l 14 681 l 14 979 l 819 979 l 819 681 l 690 681 l 656 812 l 524 812 l 524 160 l 656 118 l 656 0 l 176 0 l 176 118 l 309 160 l 309 812 m 312 -171 q 341 -97 312 -125 q 414 -69 370 -69 q 485 -98 456 -69 q 513 -178 513 -127 q 468 -314 513 -240 q 340 -461 422 -389 l 267 -395 q 291 -365 272 -388 q 329 -315 311 -342 q 347 -275 347 -289 q 342 -253 347 -264 q 332 -231 337 -241 q 312 -171 312 -197 z "},"ț":{"ha":605,"x_min":21,"x_max":591,"o":"m 355 -14 q 196 56 243 -14 q 150 257 150 126 l 150 576 l 21 576 l 21 711 l 150 729 l 150 921 l 358 958 l 358 729 l 553 729 l 553 576 l 358 576 l 358 271 q 373 174 358 201 q 432 146 389 146 q 490 157 457 146 q 542 178 524 168 l 591 72 q 355 -14 475 -14 m 226 -171 q 255 -97 226 -125 q 328 -69 284 -69 q 399 -98 370 -69 q 427 -178 427 -127 q 381 -314 427 -240 q 254 -461 336 -389 l 180 -395 q 205 -365 186 -388 q 243 -315 224 -342 q 261 -275 261 -289 q 256 -253 261 -264 q 245 -231 251 -241 q 226 -171 226 -197 z "},"ȷ":{"ha":462,"x_min":-43,"x_max":366,"o":"m 62 -340 q 1 -336 35 -340 q -43 -330 -33 -332 l -26 -201 l 46 -201 q 134 -168 107 -201 q 160 -64 160 -134 l 160 597 l 49 632 l 49 743 l 366 750 l 366 18 q 338 -184 366 -106 q 244 -301 310 -262 q 62 -340 178 -340 z "},"ʼ":{"ha":458,"x_min":111,"x_max":368,"o":"m 253 1145 q 297 1124 269 1145 q 347 1076 325 1104 q 368 1025 368 1047 q 331 916 368 983 q 201 755 293 848 l 111 835 q 136 860 111 835 q 182 908 167 890 q 197 936 197 926 q 191 952 197 943 q 176 972 184 962 q 153 1004 161 991 q 144 1034 144 1018 q 164 1077 144 1050 q 210 1124 184 1103 q 253 1145 236 1145 z "},"ˆ":{"ha":755,"x_min":97,"x_max":659,"o":"m 310 1156 l 433 1166 l 659 974 l 591 882 l 382 1018 l 164 882 l 97 974 l 310 1156 z "},"ˇ":{"ha":534,"x_min":-21,"x_max":553,"o":"m 553 1064 l 335 847 l 211 840 l -21 1064 l 54 1143 l 271 981 l 486 1145 l 553 1064 z "},"ˉ":{"ha":430,"x_min":7,"x_max":424,"o":"m 424 889 l 7 889 l 7 1038 l 424 1038 l 424 889 z "},"˘":{"ha":611,"x_min":78,"x_max":532,"o":"m 199 1075 q 208 1043 199 1068 q 241 995 216 1018 q 306 972 265 972 q 372 992 349 972 q 404 1034 396 1013 q 411 1063 411 1055 l 532 1072 q 500 940 532 994 q 413 857 468 885 q 292 828 358 828 q 183 856 232 828 q 106 937 135 884 q 78 1063 78 990 l 199 1075 z "},"˙":{"ha":411,"x_min":104,"x_max":307,"o":"m 104 1177 q 135 1255 104 1225 q 207 1284 165 1284 q 281 1256 256 1284 q 307 1177 307 1227 q 277 1097 307 1126 q 204 1068 248 1068 q 130 1096 155 1068 q 104 1177 104 1124 z "},"˚":{"ha":570,"x_min":100,"x_max":471,"o":"m 100 1006 q 126 1104 100 1061 q 196 1168 153 1146 q 286 1190 239 1190 q 376 1170 334 1190 q 444 1109 418 1149 q 471 1014 471 1069 q 444 917 471 958 q 375 852 418 875 q 286 829 332 829 q 196 850 239 829 q 126 910 153 871 q 100 1006 100 950 m 218 1010 q 236 951 218 971 q 286 930 253 930 q 334 951 315 930 q 353 1011 353 972 q 335 1070 353 1050 q 286 1090 318 1090 q 237 1069 256 1090 q 218 1010 218 1048 z "},"˛":{"ha":430,"x_min":77,"x_max":383,"o":"m 236 -153 q 251 -190 236 -176 q 288 -203 265 -203 q 321 -199 301 -203 q 347 -195 342 -196 l 371 -292 q 346 -303 366 -294 q 294 -319 326 -311 q 229 -326 262 -326 q 120 -291 163 -326 q 77 -187 77 -256 q 108 -93 77 -134 q 178 -24 139 -52 q 216 0 216 3 l 383 0 q 342 -26 383 1 q 269 -88 301 -54 q 236 -153 236 -122 z "},"˜":{"ha":789,"x_min":111,"x_max":685,"o":"m 111 939 q 134 984 111 945 q 195 1058 157 1023 q 285 1092 233 1092 q 347 1083 318 1092 q 410 1059 375 1075 q 467 1036 444 1043 q 515 1028 489 1028 q 561 1041 539 1028 q 595 1068 582 1054 q 611 1086 608 1082 l 685 1022 q 662 977 685 1017 q 600 904 639 937 q 511 871 561 871 q 452 879 478 871 q 385 903 425 886 q 330 924 354 916 q 278 932 306 932 q 229 919 252 932 q 193 893 207 907 q 176 875 179 879 l 111 939 z "},"˝":{"ha":865,"x_min":111,"x_max":782,"o":"m 357 1219 l 469 1104 l 199 869 l 111 956 l 357 1219 m 669 1219 l 782 1104 l 511 869 l 424 956 l 669 1219 z "},"̦":{"ha":0,"x_min":24,"x_max":271,"o":"m 69 -171 q 98 -97 69 -125 q 171 -69 127 -69 q 242 -98 214 -69 q 271 -178 271 -127 q 225 -314 271 -240 q 97 -461 179 -389 l 24 -395 q 48 -365 29 -388 q 86 -315 68 -342 q 104 -275 104 -289 q 99 -253 104 -264 q 89 -231 94 -241 q 69 -171 69 -197 z "},"Γ":{"ha":795,"x_min":0,"x_max":0,"o":""},"Δ":{"ha":922,"x_min":14,"x_max":908,"o":"m 908 139 l 908 0 l 14 0 l 14 139 l 374 1004 l 558 1004 l 908 139 m 450 778 l 201 155 l 699 155 l 450 778 z "},"Π":{"ha":1105,"x_min":41,"x_max":1092,"o":"m 1092 65 q 1056 42 1092 62 q 969 4 1021 21 q 861 -14 918 -14 q 718 47 772 -14 q 664 236 664 107 l 664 812 l 371 812 l 371 155 l 486 121 l 486 0 l 41 0 l 41 121 l 155 155 l 155 812 l 52 854 l 52 972 l 371 979 l 983 979 l 983 854 l 879 812 l 879 228 q 896 162 879 183 q 949 140 913 140 q 1004 149 974 140 q 1043 163 1035 158 l 1092 65 z "},"Ω":{"ha":1051,"x_min":62,"x_max":989,"o":"m 989 0 l 606 0 l 606 132 q 699 262 661 171 q 737 510 737 353 q 686 746 737 670 q 529 822 635 822 q 367 747 420 822 q 314 503 314 672 q 348 264 314 349 q 443 134 382 180 l 446 132 l 446 0 l 62 0 l 62 167 l 208 167 q 157 228 189 182 q 102 343 126 273 q 78 496 78 414 q 134 760 78 647 q 293 935 189 873 q 536 996 396 996 q 772 938 674 996 q 922 772 871 880 q 974 517 974 664 q 950 365 974 436 q 894 244 926 293 q 836 175 861 195 l 833 175 l 989 180 l 989 0 z "},"μ":{"ha":915,"x_min":24,"x_max":886,"o":"m 24 739 l 328 750 l 328 265 q 349 189 328 215 q 411 163 371 163 q 488 179 451 163 q 551 217 525 196 q 576 239 576 237 l 576 600 l 473 628 l 473 739 l 781 750 l 781 146 l 886 118 l 886 9 l 604 0 l 590 98 q 553 66 590 96 q 470 11 517 36 q 382 -14 424 -14 q 328 -5 351 -14 l 328 -326 l 126 -326 l 126 600 l 24 628 l 24 739 z "},"π":{"ha":958,"x_min":31,"x_max":982,"o":"m 982 65 q 946 42 982 64 q 862 4 911 21 q 758 -14 812 -14 q 620 47 673 -14 q 566 236 566 109 l 566 593 l 343 593 l 343 0 l 139 0 l 139 597 l 31 628 l 31 736 l 326 750 l 882 750 l 882 628 l 770 600 l 770 228 q 786 162 770 183 q 839 140 803 140 q 895 149 864 140 q 933 163 925 158 l 982 65 z "},"ऀ":{"ha":0,"x_min":-546,"x_max":81,"o":"m -546 1228 q -435 1415 -515 1350 q -253 1480 -354 1480 q -65 1421 -156 1480 q 81 1255 25 1362 l -18 1181 q -118 1283 -64 1246 q -229 1321 -172 1321 q -404 1170 -345 1321 l -546 1228 m -224 1011 q -269 1031 -240 1011 q -320 1078 -298 1051 q -342 1126 -342 1105 q -321 1172 -342 1143 q -275 1222 -301 1200 q -232 1244 -249 1244 q -185 1223 -215 1244 q -133 1175 -155 1202 q -111 1126 -111 1147 q -132 1082 -111 1109 q -180 1033 -153 1054 q -224 1011 -207 1011 z "},"ँ":{"ha":0,"x_min":-545,"x_max":82,"o":"m 82 1278 q -29 1091 52 1156 q -211 1026 -110 1026 q -398 1085 -308 1026 q -545 1251 -489 1143 l -446 1325 q -346 1222 -399 1260 q -235 1185 -292 1185 q -60 1336 -119 1185 l 82 1278 m -240 1494 q -195 1474 -224 1494 q -144 1427 -165 1454 q -122 1379 -122 1400 q -142 1334 -122 1362 q -189 1283 -163 1305 q -232 1261 -215 1261 q -279 1282 -249 1261 q -331 1331 -309 1303 q -353 1379 -353 1358 q -332 1423 -353 1396 q -284 1473 -311 1451 q -240 1494 -257 1494 z "},"ं":{"ha":0,"x_min":-353,"x_max":-122,"o":"m -240 1284 q -195 1264 -224 1284 q -144 1217 -165 1244 q -122 1169 -122 1190 q -142 1124 -122 1152 q -189 1074 -163 1096 q -232 1051 -215 1051 q -279 1072 -249 1051 q -331 1121 -309 1093 q -353 1169 -353 1149 q -332 1214 -353 1186 q -284 1263 -311 1242 q -240 1284 -257 1284 z "},"ः":{"ha":537,"x_min":98,"x_max":328,"o":"m 210 314 q 256 294 227 314 q 307 246 285 274 q 328 197 328 218 q 308 153 328 180 q 261 103 288 125 q 218 81 235 81 q 172 101 201 81 q 120 150 142 122 q 98 197 98 178 q 118 242 98 214 q 166 292 139 271 q 210 314 193 314 m 210 713 q 256 693 227 713 q 307 645 285 673 q 328 596 328 617 q 308 551 328 579 q 261 502 288 524 q 218 479 235 479 q 172 500 201 479 q 120 549 142 521 q 98 596 98 576 q 118 641 98 613 q 166 691 139 669 q 210 713 193 713 z "},"ऄ":{"ha":1282,"x_min":26,"x_max":1308,"o":"m 1136 0 l 946 0 l 946 407 l 714 407 q 741 294 741 351 q 698 161 741 218 q 584 75 656 104 q 428 45 513 45 q 172 138 281 45 q 26 390 62 232 l 163 450 q 261 266 200 326 q 401 207 322 207 q 504 242 467 207 q 542 334 542 278 q 519 410 542 375 q 458 472 497 446 q 318 440 393 450 l 272 595 q 447 654 389 618 q 505 743 505 689 q 475 806 505 783 q 395 828 446 828 q 214 783 317 828 l 157 939 q 285 974 218 961 q 408 987 353 987 q 558 956 493 987 q 660 867 624 924 q 696 741 696 811 q 611 555 696 632 l 946 555 l 946 811 l 800 811 l 778 960 l 961 960 q 937 1034 957 1010 q 871 1072 917 1057 q 693 1117 819 1089 q 533 1157 578 1141 q 431 1246 455 1186 q 406 1386 407 1307 l 507 1413 q 543 1336 524 1358 q 607 1297 562 1314 q 790 1251 653 1280 q 942 1217 899 1229 q 1034 1174 999 1201 q 1089 1096 1069 1147 q 1109 960 1108 1044 l 1287 960 l 1308 811 l 1136 811 l 1136 0 z "},"अ":{"ha":1276,"x_min":26,"x_max":1308,"o":"m 1136 0 l 946 0 l 946 407 l 714 407 q 741 294 741 351 q 698 161 741 218 q 584 75 656 104 q 428 45 513 45 q 172 138 281 45 q 26 390 62 232 l 163 450 q 261 266 200 326 q 401 207 322 207 q 504 242 467 207 q 542 334 542 278 q 519 410 542 375 q 458 472 497 446 q 318 440 393 450 l 272 595 q 447 654 389 618 q 505 743 505 689 q 475 806 505 783 q 395 828 446 828 q 214 783 317 828 l 157 939 q 285 974 218 961 q 408 987 353 987 q 558 956 493 987 q 660 867 624 924 q 696 741 696 811 q 611 555 696 632 l 946 555 l 946 811 l 800 811 l 778 960 l 1287 960 l 1308 811 l 1136 811 l 1136 0 z "},"आ":{"ha":1697,"x_min":26,"x_max":1729,"o":"m 1557 0 l 1367 0 l 1367 811 l 1136 811 l 1136 0 l 946 0 l 946 407 l 714 407 q 741 294 741 351 q 698 161 741 218 q 584 75 656 104 q 428 45 513 45 q 172 138 281 45 q 26 390 62 232 l 163 450 q 261 266 200 326 q 401 207 322 207 q 504 242 467 207 q 542 334 542 278 q 519 410 542 375 q 458 472 497 446 q 318 440 393 450 l 272 595 q 447 654 389 618 q 505 743 505 689 q 475 806 505 783 q 395 828 446 828 q 214 783 317 828 l 157 939 q 285 974 218 961 q 408 987 353 987 q 558 956 493 987 q 660 867 624 924 q 696 741 696 811 q 611 555 696 632 l 946 555 l 946 811 l 800 811 l 778 960 l 1708 960 l 1729 811 l 1557 811 l 1557 0 z "},"इ":{"ha":805,"x_min":-37,"x_max":844,"o":"m 501 465 q 530 467 511 467 q 684 406 623 467 q 745 250 745 346 q 458 -9 745 13 l 600 -160 l 469 -256 l 294 -4 q 81 53 175 14 l 82 54 q 93 163 81 117 q 136 257 104 210 l 225 237 l 319 138 q 382 134 349 134 q 518 163 464 134 q 572 248 572 193 q 552 292 572 275 q 493 304 532 309 l 338 286 q 314 285 330 285 q 200 318 253 285 q 116 408 147 351 q 85 529 85 464 q 144 674 85 626 q 315 722 204 722 l 443 722 l 443 811 l -14 811 l -37 960 l 823 960 l 844 811 l 635 811 l 635 572 l 355 572 q 277 511 276 572 q 350 450 277 442 l 501 465 z "},"ई":{"ha":817,"x_min":-37,"x_max":844,"o":"m 501 465 q 530 467 511 467 q 684 406 623 467 q 745 250 745 346 q 458 -9 745 13 l 600 -160 l 469 -256 l 294 -4 q 81 53 175 14 l 82 54 q 93 163 81 117 q 136 257 104 210 l 225 237 l 319 138 q 382 134 349 134 q 518 163 464 134 q 572 248 572 193 q 552 292 572 275 q 493 304 532 309 l 338 286 q 314 285 330 285 q 200 318 253 285 q 116 408 147 351 q 85 529 85 464 q 144 674 85 626 q 315 722 204 722 l 443 722 l 443 811 l -14 811 l -37 960 l 401 960 q 257 1182 257 1065 q 319 1319 257 1267 q 479 1372 382 1372 q 563 1362 521 1372 q 639 1332 604 1352 l 607 1210 q 534 1223 568 1223 q 465 1202 492 1223 q 439 1137 439 1181 q 476 1052 439 1095 q 587 960 513 1008 l 823 960 l 844 811 l 635 811 l 635 572 l 355 572 q 277 511 276 572 q 350 450 277 442 l 501 465 z "},"उ":{"ha":827,"x_min":-36,"x_max":863,"o":"m 578 494 q 700 382 659 447 q 742 243 742 317 q 700 109 742 165 q 586 23 657 53 q 432 -7 515 -7 q 249 36 334 -7 q 104 156 164 78 q 21 339 45 235 l 158 397 q 259 217 195 275 q 401 158 323 158 q 506 192 468 158 q 543 282 543 225 q 513 365 543 325 q 437 433 484 406 q 326 411 391 421 l 277 567 q 453 625 393 589 q 513 722 513 661 q 481 787 513 762 q 393 811 450 811 l -12 811 l -36 960 l 840 960 l 863 811 l 681 811 q 704 708 705 764 q 671 587 704 642 q 578 494 639 533 z "},"ऊ":{"ha":1177,"x_min":-46,"x_max":1208,"o":"m 888 566 q 1019 532 960 566 q 1111 442 1078 498 q 1145 318 1145 386 q 1100 156 1145 237 q 979 9 1055 74 l 838 121 q 924 221 890 168 q 957 315 957 273 q 934 375 957 351 q 871 399 911 399 q 798 377 839 399 q 721 318 757 355 q 732 243 732 278 q 689 109 732 165 q 576 23 647 53 q 422 -7 505 -7 q 239 36 324 -7 q 94 156 154 78 q 11 339 35 235 l 149 397 q 250 217 186 275 q 392 158 314 158 q 496 192 458 158 q 533 282 533 225 q 503 365 533 325 q 428 433 473 406 q 317 411 382 421 l 267 567 q 443 625 383 589 q 503 722 503 661 q 471 787 503 762 q 383 811 440 811 l -22 811 l -46 960 l 1187 960 l 1208 811 l 671 811 q 694 708 694 764 q 662 587 694 642 q 568 494 629 533 q 631 450 607 471 q 755 538 692 511 q 888 566 818 566 z "},"ऋ":{"ha":1295,"x_min":-36,"x_max":1331,"o":"m 1057 184 q 1138 200 1093 184 q 1223 239 1183 215 l 1289 93 q 1075 36 1187 36 q 893 94 966 36 q 819 244 819 151 q 844 337 819 292 q 916 424 868 383 q 828 468 863 446 l 703 393 l 703 0 l 513 0 l 513 273 l 149 25 l 52 168 l 473 406 q 346 500 401 471 q 239 530 290 530 q 104 496 178 530 l 45 648 q 224 696 140 696 q 359 657 293 696 q 513 539 425 619 l 513 811 l -11 811 l -36 960 l 1308 960 l 1331 811 l 703 811 l 703 542 l 789 596 l 815 746 l 882 774 q 1032 664 970 738 q 943 547 1011 604 q 1012 512 975 525 q 1083 498 1048 500 l 1117 374 q 1017 316 1056 349 q 978 244 978 283 q 999 200 978 216 q 1057 184 1021 184 z "},"ऌ":{"ha":1193,"x_min":-49,"x_max":1244,"o":"m 954 -92 q 1112 -31 1022 -92 l 1192 -172 q 954 -244 1080 -244 q 817 -214 879 -244 q 720 -127 755 -183 q 685 0 685 -72 q 702 88 685 49 q 745 157 720 127 q 812 231 770 187 q 899 331 871 290 q 926 429 926 372 q 897 513 926 482 q 817 543 867 543 q 710 488 747 543 q 672 334 672 433 l 672 278 l 496 297 l 496 347 q 510 473 496 418 q 463 528 493 507 q 397 550 432 550 q 310 507 343 550 q 277 395 277 464 q 343 220 277 310 q 509 58 410 131 l 390 -57 q 258 56 321 -4 q 140 208 195 115 q 86 408 86 300 q 124 566 86 500 q 229 667 163 632 q 378 701 296 701 q 492 678 437 701 q 585 614 546 654 q 742 689 643 675 l 742 811 l -24 811 l -49 960 l 1221 960 l 1244 811 l 932 811 l 932 668 q 1060 567 1010 635 q 1109 415 1109 498 q 1087 290 1109 345 q 1034 199 1065 236 q 956 118 1003 163 q 889 47 909 75 q 868 -12 868 20 q 892 -71 868 -50 q 954 -92 916 -92 z "},"ऍ":{"ha":875,"x_min":-32,"x_max":913,"o":"m 469 345 q 558 421 535 385 q 581 521 581 457 l 581 811 l 274 811 l 274 431 q 293 347 274 382 q 370 272 311 313 l 611 107 q 723 8 686 56 q 760 -92 760 -39 q 699 -265 760 -161 l 518 -175 q 551 -86 551 -121 q 531 -38 551 -58 q 454 22 510 -18 l 208 195 q 107 301 132 249 q 83 439 83 354 l 83 811 l -9 811 l -32 960 l 892 960 l 913 811 l 771 811 l 771 482 q 735 327 771 387 q 614 216 700 267 l 469 345 m 772 1278 q 661 1091 742 1156 q 479 1026 581 1026 q 292 1085 382 1026 q 146 1251 201 1143 l 245 1325 q 345 1222 291 1260 q 456 1185 399 1185 q 631 1336 571 1185 l 772 1278 z "},"ऎ":{"ha":879,"x_min":-28,"x_max":917,"o":"m 473 345 q 562 421 539 385 q 585 521 585 457 l 585 811 l 278 811 l 278 431 q 297 347 278 382 q 374 272 315 313 l 615 107 q 727 8 690 56 q 764 -92 764 -39 q 703 -265 764 -161 l 522 -175 q 555 -86 555 -121 q 535 -38 555 -58 q 458 22 514 -18 l 212 195 q 112 301 136 249 q 87 439 87 354 l 87 811 l -5 811 l -28 960 l 604 960 q 580 1034 600 1010 q 514 1072 559 1057 q 336 1117 463 1089 q 176 1157 221 1141 q 74 1246 98 1186 q 49 1386 50 1307 l 150 1413 q 186 1336 167 1358 q 250 1297 205 1314 q 433 1251 296 1280 q 585 1217 542 1229 q 677 1174 642 1201 q 732 1096 713 1147 q 753 960 751 1044 l 896 960 l 917 811 l 775 811 l 775 482 q 740 327 775 387 q 618 216 704 267 l 473 345 z "},"ए":{"ha":882,"x_min":-28,"x_max":917,"o":"m 473 345 q 562 421 539 385 q 585 521 585 457 l 585 811 l 278 811 l 278 431 q 297 347 278 382 q 374 272 315 313 l 615 107 q 727 8 690 56 q 764 -92 764 -39 q 703 -265 764 -161 l 522 -175 q 555 -86 555 -121 q 535 -38 555 -58 q 458 22 514 -18 l 212 195 q 112 301 136 249 q 87 439 87 354 l 87 811 l -5 811 l -28 960 l 896 960 l 917 811 l 775 811 l 775 482 q 740 327 775 387 q 618 216 704 267 l 473 345 z "},"ऐ":{"ha":882,"x_min":-28,"x_max":917,"o":"m 473 345 q 562 421 539 385 q 585 521 585 457 l 585 811 l 278 811 l 278 431 q 297 347 278 382 q 374 272 315 313 l 615 107 q 727 8 690 56 q 764 -92 764 -39 q 703 -265 764 -161 l 522 -175 q 555 -86 555 -121 q 535 -38 555 -58 q 458 22 514 -18 l 212 195 q 112 301 136 249 q 87 439 87 354 l 87 811 l -5 811 l -28 960 l 579 960 q 546 1008 564 981 q 444 1143 482 1100 q 350 1211 406 1186 q 208 1235 294 1235 l 123 1235 l 98 1393 l 237 1393 q 413 1353 340 1393 q 541 1247 486 1314 q 684 1048 596 1181 l 743 960 l 896 960 l 917 811 l 775 811 l 775 482 q 740 327 775 387 q 618 216 704 267 l 473 345 z "},"ऑ":{"ha":1697,"x_min":26,"x_max":1780,"o":"m 1557 0 l 1367 0 l 1367 811 l 1136 811 l 1136 0 l 946 0 l 946 407 l 714 407 q 741 294 741 351 q 698 161 741 218 q 584 75 656 104 q 428 45 513 45 q 172 138 281 45 q 26 390 62 232 l 163 450 q 261 266 200 326 q 401 207 322 207 q 504 242 467 207 q 542 334 542 278 q 519 410 542 375 q 458 472 497 446 q 318 440 393 450 l 272 595 q 447 654 389 618 q 505 743 505 689 q 475 806 505 783 q 395 828 446 828 q 214 783 317 828 l 157 939 q 285 974 218 961 q 408 987 353 987 q 558 956 493 987 q 660 867 624 924 q 696 741 696 811 q 611 555 696 632 l 946 555 l 946 811 l 800 811 l 778 960 l 1708 960 l 1729 811 l 1557 811 l 1557 0 m 1780 1278 q 1668 1091 1749 1156 q 1487 1026 1588 1026 q 1299 1085 1390 1026 q 1153 1251 1208 1143 l 1252 1325 q 1352 1222 1298 1260 q 1463 1185 1406 1185 q 1638 1336 1578 1185 l 1780 1278 z "},"ऒ":{"ha":1697,"x_min":26,"x_max":1729,"o":"m 1557 0 l 1367 0 l 1367 811 l 1136 811 l 1136 0 l 946 0 l 946 407 l 714 407 q 741 294 741 351 q 698 161 741 218 q 584 75 656 104 q 428 45 513 45 q 172 138 281 45 q 26 390 62 232 l 163 450 q 261 266 200 326 q 401 207 322 207 q 504 242 467 207 q 542 334 542 278 q 519 410 542 375 q 458 472 497 446 q 318 440 393 450 l 272 595 q 447 654 389 618 q 505 743 505 689 q 475 806 505 783 q 395 828 446 828 q 214 783 317 828 l 157 939 q 285 974 218 961 q 408 987 353 987 q 558 956 493 987 q 660 867 624 924 q 696 741 696 811 q 611 555 696 632 l 946 555 l 946 811 l 800 811 l 778 960 l 1390 960 q 1366 1034 1386 1010 q 1300 1072 1346 1057 q 1122 1117 1249 1089 q 962 1157 1007 1141 q 860 1246 884 1186 q 835 1386 836 1307 l 936 1413 q 972 1336 953 1358 q 1036 1297 991 1314 q 1219 1251 1082 1280 q 1371 1217 1328 1229 q 1463 1174 1428 1201 q 1518 1096 1499 1147 q 1539 960 1537 1044 l 1708 960 l 1729 811 l 1557 811 l 1557 0 z "},"ओ":{"ha":1697,"x_min":26,"x_max":1729,"o":"m 1557 0 l 1367 0 l 1367 811 l 1136 811 l 1136 0 l 946 0 l 946 407 l 714 407 q 741 294 741 351 q 698 161 741 218 q 584 75 656 104 q 428 45 513 45 q 172 138 281 45 q 26 390 62 232 l 163 450 q 261 266 200 326 q 401 207 322 207 q 504 242 467 207 q 542 334 542 278 q 519 410 542 375 q 458 472 497 446 q 318 440 393 450 l 272 595 q 447 654 389 618 q 505 743 505 689 q 475 806 505 783 q 395 828 446 828 q 214 783 317 828 l 157 939 q 285 974 218 961 q 408 987 353 987 q 558 956 493 987 q 660 867 624 924 q 696 741 696 811 q 611 555 696 632 l 946 555 l 946 811 l 800 811 l 778 960 l 1365 960 q 1332 1008 1350 981 q 1230 1143 1268 1100 q 1136 1211 1192 1186 q 994 1235 1080 1235 l 909 1235 l 885 1393 l 1023 1393 q 1199 1353 1126 1393 q 1327 1247 1272 1314 q 1470 1048 1382 1181 l 1529 960 l 1708 960 l 1729 811 l 1557 811 l 1557 0 z "},"औ":{"ha":1697,"x_min":26,"x_max":1729,"o":"m 1557 0 l 1367 0 l 1367 811 l 1136 811 l 1136 0 l 946 0 l 946 407 l 714 407 q 741 294 741 351 q 698 161 741 218 q 584 75 656 104 q 428 45 513 45 q 172 138 281 45 q 26 390 62 232 l 163 450 q 261 266 200 326 q 401 207 322 207 q 504 242 467 207 q 542 334 542 278 q 519 410 542 375 q 458 472 497 446 q 318 440 393 450 l 272 595 q 447 654 389 618 q 505 743 505 689 q 475 806 505 783 q 395 828 446 828 q 214 783 317 828 l 157 939 q 285 974 218 961 q 408 987 353 987 q 558 956 493 987 q 660 867 624 924 q 696 741 696 811 q 611 555 696 632 l 946 555 l 946 811 l 800 811 l 778 960 l 1383 960 q 1285 1043 1336 1015 q 1165 1079 1234 1071 q 978 1088 1096 1088 l 907 1088 l 882 1239 l 1000 1239 q 1175 1219 1105 1239 q 1305 1145 1244 1198 q 1195 1285 1254 1240 q 1034 1329 1136 1329 l 921 1329 l 896 1480 l 1063 1480 q 1241 1431 1170 1480 q 1361 1300 1312 1381 q 1483 1063 1410 1219 l 1532 960 l 1708 960 l 1729 811 l 1557 811 l 1557 0 z "},"क":{"ha":1311,"x_min":-31,"x_max":1343,"o":"m 933 676 q 1088 642 1021 676 q 1194 545 1156 607 q 1232 403 1232 482 q 1185 233 1232 317 q 1048 78 1137 149 l 900 207 q 1001 313 966 262 q 1035 414 1035 363 q 1006 492 1035 463 q 933 521 978 521 q 855 499 896 521 q 777 437 814 478 l 777 0 l 586 0 l 586 218 q 385 157 496 157 q 231 192 302 157 q 117 291 160 227 q 74 441 74 355 q 156 630 74 562 q 393 697 239 697 l 500 697 l 518 546 l 410 546 q 310 513 349 546 q 272 422 272 481 q 300 340 272 368 q 379 313 329 313 q 490 351 433 313 q 586 458 546 389 l 586 811 l -7 811 l -31 960 l 1321 960 l 1343 811 l 777 811 l 777 642 q 933 676 854 676 z "},"ख":{"ha":1217,"x_min":-39,"x_max":1249,"o":"m 1076 0 l 886 0 l 886 110 q 629 40 777 41 q 397 91 510 40 q 191 235 283 142 q 40 450 98 328 l 119 550 q 258 514 183 546 q 262 581 262 543 l 262 811 l -18 811 l -39 960 l 1227 960 l 1249 811 l 1076 811 l 1076 0 m 450 811 l 450 538 q 418 389 450 442 q 306 323 386 336 q 436 231 357 262 q 596 199 514 199 q 741 228 675 199 q 847 315 807 257 q 886 453 886 372 q 859 546 886 511 q 785 581 831 581 q 727 561 750 581 q 704 511 704 542 q 782 432 704 454 l 732 307 q 587 389 642 331 q 533 522 533 447 q 597 670 533 618 q 755 722 661 722 q 886 697 827 722 l 886 811 l 450 811 z "},"ग":{"ha":954,"x_min":-41,"x_max":986,"o":"m 814 0 l 624 0 l 624 811 l 363 811 l 363 267 l 222 210 q 117 321 163 250 q 45 472 71 393 l 180 511 l 180 811 l -20 811 l -41 960 l 965 960 l 986 811 l 814 811 l 814 0 z "},"घ":{"ha":1029,"x_min":-36,"x_max":1061,"o":"m 889 0 l 699 0 l 699 183 q 452 110 587 109 q 287 144 363 110 q 165 242 211 178 q 119 390 119 306 q 179 550 119 486 q 92 637 125 587 q 58 743 58 686 q 69 811 58 778 l -12 811 l -36 960 l 1040 960 l 1061 811 l 889 811 l 889 0 m 339 811 q 267 790 293 811 q 241 730 241 768 q 259 673 241 701 q 310 623 277 644 q 452 640 372 641 l 513 640 l 532 492 l 469 492 q 359 463 401 492 q 317 376 317 435 q 348 294 317 323 q 437 265 379 265 q 584 314 513 265 q 699 440 654 363 l 699 811 l 339 811 z "},"ङ":{"ha":1027,"x_min":-25,"x_max":1051,"o":"m 566 460 q 597 461 576 461 q 713 430 664 461 q 787 347 762 399 q 812 237 812 296 q 728 42 812 114 q 492 -29 644 -29 q 253 25 368 -29 q 56 164 138 79 l 153 258 q 301 160 220 195 q 461 126 382 126 q 586 158 536 126 q 636 239 636 191 q 575 297 636 297 q 554 296 562 297 l 414 278 q 387 277 404 277 q 269 311 323 277 q 183 404 215 346 q 151 525 151 461 q 211 671 151 619 q 386 722 271 722 l 517 722 l 517 811 l -1 811 l -25 960 l 1031 960 l 1051 811 l 708 811 l 708 571 l 425 571 q 346 509 346 571 q 425 443 346 435 l 566 460 m 879 627 q 925 606 896 627 q 976 558 954 586 q 997 510 997 530 q 977 465 997 493 q 930 415 957 437 q 888 393 904 393 q 841 414 871 393 q 789 463 811 435 q 766 510 766 490 q 787 555 766 527 q 836 605 808 583 q 879 627 863 627 z "},"च":{"ha":1026,"x_min":-36,"x_max":1059,"o":"m 886 0 l 696 0 l 696 197 q 475 131 597 131 q 313 166 389 131 q 192 267 237 201 q 146 418 146 332 q 154 483 146 451 q 176 534 163 514 l 39 534 l 16 690 l 532 690 l 555 534 l 479 534 q 379 501 417 534 q 340 407 340 468 q 372 319 340 350 q 461 288 404 288 q 591 333 528 288 q 696 456 654 378 l 696 811 l -12 811 l -36 960 l 1038 960 l 1059 811 l 886 811 l 886 0 z "},"छ":{"ha":1111,"x_min":-36,"x_max":1147,"o":"m 851 720 q 1001 623 947 697 q 1055 439 1055 549 q 985 208 1055 311 q 794 44 916 104 q 525 -16 673 -16 q 321 20 415 -16 q 171 125 228 56 q 114 290 114 195 q 203 488 114 414 q 97 592 136 532 q 57 713 57 652 q 79 811 57 768 l -12 811 l -36 960 l 1126 960 l 1147 811 l 851 811 l 851 720 m 494 140 q 671 178 583 140 q 817 289 760 216 q 875 457 875 361 q 851 551 875 518 q 783 583 827 583 q 730 565 750 583 q 710 518 710 547 q 785 443 710 464 l 734 318 q 588 396 640 340 q 536 529 536 452 q 568 637 536 590 q 661 708 600 685 l 661 811 l 386 811 q 282 779 317 811 q 248 697 248 747 q 272 618 248 657 q 342 551 297 579 q 435 559 387 559 l 468 559 l 489 408 l 460 408 q 353 373 395 408 q 311 282 311 338 q 362 175 311 210 q 494 140 414 140 z "},"ज":{"ha":1240,"x_min":-28,"x_max":1272,"o":"m 1100 0 l 909 0 l 909 524 l 672 524 q 790 309 790 408 q 755 197 790 246 q 659 121 720 149 q 524 94 597 94 q 297 174 397 94 q 136 378 197 253 q 58 636 75 503 l 200 677 q 312 373 235 490 q 493 256 389 256 q 565 281 539 256 q 591 342 591 306 q 553 440 591 388 q 447 546 514 493 l 447 677 l 909 677 l 909 811 l -4 811 l -28 960 l 1251 960 l 1272 811 l 1100 811 l 1100 0 z "},"झ":{"ha":1267,"x_min":-37,"x_max":1300,"o":"m 1128 0 l 937 0 l 937 302 l 739 302 q 745 250 745 280 q 458 -9 745 13 l 600 -160 l 469 -256 l 294 -4 q 81 53 175 14 l 82 54 q 93 163 81 117 q 136 257 104 210 l 225 237 l 319 138 q 382 134 349 134 q 518 163 464 134 q 572 248 572 193 q 552 292 572 275 q 493 304 532 309 l 338 286 q 314 285 330 285 q 200 318 253 285 q 116 408 147 351 q 85 529 85 464 q 144 674 85 626 q 315 722 204 722 l 443 722 l 443 811 l -14 811 l -37 960 l 1279 960 l 1300 811 l 1128 811 l 1128 0 m 635 811 l 635 572 l 355 572 q 277 511 276 572 q 350 450 277 442 l 501 465 q 530 467 511 467 q 631 444 583 467 l 937 444 l 937 811 l 635 811 z "},"ञ":{"ha":1301,"x_min":-36,"x_max":1333,"o":"m 1161 0 l 971 0 l 971 329 l 831 329 q 733 166 811 222 q 547 110 656 110 q 343 157 448 110 q 154 295 239 204 q 28 511 69 386 l 158 578 q 314 349 220 428 q 501 271 407 271 q 610 313 568 271 q 652 419 652 355 q 624 509 652 479 q 547 539 596 539 q 397 490 489 539 l 311 639 q 534 697 420 697 q 724 639 643 697 q 829 478 806 581 l 971 478 l 971 811 l -12 811 l -36 960 l 1312 960 l 1333 811 l 1161 811 l 1161 0 z "},"ट":{"ha":882,"x_min":-32,"x_max":914,"o":"m 475 191 q 617 227 551 191 q 724 310 682 262 l 850 183 q 686 69 781 106 q 489 32 591 32 q 281 76 378 32 q 125 203 184 119 q 66 400 66 286 q 160 621 66 542 q 411 700 253 700 l 513 700 l 513 811 l -8 811 l -32 960 l 892 960 l 914 811 l 703 811 l 704 546 l 454 546 q 315 499 367 546 q 264 379 264 453 q 321 240 264 290 q 475 191 378 191 z "},"ठ":{"ha":961,"x_min":-37,"x_max":1000,"o":"m 692 644 q 839 512 789 589 q 889 346 889 435 q 840 183 889 254 q 702 70 791 111 q 496 29 612 29 q 287 76 386 29 q 126 209 187 123 q 65 404 65 294 q 157 623 65 546 q 410 700 249 700 l 500 700 l 500 811 l -14 811 l -37 960 l 979 960 l 1000 811 l 690 811 l 692 644 m 478 189 q 633 238 570 189 q 697 368 697 288 q 599 546 697 460 l 449 546 q 312 504 361 546 q 262 383 262 461 q 321 239 262 289 q 478 189 379 189 z "},"ड":{"ha":895,"x_min":-25,"x_max":928,"o":"m 566 460 q 597 461 576 461 q 713 430 664 461 q 787 347 762 399 q 812 237 812 296 q 728 42 812 114 q 492 -29 644 -29 q 253 25 368 -29 q 56 164 138 79 l 153 258 q 301 160 220 195 q 461 126 382 126 q 586 158 536 126 q 636 239 636 191 q 575 297 636 297 q 554 296 562 297 l 414 278 q 387 277 404 277 q 269 311 323 277 q 183 404 215 346 q 151 525 151 461 q 211 671 151 619 q 386 722 271 722 l 517 722 l 517 811 l -1 811 l -25 960 l 905 960 l 928 811 l 708 811 l 708 571 l 425 571 q 346 509 346 571 q 425 443 346 435 l 566 460 z "},"ढ":{"ha":901,"x_min":-37,"x_max":942,"o":"m 602 481 q 722 454 668 481 q 808 378 777 427 q 839 271 839 330 q 799 137 839 197 q 682 42 760 78 q 494 7 604 7 q 271 60 371 7 q 115 201 171 113 q 58 395 58 290 q 97 557 58 485 q 214 670 136 629 q 403 711 292 711 l 530 711 l 530 811 l -14 811 l -37 960 l 920 960 l 942 811 l 722 811 l 722 558 l 439 558 q 306 504 355 558 q 256 372 256 449 q 317 219 256 275 q 484 163 379 163 q 612 200 564 163 q 660 292 660 237 q 645 337 660 321 q 607 354 631 354 q 568 339 582 354 q 554 300 554 323 q 562 264 554 283 l 439 222 q 401 330 401 277 q 456 440 401 399 q 602 481 510 481 z "},"ण":{"ha":1249,"x_min":-31,"x_max":1280,"o":"m 1108 0 l 918 0 l 918 811 l 721 811 l 721 515 q 645 285 721 359 q 412 211 568 211 q 243 249 318 211 q 125 358 168 288 q 82 522 82 428 l 82 811 l -8 811 l -31 960 l 1260 960 l 1280 811 l 1108 811 l 1108 0 m 272 811 l 272 509 q 301 401 272 433 q 400 370 330 370 q 497 414 464 370 q 530 529 530 458 l 530 811 l 272 811 z "},"त":{"ha":935,"x_min":-56,"x_max":966,"o":"m 794 636 l 794 0 l 604 0 l 604 488 l 407 488 q 308 450 342 488 q 273 355 273 412 q 302 210 273 293 q 380 35 330 127 l 257 -36 q 125 192 174 79 q 77 399 77 304 q 148 581 77 517 q 363 646 218 646 l 604 646 l 604 811 l -32 811 l -56 960 l 946 960 l 966 811 l 794 811 l 794 646 l 796 646 l 794 636 z "},"थ":{"ha":1061,"x_min":77,"x_max":1092,"o":"m 917 0 l 726 0 l 726 245 q 497 180 622 180 q 311 222 399 180 q 161 345 222 264 q 82 541 100 427 q 291 629 204 574 q 378 762 378 684 q 360 819 378 800 q 313 839 342 839 q 266 823 285 839 q 248 781 248 807 q 271 715 248 747 l 146 650 q 94 724 111 683 q 77 807 77 765 q 137 938 77 888 q 298 987 197 987 q 436 954 378 987 q 525 865 494 921 q 555 743 555 808 q 485 557 555 644 q 279 425 415 471 q 458 339 339 339 q 602 376 530 339 q 726 481 673 414 l 726 811 l 629 811 l 607 960 l 1069 960 l 1092 811 l 917 811 l 917 0 z "},"द":{"ha":913,"x_min":-46,"x_max":978,"o":"m 818 237 q 732 143 782 186 l 882 -57 l 732 -143 l 628 79 q 454 43 546 43 q 264 89 353 43 q 121 218 175 135 q 66 408 66 301 q 158 623 66 546 q 397 700 249 700 l 497 700 l 497 811 l -22 811 l -46 960 l 956 960 l 978 811 l 689 811 l 689 546 l 435 546 q 310 499 355 546 q 264 383 264 452 q 310 254 264 307 q 436 201 355 201 q 555 231 497 201 l 505 338 l 603 414 q 722 337 661 387 q 815 239 782 288 l 818 237 z "},"ध":{"ha":1065,"x_min":66,"x_max":1096,"o":"m 926 0 l 736 0 l 736 157 q 496 87 627 87 q 331 120 407 87 q 210 216 256 153 q 164 364 164 279 q 229 528 164 467 q 113 643 159 576 q 66 778 66 710 q 139 937 66 878 q 323 997 211 997 q 439 973 387 997 q 519 908 490 949 q 549 817 549 867 q 527 734 549 774 q 464 665 505 694 l 355 754 q 379 806 379 775 q 362 841 379 828 q 323 854 346 854 q 272 834 292 854 q 253 777 253 814 q 282 681 253 734 q 357 593 311 628 q 496 610 420 610 l 557 610 l 576 463 l 514 463 q 404 435 446 463 q 361 350 361 408 q 392 269 361 297 q 482 241 422 241 q 622 287 553 241 q 736 403 690 332 l 736 811 l 631 811 l 608 960 l 1075 960 l 1096 811 l 926 811 l 926 0 z "},"न":{"ha":923,"x_min":-31,"x_max":957,"o":"m 785 0 l 595 0 l 595 447 l 306 447 l 325 315 l 221 249 q 107 358 152 300 q 36 501 62 416 l 136 599 l 595 599 l 595 811 l -8 811 l -31 960 l 936 960 l 957 811 l 785 811 l 785 0 z "},"ऩ":{"ha":949,"x_min":-31,"x_max":957,"o":"m 785 0 l 595 0 l 595 447 l 306 447 l 325 315 l 221 249 q 107 358 152 300 q 36 501 62 416 l 136 599 l 595 599 l 595 811 l -8 811 l -31 960 l 936 960 l 957 811 l 785 811 l 785 0 m 195 129 q 240 109 211 129 q 291 61 269 89 q 313 12 313 33 q 292 -33 313 -5 q 246 -82 272 -60 q 203 -104 220 -104 q 156 -84 186 -104 q 104 -35 126 -63 q 82 12 82 -7 q 103 57 82 29 q 151 107 123 85 q 195 129 178 129 z "},"प":{"ha":872,"x_min":-36,"x_max":904,"o":"m 732 0 l 542 0 l 542 240 q 403 210 477 210 q 247 247 321 210 q 129 354 174 283 q 83 519 83 424 l 83 811 l -12 811 l -36 960 l 884 960 l 904 811 l 732 811 l 732 0 m 380 370 q 466 393 422 370 q 542 457 510 416 l 542 811 l 273 811 l 273 503 q 302 402 273 435 q 380 370 332 370 z "},"फ":{"ha":1253,"x_min":-36,"x_max":1287,"o":"m 889 657 q 1044 622 977 657 q 1149 525 1111 587 q 1187 383 1187 463 q 1140 213 1187 297 q 1004 58 1093 129 l 856 187 q 956 293 922 243 q 990 395 990 343 q 961 472 990 444 q 889 501 932 501 q 811 480 852 501 q 732 418 770 458 l 732 0 l 542 0 l 542 240 q 403 210 477 210 q 247 247 321 210 q 129 354 174 283 q 83 519 83 424 l 83 811 l -12 811 l -36 960 l 1265 960 l 1287 811 l 732 811 l 732 623 q 889 657 810 657 m 380 370 q 466 393 422 370 q 542 457 510 416 l 542 811 l 273 811 l 273 503 q 302 402 273 435 q 380 370 332 370 z "},"ब":{"ha":932,"x_min":-32,"x_max":1000,"o":"m 828 0 l 637 0 l 637 199 q 416 127 541 128 q 255 164 330 127 q 133 268 179 200 q 87 422 87 335 q 407 692 87 692 l 511 692 l 532 541 l 428 541 q 404 539 411 541 l 557 354 q 637 469 604 400 l 637 811 l -9 811 l -32 960 l 979 960 l 1000 811 l 828 811 l 828 0 m 401 283 q 469 296 436 283 l 309 490 q 285 411 285 460 q 315 317 285 350 q 401 283 345 283 z "},"भ":{"ha":1127,"x_min":46,"x_max":1160,"o":"m 987 0 l 798 0 l 798 340 l 515 340 l 515 241 l 397 170 q 283 286 332 216 q 207 439 233 355 l 335 490 l 335 751 q 320 817 335 794 q 271 839 306 839 q 230 824 245 839 q 215 783 215 808 q 257 705 215 746 l 155 618 q 75 696 104 648 q 46 798 46 743 q 106 933 46 880 q 262 987 165 987 q 450 917 385 987 q 515 720 515 847 l 515 496 l 798 496 l 798 811 l 652 811 l 629 960 l 1139 960 l 1160 811 l 987 811 l 987 0 z "},"म":{"ha":990,"x_min":-32,"x_max":1022,"o":"m 850 0 l 660 0 l 660 345 l 372 345 l 372 241 l 254 170 q 140 286 189 216 q 64 439 90 355 l 186 489 l 186 811 l -9 811 l -32 960 l 1002 960 l 1022 811 l 850 811 l 850 0 m 372 811 l 372 496 l 660 496 l 660 811 l 372 811 z "},"य":{"ha":1002,"x_min":-29,"x_max":1035,"o":"m 863 0 l 672 0 l 672 231 q 484 187 586 188 q 292 229 384 187 q 136 351 200 271 q 56 541 72 431 q 215 605 159 562 q 271 704 271 648 q 210 811 271 761 l -5 811 l -29 960 l 1014 960 l 1035 811 l 863 811 l 863 0 m 407 811 q 461 679 461 753 q 405 537 461 605 q 250 432 349 469 q 331 367 283 389 q 435 345 379 345 q 563 373 498 345 q 672 453 627 401 l 672 811 l 407 811 z "},"र":{"ha":587,"x_min":-39,"x_max":637,"o":"m 450 538 q 415 388 450 439 q 293 329 380 338 l 525 77 l 386 -39 l 45 441 l 121 559 q 260 521 187 553 q 262 581 262 538 l 262 811 l -18 811 l -39 960 l 618 960 l 637 811 l 450 811 l 450 538 z "},"ऱ":{"ha":587,"x_min":-39,"x_max":637,"o":"m 450 538 q 415 388 450 439 q 293 329 380 338 l 525 77 l 386 -39 l 45 441 l 121 559 q 260 521 187 553 q 262 581 262 538 l 262 811 l -18 811 l -39 960 l 618 960 l 637 811 l 450 811 l 450 538 m 106 129 q 151 109 122 129 q 202 61 180 89 q 224 12 224 33 q 203 -33 224 -5 q 157 -82 183 -60 q 114 -104 131 -104 q 67 -84 97 -104 q 15 -35 37 -63 q -7 12 -7 -7 q 14 57 -7 29 q 62 107 35 85 q 106 129 89 129 z "},"ल":{"ha":1177,"x_min":-41,"x_max":1210,"o":"m 1038 0 l 847 0 l 847 532 q 796 543 822 543 q 695 488 732 543 q 659 334 659 432 l 659 278 l 482 297 l 482 347 q 503 498 482 432 q 457 536 483 522 q 400 550 431 550 q 310 510 345 550 q 275 404 275 469 q 331 233 275 322 q 493 60 386 143 l 392 -57 q 165 181 243 53 q 86 433 86 310 q 162 627 86 554 q 359 700 237 700 q 471 677 418 700 q 566 612 525 654 q 779 694 644 694 q 847 682 814 694 l 847 811 l -18 811 l -41 960 l 1189 960 l 1210 811 l 1038 811 l 1038 0 z "},"ळ":{"ha":1241,"x_min":-35,"x_max":1278,"o":"m 978 659 q 1130 546 1072 625 q 1187 359 1187 467 q 1152 203 1187 271 q 1049 97 1116 135 q 897 60 983 60 q 751 92 823 60 q 615 178 679 125 q 372 60 521 60 q 201 105 274 60 q 90 225 129 150 q 52 390 52 301 q 127 601 52 522 q 338 679 203 679 q 618 564 481 679 q 787 672 688 651 l 787 811 l -9 811 l -35 960 l 1255 960 l 1278 811 l 978 811 l 978 659 m 358 214 q 440 256 408 214 q 515 387 472 298 q 547 453 521 398 q 380 525 450 525 q 281 479 317 525 q 245 363 245 433 q 273 254 245 294 q 358 214 301 214 m 851 214 q 957 260 921 214 q 993 378 993 306 q 964 483 993 441 q 876 525 935 525 q 815 502 842 525 q 769 445 789 479 q 717 347 749 411 l 688 289 q 775 235 730 257 q 851 214 819 214 z "},"ऴ":{"ha":1241,"x_min":-35,"x_max":1278,"o":"m 978 659 q 1130 546 1072 625 q 1187 359 1187 467 q 1152 203 1187 271 q 1049 97 1116 135 q 897 60 983 60 q 751 92 823 60 q 615 178 679 125 q 372 60 521 60 q 201 105 274 60 q 90 225 129 150 q 52 390 52 301 q 127 601 52 522 q 338 679 203 679 q 618 564 481 679 q 787 672 688 651 l 787 811 l -9 811 l -35 960 l 1255 960 l 1278 811 l 978 811 l 978 659 m 358 214 q 440 256 408 214 q 515 387 472 298 q 547 453 521 398 q 380 525 450 525 q 281 479 317 525 q 245 363 245 433 q 273 254 245 294 q 358 214 301 214 m 851 214 q 957 260 921 214 q 993 378 993 306 q 964 483 993 441 q 876 525 935 525 q 815 502 842 525 q 769 445 789 479 q 717 347 749 411 l 688 289 q 775 235 730 257 q 851 214 819 214 m 629 68 q 675 48 646 68 q 726 0 704 28 q 747 -49 747 -28 q 727 -94 747 -66 q 681 -143 707 -121 q 637 -165 654 -165 q 591 -145 621 -165 q 539 -96 561 -124 q 517 -49 517 -68 q 537 -4 517 -32 q 585 46 558 24 q 629 68 612 68 z "},"व":{"ha":965,"x_min":-35,"x_max":997,"o":"m 825 0 l 635 0 l 635 199 q 414 127 538 128 q 252 164 328 127 q 131 268 176 200 q 85 422 85 335 q 404 692 85 692 l 509 692 l 529 541 l 425 541 q 322 507 361 541 q 282 411 282 473 q 312 317 282 350 q 399 283 342 283 q 528 332 465 283 q 635 469 591 380 l 635 811 l -12 811 l -35 960 l 977 960 l 997 811 l 825 811 l 825 0 z "},"श":{"ha":1190,"x_min":60,"x_max":1222,"o":"m 694 650 q 624 404 694 510 q 431 260 554 297 l 608 78 l 471 -39 l 279 243 q 62 309 170 247 q 125 507 60 424 l 211 485 l 294 400 q 416 448 366 406 q 491 553 467 490 q 515 684 515 615 q 485 799 515 754 q 397 844 454 844 q 336 822 359 844 q 314 762 314 799 q 332 705 314 733 q 385 667 350 677 l 335 546 q 188 630 242 568 q 134 768 134 692 q 166 882 134 832 q 256 960 199 932 q 386 987 314 987 q 553 940 483 987 q 659 816 624 893 q 694 650 694 739 m 1050 0 l 860 0 l 860 811 l 714 811 l 692 960 l 1202 960 l 1222 811 l 1050 811 l 1050 0 z "},"ष":{"ha":872,"x_min":-36,"x_max":904,"o":"m 732 0 l 542 0 l 542 240 q 403 210 477 210 q 247 247 321 210 q 129 354 174 283 q 83 519 83 424 l 83 811 l -12 811 l -36 960 l 884 960 l 904 811 l 732 811 l 732 0 m 542 511 l 542 811 l 301 811 l 542 511 m 380 370 q 490 408 436 370 l 273 677 l 273 503 q 302 402 273 435 q 380 370 332 370 z "},"स":{"ha":1076,"x_min":-39,"x_max":1107,"o":"m 935 0 l 745 0 l 745 330 l 309 330 l 293 329 l 525 77 l 386 -39 l 45 441 l 121 559 q 260 521 187 553 q 262 581 262 538 l 262 811 l -18 811 l -39 960 l 1086 960 l 1107 811 l 935 811 l 935 0 m 450 811 l 450 538 q 447 482 450 515 l 745 482 l 745 811 l 450 811 z "},"ह":{"ha":871,"x_min":-36,"x_max":908,"o":"m 460 437 q 632 400 557 437 q 750 300 708 363 q 791 168 791 237 q 757 52 791 107 q 653 -45 722 -4 l 541 87 q 590 136 571 109 q 610 187 610 163 q 578 255 610 229 q 486 282 546 282 q 356 240 404 282 q 309 129 309 199 q 355 5 309 64 q 490 -91 401 -54 q 700 -127 579 -127 l 684 -265 q 384 -201 513 -264 q 187 -41 256 -138 q 118 154 118 56 q 142 270 118 216 q 211 363 165 323 q 137 445 163 399 q 110 536 110 492 q 165 666 110 614 q 330 717 221 717 l 521 717 l 521 811 l -12 811 l -36 960 l 886 960 l 908 811 l 711 811 l 711 561 l 385 561 q 328 546 349 561 q 307 503 307 530 q 346 425 307 464 q 460 437 399 437 z "},"ऺ":{"ha":0,"x_min":-330,"x_max":-140,"o":"m -330 909 l -330 1161 l -140 1161 l -140 909 l -330 909 z "},"ऻ":{"ha":468,"x_min":-31,"x_max":500,"o":"m 328 0 l 138 0 l 138 811 l -8 811 l -31 960 l 139 960 l 139 1161 l 329 1161 l 329 960 l 479 960 l 500 811 l 328 811 l 328 0 z "},"़":{"ha":0,"x_min":111,"x_max":342,"o":"m 224 -117 q 269 -137 240 -117 q 320 -184 298 -157 q 342 -233 342 -212 q 321 -278 342 -250 q 275 -328 301 -306 q 232 -350 249 -350 q 185 -329 215 -350 q 133 -281 155 -309 q 111 -233 111 -253 q 132 -188 111 -216 q 180 -138 153 -160 q 224 -117 207 -117 z "},"ा":{"ha":468,"x_min":-31,"x_max":500,"o":"m 328 0 l 138 0 l 138 811 l -8 811 l -31 960 l 479 960 l 500 811 l 328 811 l 328 0 z "},"ि":{"ha":468,"x_min":-31,"x_max":1084,"o":"m 443 1239 q 319 1204 367 1239 q 271 1100 271 1169 q 310 960 271 1038 l 479 960 l 500 811 l 328 811 l 328 0 l 138 0 l 138 811 l -8 811 l -31 960 l 140 960 q 81 1169 81 1075 q 161 1341 81 1283 q 371 1400 241 1400 q 727 1322 532 1400 q 1084 1117 922 1244 l 1007 1017 q 708 1177 860 1115 q 443 1239 557 1239 z "},"ी":{"ha":468,"x_min":-399,"x_max":500,"o":"m 328 0 l 138 0 l 138 811 l -8 811 l -31 960 l 140 960 q 74 1115 117 1051 q -21 1210 31 1178 q -122 1242 -72 1242 q -191 1218 -165 1242 q -216 1156 -216 1194 q -200 1084 -216 1125 l -326 1032 q -380 1113 -362 1069 q -399 1200 -399 1157 q -332 1343 -399 1286 q -146 1400 -265 1400 q 34 1350 -57 1400 q 201 1201 125 1300 q 319 960 277 1101 l 479 960 l 500 811 l 328 811 l 328 0 z "},"ु":{"ha":0,"x_min":-708,"x_max":-11,"o":"m -239 20 q -69 -45 -127 20 q -11 -208 -11 -110 q -82 -377 -11 -314 q -271 -440 -154 -440 q -509 -374 -390 -440 q -708 -182 -628 -309 l -600 -102 q -448 -237 -532 -191 q -293 -283 -363 -283 q -216 -259 -240 -283 q -192 -201 -192 -235 q -209 -154 -192 -171 q -257 -136 -225 -136 q -354 -164 -302 -136 l -429 -32 q -338 6 -389 -8 q -239 20 -288 20 z "},"ू":{"ha":0,"x_min":-482,"x_max":197,"o":"m -239 16 q -3 -64 -117 16 q 197 -309 110 -143 l 78 -366 q -72 -196 1 -253 q -215 -139 -146 -139 q -278 -160 -255 -139 q -301 -220 -301 -182 q -280 -268 -301 -252 q -222 -285 -258 -285 q -154 -271 -188 -285 l -113 -415 q -243 -440 -182 -440 q -415 -378 -347 -440 q -482 -212 -482 -317 q -415 -47 -482 -111 q -239 16 -349 16 z "},"ृ":{"ha":0,"x_min":-476,"x_max":31,"o":"m -107 -86 q -237 -134 -186 -103 q -289 -212 -289 -165 q -262 -270 -289 -247 q -195 -293 -236 -293 q -47 -241 -125 -293 l 31 -378 q -199 -449 -75 -448 q -341 -417 -278 -449 q -440 -328 -404 -385 q -476 -197 -476 -271 q -439 -68 -476 -127 q -329 25 -401 -9 q -154 62 -256 60 l -107 -86 z "},"ॄ":{"ha":0,"x_min":-458,"x_max":103,"o":"m -117 -64 q -288 -163 -288 -96 q -269 -204 -288 -189 q -220 -218 -250 -218 q -149 -207 -188 -218 q -75 -174 -110 -195 l -16 -307 q -165 -357 -83 -346 q -189 -414 -189 -385 q -168 -459 -189 -441 q -111 -476 -146 -476 q -34 -461 -78 -476 q 47 -427 9 -447 l 103 -557 q -6 -603 53 -587 q -119 -618 -65 -618 q -280 -570 -218 -618 q -342 -450 -342 -522 q -307 -346 -342 -399 q -417 -267 -376 -322 q -458 -149 -458 -212 q -380 -7 -458 -65 q -154 71 -301 52 l -117 -64 z "},"ॅ":{"ha":0,"x_min":-545,"x_max":82,"o":"m 82 1278 q -29 1091 52 1156 q -211 1026 -110 1026 q -398 1085 -308 1026 q -545 1251 -489 1143 l -446 1325 q -346 1222 -399 1260 q -235 1185 -292 1185 q -60 1336 -119 1185 l 82 1278 z "},"ॆ":{"ha":0,"x_min":-863,"x_max":-158,"o":"m -761 1413 q -725 1336 -745 1358 q -661 1297 -705 1314 q -478 1251 -615 1280 q -326 1217 -370 1229 q -231 1172 -267 1200 q -176 1087 -195 1143 q -158 937 -158 1031 l -307 937 q -327 1027 -307 1000 q -397 1072 -347 1055 q -575 1117 -449 1089 q -734 1157 -690 1141 q -837 1246 -812 1186 q -863 1386 -861 1307 l -761 1413 z "},"े":{"ha":0,"x_min":-811,"x_max":-151,"o":"m -672 1393 q -497 1353 -570 1393 q -369 1248 -424 1314 q -227 1050 -314 1182 q -151 937 -193 996 l -314 937 l -367 1011 q -467 1144 -429 1101 q -560 1211 -505 1186 q -701 1235 -615 1235 l -786 1235 l -811 1393 l -672 1393 z "},"ै":{"ha":0,"x_min":-817,"x_max":-155,"o":"m -636 1480 q -459 1431 -530 1480 q -339 1301 -387 1382 q -216 1064 -290 1221 l -155 937 l -297 937 q -400 1036 -347 1004 q -524 1078 -453 1068 q -721 1088 -595 1088 l -791 1088 l -817 1239 l -699 1239 q -524 1219 -594 1239 q -393 1145 -454 1198 q -504 1285 -445 1240 q -665 1329 -562 1329 l -778 1329 l -803 1480 l -636 1480 z "},"ॉ":{"ha":468,"x_min":-77,"x_max":550,"o":"m 328 0 l 138 0 l 138 811 l -8 811 l -31 960 l 479 960 l 500 811 l 328 811 l 328 0 m 550 1278 q 439 1091 519 1156 q 257 1026 358 1026 q 70 1085 160 1026 q -77 1251 -21 1143 l 22 1325 q 122 1222 68 1260 q 233 1185 176 1185 q 408 1336 349 1185 l 550 1278 z "},"ॊ":{"ha":460,"x_min":-396,"x_max":500,"o":"m 328 0 l 138 0 l 138 811 l -8 811 l -31 960 l 160 960 q 136 1034 156 1010 q 69 1072 115 1057 q -109 1117 18 1089 q -268 1157 -224 1141 q -370 1246 -346 1186 q -396 1386 -395 1307 l -294 1413 q -258 1336 -277 1358 q -195 1297 -239 1314 q -11 1251 -149 1280 q 140 1217 98 1229 q 233 1174 197 1201 q 288 1096 268 1147 q 309 960 307 1044 l 479 960 l 500 811 l 328 811 l 328 0 z "},"ो":{"ha":468,"x_min":-343,"x_max":500,"o":"m 328 0 l 138 0 l 138 811 l -8 811 l -31 960 l 138 960 q 104 1008 122 981 q 2 1143 41 1100 q -92 1211 -36 1186 q -233 1235 -147 1235 l -318 1235 l -343 1393 l -204 1393 q -28 1353 -101 1393 q 99 1247 45 1314 q 241 1048 154 1181 l 301 960 l 479 960 l 500 811 l 328 811 l 328 0 z "},"ौ":{"ha":468,"x_min":-349,"x_max":500,"o":"m 328 0 l 138 0 l 138 811 l -8 811 l -31 960 l 153 960 q 54 1043 105 1015 q -66 1079 3 1071 q -253 1088 -135 1088 l -323 1088 l -349 1239 l -231 1239 q -56 1219 -126 1239 q 75 1145 14 1198 q -35 1285 24 1240 q -197 1329 -94 1329 l -310 1329 l -335 1480 l -168 1480 q 11 1431 -61 1480 q 131 1300 82 1381 q 253 1063 179 1219 l 301 960 l 479 960 l 500 811 l 328 811 l 328 0 z "},"्":{"ha":0,"x_min":-411,"x_max":41,"o":"m -43 -514 l -411 -207 l -300 -77 l 41 -410 l -43 -514 z "},"ॎ":{"ha":468,"x_min":139,"x_max":500,"o":"m 329 0 l 139 0 l 139 960 l 479 960 l 500 811 l 329 811 l 329 0 z "},"ॏ":{"ha":468,"x_min":-457,"x_max":500,"o":"m 328 0 l 138 0 l 138 811 l -8 811 l -31 960 l 142 960 q 110 980 131 972 q 53 996 89 989 q -107 1021 -15 1009 q -236 1040 -186 1031 q -323 1061 -286 1048 q -429 1143 -403 1086 q -457 1276 -456 1200 l -358 1301 q -322 1231 -342 1253 q -256 1196 -301 1210 q -85 1164 -213 1182 q 72 1136 26 1147 q 205 1067 165 1112 q 167 1128 195 1104 q 93 1173 139 1153 q -58 1225 41 1194 q -182 1270 -155 1257 q -297 1455 -297 1320 q -294 1499 -297 1471 l -197 1521 q -165 1445 -182 1467 q -104 1404 -149 1423 q 40 1350 -63 1386 q 207 1286 163 1305 q 310 1203 281 1251 q 339 1069 339 1154 q 330 960 339 1010 l 479 960 l 500 811 l 328 811 l 328 0 z "},"ॐ":{"ha":1486,"x_min":26,"x_max":1423,"o":"m 1028 997 q 981 1018 1011 997 q 929 1067 951 1039 q 907 1116 907 1095 q 928 1160 907 1133 q 976 1209 949 1187 q 1019 1231 1003 1231 q 1065 1211 1036 1231 q 1116 1163 1095 1190 q 1137 1116 1137 1136 q 1117 1070 1137 1099 q 1071 1019 1097 1042 q 1028 997 1044 997 m 1048 762 q 861 821 951 762 q 715 987 771 879 l 814 1061 q 914 959 860 996 q 1025 921 968 921 q 1200 1072 1140 921 l 1341 1014 q 1231 827 1311 892 q 1048 762 1150 762 m 1118 705 q 1283 666 1214 705 q 1388 558 1353 627 q 1423 407 1423 490 q 1331 187 1423 258 q 1075 115 1238 115 l 1004 115 l 986 273 l 1064 273 q 1225 415 1225 273 q 1116 547 1225 547 q 1058 524 1081 547 q 1002 452 1035 501 q 945 373 971 403 q 878 321 920 343 q 775 300 836 300 l 741 300 l 741 294 q 698 161 741 218 q 584 75 656 104 q 428 45 513 45 q 172 138 281 45 q 26 390 62 232 l 163 450 q 261 266 200 326 q 401 207 322 207 q 504 242 467 207 q 542 334 542 278 q 519 410 542 375 q 458 472 497 446 q 318 440 393 450 l 272 595 q 447 654 389 618 q 505 743 505 689 q 475 806 505 783 q 395 828 446 828 q 214 783 317 828 l 157 939 q 285 974 218 961 q 408 987 353 987 q 558 956 493 987 q 660 867 624 924 q 696 741 696 811 q 589 538 696 617 q 685 452 648 500 l 725 452 q 783 473 760 452 q 840 542 807 494 q 905 625 873 592 q 989 682 937 659 q 1118 705 1042 705 z "},"॑":{"ha":0,"x_min":-314,"x_max":-158,"o":"m -314 1043 l -314 1453 l -158 1453 l -158 1043 l -314 1043 z "},"॒":{"ha":0,"x_min":-798,"x_max":-139,"o":"m -798 -301 l -798 -160 l -139 -160 l -139 -301 l -798 -301 z "},"॓":{"ha":0,"x_min":-514,"x_max":-57,"o":"m -150 1028 l -514 1295 l -406 1419 l -57 1136 l -150 1028 z "},"॔":{"ha":0,"x_min":-437,"x_max":21,"o":"m -345 1028 l -437 1132 l -89 1419 l 21 1291 l -345 1028 z "},"ॕ":{"ha":0,"x_min":-546,"x_max":81,"o":"m 81 1461 q -31 1274 50 1339 q -212 1210 -111 1210 q -400 1268 -309 1210 q -546 1435 -490 1326 l -447 1508 q -347 1406 -401 1443 q -236 1368 -293 1368 q -61 1520 -121 1368 l 81 1461 m -485 1021 l -507 1168 l 32 1168 l 54 1021 l -485 1021 z "},"ॖ":{"ha":0,"x_min":-1028,"x_max":-282,"o":"m -282 -104 q -422 -267 -334 -211 q -618 -322 -511 -322 q -830 -271 -722 -322 q -1028 -121 -937 -220 l -925 -39 q -789 -137 -861 -102 q -647 -171 -717 -171 q -521 -137 -579 -171 q -428 -39 -463 -103 l -282 -104 z "},"ॗ":{"ha":0,"x_min":-850,"x_max":-90,"o":"m -103 -100 q -238 -267 -150 -210 q -433 -323 -326 -323 q -649 -272 -539 -323 q -850 -121 -758 -220 l -747 -39 q -608 -136 -685 -101 q -458 -171 -530 -171 q -334 -138 -391 -171 q -244 -43 -278 -106 l -103 -100 m -90 -378 q -235 -544 -144 -488 q -433 -600 -325 -600 q -649 -549 -541 -600 q -850 -399 -758 -497 l -747 -317 q -606 -414 -684 -379 q -454 -449 -529 -449 q -330 -417 -388 -449 q -233 -326 -272 -386 l -90 -378 z "}}}
